<svg xmlns="http://www.w3.org/2000/svg" viewBox="0 0 374.34 108.07"><defs><style>.cls-1{fill:#f2f2f2;}</style></defs><g id="Capa_2" data-name="Capa 2"><g id="Capa_1-2" data-name="Capa 1"><path class="cls-1" d="M132,73.94a30.1,30.1,0,0,1-4.71-.39,14.85,14.85,0,0,1-4.4-1.39,3.31,3.31,0,0,1-1.55-1.34,3,3,0,0,1-.39-1.67,2.68,2.68,0,0,1,.55-1.52,2.4,2.4,0,0,1,1.31-.89,2.66,2.66,0,0,1,1.81.18,22.27,22.27,0,0,0,4,1.26,17.74,17.74,0,0,0,3.48.36,5.72,5.72,0,0,0,3.25-.73,2.22,2.22,0,0,0,1.05-1.88,1.75,1.75,0,0,0-.68-1.5,5.27,5.27,0,0,0-2-.76l-5.56-1a9.18,9.18,0,0,1-4.94-2.41,6.25,6.25,0,0,1-1.76-4.61,7.16,7.16,0,0,1,1.47-4.55A9.25,9.25,0,0,1,127,48.2a16,16,0,0,1,5.89-1,20.69,20.69,0,0,1,4.32.42A15,15,0,0,1,141,49a2.54,2.54,0,0,1,1.57,2.83,3.59,3.59,0,0,1-.66,1.49,2.46,2.46,0,0,1-1.31.89,2.84,2.84,0,0,1-1.91-.23,21.47,21.47,0,0,0-3.09-1,11.57,11.57,0,0,0-2.62-.34,6.34,6.34,0,0,0-3.48.74,2.2,2.2,0,0,0-1.07,1.88,2,2,0,0,0,.63,1.49,3.42,3.42,0,0,0,1.88.82l5.55.94a10,10,0,0,1,5.14,2.33,6.05,6.05,0,0,1,1.78,4.58,7.28,7.28,0,0,1-3.12,6.31A14,14,0,0,1,132,73.94Z"/><path class="cls-1" d="M157.21,73.94q-4.67,0-7-2.57c-1.53-1.71-2.3-4.27-2.3-7.7V40.06a3.93,3.93,0,0,1,1.05-3,4,4,0,0,1,2.88-1,4.1,4.1,0,0,1,3,1,4,4,0,0,1,1,3v23.3a4.65,4.65,0,0,0,.91,3.17,3.13,3.13,0,0,0,2.44,1,7,7,0,0,0,.81,0l.76-.11a1.16,1.16,0,0,1,1.18.55,5.83,5.83,0,0,1,.34,2.44,3.82,3.82,0,0,1-.63,2.35,2.88,2.88,0,0,1-1.94,1c-.31,0-.7.07-1.15.11S157.66,73.94,157.21,73.94Z"/><path class="cls-1" d="M188.63,61.76a1.78,1.78,0,0,0,.63-1.49,16.53,16.53,0,0,0-.84-5.42A11.29,11.29,0,0,0,186,50.71a11.16,11.16,0,0,0-3.85-2.62,13.38,13.38,0,0,0-5.11-.91,13.24,13.24,0,0,0-6.75,1.72,12.64,12.64,0,0,0-4.69,4.69,13.75,13.75,0,0,0-1.7,6.94,14,14,0,0,0,1.75,7.15,11.64,11.64,0,0,0,5,4.63,17.34,17.34,0,0,0,7.83,1.63,22.07,22.07,0,0,0,4.3-.45A13.25,13.25,0,0,0,186.85,72a3.46,3.46,0,0,0,1.49-1.44,3.27,3.27,0,0,0,.39-1.75,2.53,2.53,0,0,0-.6-1.55,2.62,2.62,0,0,0-1.44-.86,3.41,3.41,0,0,0-2.15.36,13.06,13.06,0,0,1-3.06,1,14.87,14.87,0,0,1-2.85.31q-3.72,0-5.55-1.88a6.75,6.75,0,0,1-1.71-3.93H186.8A2.91,2.91,0,0,0,188.63,61.76Zm-17.28-3.58a9.12,9.12,0,0,1,.63-2.34,5.65,5.65,0,0,1,2.09-2.59,5.94,5.94,0,0,1,3.3-.89,5.34,5.34,0,0,1,2.91.76,4.88,4.88,0,0,1,1.8,2.2,8.12,8.12,0,0,1,.61,2.86Z"/><path class="cls-1" d="M217.38,61.76a1.78,1.78,0,0,0,.63-1.49,16.53,16.53,0,0,0-.84-5.42,11.29,11.29,0,0,0-2.46-4.14,11.16,11.16,0,0,0-3.85-2.62A14.39,14.39,0,0,0,199,48.9a12.64,12.64,0,0,0-4.69,4.69,13.75,13.75,0,0,0-1.7,6.94,14,14,0,0,0,1.75,7.15,11.64,11.64,0,0,0,5,4.63,17.34,17.34,0,0,0,7.83,1.63,21.89,21.89,0,0,0,4.29-.45A13.21,13.21,0,0,0,215.6,72a3.46,3.46,0,0,0,1.49-1.44,3.27,3.27,0,0,0,.39-1.75,2.53,2.53,0,0,0-.6-1.55,2.62,2.62,0,0,0-1.44-.86,3.37,3.37,0,0,0-2.14.36,13.13,13.13,0,0,1-3.07,1,14.79,14.79,0,0,1-2.85.31q-3.72,0-5.55-1.88a6.75,6.75,0,0,1-1.71-3.93h15.43A2.91,2.91,0,0,0,217.38,61.76ZM200.1,58.18a9.12,9.12,0,0,1,.63-2.34,5.65,5.65,0,0,1,2.09-2.59,5.94,5.94,0,0,1,3.3-.89,5.34,5.34,0,0,1,2.91.76,4.82,4.82,0,0,1,1.8,2.2,8.12,8.12,0,0,1,.61,2.86Z"/><path class="cls-1" d="M247.05,71.16A2.72,2.72,0,0,1,246,73.1a3.84,3.84,0,0,1-2.39.73,5.49,5.49,0,0,1-2.85-.65,8.69,8.69,0,0,1-2.17-2l-7.91-8.85h-.11v7.54c0,2.66-1.32,4-4,4a3.59,3.59,0,0,1-3.92-4V40.05a3.92,3.92,0,0,1,1-3,4,4,0,0,1,2.88-1,4.09,4.09,0,0,1,3,1,4,4,0,0,1,1,3V58.38h.11L238.22,50a11.51,11.51,0,0,1,2.1-2,4.51,4.51,0,0,1,2.62-.66,3.41,3.41,0,0,1,2.51.84,2.85,2.85,0,0,1,.86,2,3.7,3.7,0,0,1-1,2.43L238.6,60l7.58,8.74A3.38,3.38,0,0,1,247.05,71.16Z"/><path class="cls-1" d="M269.51,52.88A3.66,3.66,0,0,1,267,54l-1.2.1a6.87,6.87,0,0,0-4.43,1.73,5.81,5.81,0,0,0-1.44,4.24v9.74a4.07,4.07,0,0,1-1,3,4,4,0,0,1-3,1,4.16,4.16,0,0,1-3-1,3.93,3.93,0,0,1-1-3V51.26a4,4,0,0,1,1-3,3.94,3.94,0,0,1,2.91-1,3.75,3.75,0,0,1,2.82,1,4,4,0,0,1,1,3v.89a7.18,7.18,0,0,1,2.22-3,9.79,9.79,0,0,1,5.63-1.93,2.3,2.3,0,0,1,2,.65,4.08,4.08,0,0,1,.81,2.54A3.66,3.66,0,0,1,269.51,52.88Z"/><path class="cls-1" d="M296.46,61.76a1.78,1.78,0,0,0,.62-1.49,16.53,16.53,0,0,0-.83-5.42,10.92,10.92,0,0,0-6.31-6.76,13.38,13.38,0,0,0-5.11-.91,13.24,13.24,0,0,0-6.75,1.72,12.64,12.64,0,0,0-4.69,4.69,13.65,13.65,0,0,0-1.7,6.94,14,14,0,0,0,1.75,7.15,11.64,11.64,0,0,0,5,4.63,17.34,17.34,0,0,0,7.83,1.63,21.89,21.89,0,0,0,4.29-.45A13.31,13.31,0,0,0,294.68,72a3.52,3.52,0,0,0,1.49-1.44,3.46,3.46,0,0,0,.39-1.75,2.56,2.56,0,0,0-2-2.41,3.41,3.41,0,0,0-2.15.36,13.21,13.21,0,0,1-3.06,1,15,15,0,0,1-2.86.31c-2.48,0-4.32-.63-5.55-1.88a6.8,6.8,0,0,1-1.7-3.93h15.42A2.94,2.94,0,0,0,296.46,61.76Zm-17.28-3.58a9.12,9.12,0,0,1,.62-2.34,5.73,5.73,0,0,1,2.1-2.59,5.91,5.91,0,0,1,3.3-.89,5.28,5.28,0,0,1,2.9.76,4.84,4.84,0,0,1,1.81,2.2,8.12,8.12,0,0,1,.61,2.86Z"/><path class="cls-1" d="M327.43,53.41a10.52,10.52,0,0,0-3.95-4.61,10.86,10.86,0,0,0-5.92-1.62,9.89,9.89,0,0,0-5.47,1.52,7.36,7.36,0,0,0-2.59,2.71v-.15a4,4,0,0,0-1-3,3.85,3.85,0,0,0-2.85-1,3.94,3.94,0,0,0-2.91,1,4,4,0,0,0-1,3v28a3.9,3.9,0,0,0,1.05,3,4,4,0,0,0,2.88,1,4,4,0,0,0,3-1,4,4,0,0,0,1-3V69.92a7.47,7.47,0,0,0,2.57,2.55,10,10,0,0,0,5.39,1.47,10.28,10.28,0,0,0,9.85-6.23,16.94,16.94,0,0,0,1.41-7.18A16.69,16.69,0,0,0,327.43,53.41Zm-7.28,11.36a5.19,5.19,0,0,1-2,2.49,5.41,5.41,0,0,1-3,.81,5.13,5.13,0,0,1-4.08-1.83q-1.58-1.83-1.57-5.71a10.85,10.85,0,0,1,.7-4.19,5.18,5.18,0,0,1,2-2.46,5.62,5.62,0,0,1,3-.78,5.18,5.18,0,0,1,4.09,1.8c1,1.21,1.57,3.08,1.57,5.63A11,11,0,0,1,320.15,64.77Z"/><path class="cls-1" d="M342.91,73.94q-4.67,0-7-2.57c-1.54-1.71-2.3-4.27-2.3-7.7V40.06a4,4,0,0,1,1-3,4,4,0,0,1,2.88-1,4.07,4.07,0,0,1,3,1,4,4,0,0,1,1,3v23.3a4.65,4.65,0,0,0,.92,3.17,3.11,3.11,0,0,0,2.44,1,7.19,7.19,0,0,0,.81,0l.76-.11a1.16,1.16,0,0,1,1.18.55,5.83,5.83,0,0,1,.34,2.44,3.82,3.82,0,0,1-.63,2.35,2.88,2.88,0,0,1-1.94,1c-.31,0-.7.07-1.15.11S343.36,73.94,342.91,73.94Z"/><path class="cls-1" d="M373.86,52.36,361.55,80.27a5.19,5.19,0,0,1-1.75,2.39,4.57,4.57,0,0,1-2.44.6,3.39,3.39,0,0,1-2.25-.71,3.08,3.08,0,0,1-1.05-1.88,4,4,0,0,1,.42-2.49l2.8-6.14-8.56-19.63a4.8,4.8,0,0,1-.32-2.54A2.91,2.91,0,0,1,349.56,48a4.39,4.39,0,0,1,2.67-.71,3.88,3.88,0,0,1,2.33.63,5.16,5.16,0,0,1,1.49,2.57l5.43,13.58L367,50.37a5.36,5.36,0,0,1,1.65-2.43,4.15,4.15,0,0,1,2.48-.66,3.21,3.21,0,0,1,2.18.71,3,3,0,0,1,1,1.86A4.42,4.42,0,0,1,373.86,52.36Z"/><circle class="cls-1" cx="18.03" cy="58.85" r="3.15"/><path class="cls-1" d="M55.26,55.49a3.15,3.15,0,1,0,3.15,3.15A3.15,3.15,0,0,0,55.26,55.49Zm0,0a3.15,3.15,0,1,0,3.15,3.15A3.15,3.15,0,0,0,55.26,55.49ZM14.18,30.38a1.38,1.38,0,1,0,1.37,1.37A1.37,1.37,0,0,0,14.18,30.38ZM55.26,55.49a3.15,3.15,0,1,0,3.15,3.15A3.15,3.15,0,0,0,55.26,55.49ZM14.18,30.38a1.38,1.38,0,1,0,1.37,1.37A1.37,1.37,0,0,0,14.18,30.38ZM55.26,55.49a3.15,3.15,0,1,0,3.15,3.15A3.15,3.15,0,0,0,55.26,55.49ZM14.18,30.38a1.38,1.38,0,1,0,1.37,1.37A1.37,1.37,0,0,0,14.18,30.38Zm13.4,0a1.38,1.38,0,0,0,0,2.75,1.38,1.38,0,1,0,0-2.75Zm13.41,0a1.38,1.38,0,1,0,1.37,1.37A1.37,1.37,0,0,0,41,30.38ZM55.26,55.49a3.15,3.15,0,1,0,3.15,3.15A3.15,3.15,0,0,0,55.26,55.49ZM14.18,30.38a1.38,1.38,0,1,0,1.37,1.37A1.37,1.37,0,0,0,14.18,30.38Zm13.4,0a1.38,1.38,0,0,0,0,2.75,1.38,1.38,0,1,0,0-2.75Zm13.41,0a1.38,1.38,0,1,0,1.37,1.37A1.37,1.37,0,0,0,41,30.38ZM55.26,55.49a3.15,3.15,0,1,0,3.15,3.15A3.15,3.15,0,0,0,55.26,55.49ZM14.18,30.38a1.38,1.38,0,1,0,1.37,1.37A1.37,1.37,0,0,0,14.18,30.38Zm13.4,0a1.38,1.38,0,0,0,0,2.75,1.38,1.38,0,1,0,0-2.75Zm13.41,0a1.38,1.38,0,1,0,1.37,1.37A1.37,1.37,0,0,0,41,30.38Zm13.4,0a1.38,1.38,0,0,0,0,2.75,1.38,1.38,0,1,0,0-2.75Zm.87,25.11a3.15,3.15,0,1,0,3.15,3.15A3.15,3.15,0,0,0,55.26,55.49ZM67.8,30.38a1.38,1.38,0,1,0,1.37,1.37A1.37,1.37,0,0,0,67.8,30.38Zm-53.62,0a1.38,1.38,0,1,0,1.37,1.37A1.37,1.37,0,0,0,14.18,30.38Zm13.4,0a1.38,1.38,0,0,0,0,2.75,1.38,1.38,0,1,0,0-2.75Zm13.41,0a1.38,1.38,0,1,0,1.37,1.37A1.37,1.37,0,0,0,41,30.38Zm13.4,0a1.38,1.38,0,0,0,0,2.75,1.38,1.38,0,1,0,0-2.75Zm.87,25.11a3.15,3.15,0,1,0,3.15,3.15A3.15,3.15,0,0,0,55.26,55.49ZM67.8,30.38a1.38,1.38,0,1,0,1.37,1.37A1.37,1.37,0,0,0,67.8,30.38Zm-53.62,0a1.38,1.38,0,1,0,1.37,1.37A1.37,1.37,0,0,0,14.18,30.38Zm13.4,0a1.38,1.38,0,0,0,0,2.75,1.38,1.38,0,1,0,0-2.75Zm13.41,0a1.38,1.38,0,1,0,1.37,1.37A1.37,1.37,0,0,0,41,30.38Zm13.4,0a1.38,1.38,0,0,0,0,2.75,1.38,1.38,0,1,0,0-2.75Zm.87,25.11a3.15,3.15,0,1,0,3.15,3.15A3.15,3.15,0,0,0,55.26,55.49ZM67.8,30.38a1.38,1.38,0,1,0,1.37,1.37A1.37,1.37,0,0,0,67.8,30.38Zm-53.62,0a1.38,1.38,0,1,0,1.37,1.37A1.37,1.37,0,0,0,14.18,30.38Zm13.4,0a1.38,1.38,0,0,0,0,2.75,1.38,1.38,0,1,0,0-2.75Zm13.41,0a1.38,1.38,0,1,0,1.37,1.37A1.37,1.37,0,0,0,41,30.38Zm13.4,0a1.38,1.38,0,0,0,0,2.75,1.38,1.38,0,1,0,0-2.75Zm.87,25.11a3.15,3.15,0,1,0,3.15,3.15A3.15,3.15,0,0,0,55.26,55.49ZM67.8,30.38a1.38,1.38,0,1,0,1.37,1.37A1.37,1.37,0,0,0,67.8,30.38Zm-53.62,0a1.38,1.38,0,1,0,1.37,1.37A1.37,1.37,0,0,0,14.18,30.38Zm13.4,0a1.38,1.38,0,0,0,0,2.75,1.38,1.38,0,1,0,0-2.75Zm13.41,0a1.38,1.38,0,1,0,1.37,1.37A1.37,1.37,0,0,0,41,30.38Zm13.4,0a1.38,1.38,0,0,0,0,2.75,1.38,1.38,0,1,0,0-2.75Zm.87,25.11a3.15,3.15,0,1,0,3.15,3.15A3.15,3.15,0,0,0,55.26,55.49ZM67.8,30.38a1.38,1.38,0,1,0,1.37,1.37A1.37,1.37,0,0,0,67.8,30.38ZM55.26,55.49a3.15,3.15,0,1,0,3.15,3.15A3.15,3.15,0,0,0,55.26,55.49Zm-.87-25.11a1.38,1.38,0,0,0,0,2.75,1.38,1.38,0,1,0,0-2.75Zm13.41,0a1.38,1.38,0,1,0,1.37,1.37A1.37,1.37,0,0,0,67.8,30.38Zm-40.22,0a1.38,1.38,0,0,0,0,2.75,1.38,1.38,0,1,0,0-2.75Zm-13.4,0a1.38,1.38,0,1,0,1.37,1.37A1.37,1.37,0,0,0,14.18,30.38Zm26.81,0a1.38,1.38,0,1,0,1.37,1.37A1.37,1.37,0,0,0,41,30.38Zm-26.81,0a1.38,1.38,0,1,0,1.37,1.37A1.37,1.37,0,0,0,14.18,30.38Zm13.4,0a1.38,1.38,0,0,0,0,2.75,1.38,1.38,0,1,0,0-2.75Zm13.41,0a1.38,1.38,0,1,0,1.37,1.37A1.37,1.37,0,0,0,41,30.38Zm13.4,0a1.38,1.38,0,0,0,0,2.75,1.38,1.38,0,1,0,0-2.75Zm.87,25.11a3.15,3.15,0,1,0,3.15,3.15A3.15,3.15,0,0,0,55.26,55.49ZM67.8,30.38a1.38,1.38,0,1,0,1.37,1.37A1.37,1.37,0,0,0,67.8,30.38Zm0,0a1.38,1.38,0,1,0,1.37,1.37A1.37,1.37,0,0,0,67.8,30.38Zm-13.41,0a1.38,1.38,0,0,0,0,2.75,1.38,1.38,0,1,0,0-2.75Zm-26.81,0a1.38,1.38,0,0,0,0,2.75,1.38,1.38,0,1,0,0-2.75Zm-13.4,0a1.38,1.38,0,1,0,1.37,1.37A1.37,1.37,0,0,0,14.18,30.38Zm26.81,0a1.38,1.38,0,1,0,1.37,1.37A1.37,1.37,0,0,0,41,30.38ZM55.26,55.49a3.15,3.15,0,1,0,3.15,3.15A3.15,3.15,0,0,0,55.26,55.49ZM14.18,30.38a1.38,1.38,0,1,0,1.37,1.37A1.37,1.37,0,0,0,14.18,30.38Zm13.4,0a1.38,1.38,0,0,0,0,2.75,1.38,1.38,0,1,0,0-2.75Zm13.41,0a1.38,1.38,0,1,0,1.37,1.37A1.37,1.37,0,0,0,41,30.38Zm13.4,0a1.38,1.38,0,0,0,0,2.75,1.38,1.38,0,1,0,0-2.75Zm.87,25.11a3.15,3.15,0,1,0,3.15,3.15A3.15,3.15,0,0,0,55.26,55.49ZM67.8,30.38a1.38,1.38,0,1,0,1.37,1.37A1.37,1.37,0,0,0,67.8,30.38Zm0,0a1.38,1.38,0,1,0,1.37,1.37A1.37,1.37,0,0,0,67.8,30.38Zm-13.41,0a1.38,1.38,0,0,0,0,2.75,1.38,1.38,0,1,0,0-2.75Zm-26.81,0a1.38,1.38,0,0,0,0,2.75,1.38,1.38,0,1,0,0-2.75Zm-13.4,0a1.38,1.38,0,1,0,1.37,1.37A1.37,1.37,0,0,0,14.18,30.38Zm26.81,0a1.38,1.38,0,1,0,1.37,1.37A1.37,1.37,0,0,0,41,30.38ZM55.26,55.49a3.15,3.15,0,1,0,3.15,3.15A3.15,3.15,0,0,0,55.26,55.49ZM14.18,30.38a1.38,1.38,0,1,0,1.37,1.37A1.37,1.37,0,0,0,14.18,30.38Zm13.4,0a1.38,1.38,0,0,0,0,2.75,1.38,1.38,0,1,0,0-2.75Zm13.41,0a1.38,1.38,0,1,0,1.37,1.37A1.37,1.37,0,0,0,41,30.38Zm13.4,0a1.38,1.38,0,0,0,0,2.75,1.38,1.38,0,1,0,0-2.75Zm.87,25.11a3.15,3.15,0,1,0,3.15,3.15A3.15,3.15,0,0,0,55.26,55.49ZM67.8,30.38a1.38,1.38,0,1,0,1.37,1.37A1.37,1.37,0,0,0,67.8,30.38Zm0,0a1.38,1.38,0,1,0,1.37,1.37A1.37,1.37,0,0,0,67.8,30.38ZM55.26,55.49a3.15,3.15,0,1,0,3.15,3.15A3.15,3.15,0,0,0,55.26,55.49Zm-.87-25.11a1.38,1.38,0,0,0,0,2.75,1.38,1.38,0,1,0,0-2.75Zm-13.4,0a1.38,1.38,0,1,0,1.37,1.37A1.37,1.37,0,0,0,41,30.38Zm-13.41,0a1.38,1.38,0,0,0,0,2.75,1.38,1.38,0,1,0,0-2.75Zm-13.4,0a1.38,1.38,0,1,0,1.37,1.37A1.37,1.37,0,0,0,14.18,30.38Zm53.62,0a1.38,1.38,0,1,0,1.37,1.37A1.37,1.37,0,0,0,67.8,30.38ZM61.29,84a1.36,1.36,0,1,0-1.93,1.93,1.39,1.39,0,0,0,1.93,0,1.36,1.36,0,0,0,0-1.93Zm-6-28.49a3.15,3.15,0,1,0,3.15,3.15A3.15,3.15,0,0,0,55.26,55.49Zm-.87-25.11a1.38,1.38,0,0,0,0,2.75,1.38,1.38,0,1,0,0-2.75Zm-13.4,0a1.38,1.38,0,1,0,1.37,1.37A1.37,1.37,0,0,0,41,30.38Zm-13.41,0a1.38,1.38,0,0,0,0,2.75,1.38,1.38,0,1,0,0-2.75Zm-13.4,0a1.38,1.38,0,1,0,1.37,1.37A1.37,1.37,0,0,0,14.18,30.38ZM55.26,55.49a3.15,3.15,0,1,0,3.15,3.15A3.15,3.15,0,0,0,55.26,55.49ZM41,30.38a1.38,1.38,0,1,0,1.37,1.37A1.37,1.37,0,0,0,41,30.38Zm-26.81,0a1.38,1.38,0,1,0,1.37,1.37A1.37,1.37,0,0,0,14.18,30.38Zm13.4,0a1.38,1.38,0,0,0,0,2.75,1.38,1.38,0,1,0,0-2.75Zm26.81,0a1.38,1.38,0,0,0,0,2.75,1.38,1.38,0,1,0,0-2.75Zm13.41,0a1.38,1.38,0,1,0,1.37,1.37A1.37,1.37,0,0,0,67.8,30.38Zm0,0a1.38,1.38,0,1,0,1.37,1.37A1.37,1.37,0,0,0,67.8,30.38ZM55.26,55.49a3.15,3.15,0,1,0,3.15,3.15A3.15,3.15,0,0,0,55.26,55.49Zm-.87-25.11a1.38,1.38,0,0,0,0,2.75,1.38,1.38,0,1,0,0-2.75Zm-13.4,0a1.38,1.38,0,1,0,1.37,1.37A1.37,1.37,0,0,0,41,30.38Zm-13.41,0a1.38,1.38,0,0,0,0,2.75,1.38,1.38,0,1,0,0-2.75Zm-13.4,0a1.38,1.38,0,1,0,1.37,1.37A1.37,1.37,0,0,0,14.18,30.38ZM55.26,55.49a3.15,3.15,0,1,0,3.15,3.15A3.15,3.15,0,0,0,55.26,55.49ZM41,30.38a1.38,1.38,0,1,0,1.37,1.37A1.37,1.37,0,0,0,41,30.38Zm-26.81,0a1.38,1.38,0,1,0,1.37,1.37A1.37,1.37,0,0,0,14.18,30.38Zm13.4,0a1.38,1.38,0,0,0,0,2.75,1.38,1.38,0,1,0,0-2.75Zm26.81,0a1.38,1.38,0,0,0,0,2.75,1.38,1.38,0,1,0,0-2.75Zm13.41,0a1.38,1.38,0,1,0,1.37,1.37A1.37,1.37,0,0,0,67.8,30.38Zm0,0a1.38,1.38,0,1,0,1.37,1.37A1.37,1.37,0,0,0,67.8,30.38ZM55.26,55.49a3.15,3.15,0,1,0,3.15,3.15A3.15,3.15,0,0,0,55.26,55.49Zm-.87-25.11a1.38,1.38,0,0,0,0,2.75,1.38,1.38,0,1,0,0-2.75Zm-13.4,0a1.38,1.38,0,1,0,1.37,1.37A1.37,1.37,0,0,0,41,30.38Zm-13.41,0a1.38,1.38,0,0,0,0,2.75,1.38,1.38,0,1,0,0-2.75Zm-13.4,0a1.38,1.38,0,1,0,1.37,1.37A1.37,1.37,0,0,0,14.18,30.38ZM55.26,55.49a3.15,3.15,0,1,0,3.15,3.15A3.15,3.15,0,0,0,55.26,55.49ZM41,30.38a1.38,1.38,0,1,0,1.37,1.37A1.37,1.37,0,0,0,41,30.38Zm-26.81,0a1.38,1.38,0,1,0,1.37,1.37A1.37,1.37,0,0,0,14.18,30.38Zm13.4,0a1.38,1.38,0,0,0,0,2.75,1.38,1.38,0,1,0,0-2.75Zm26.81,0a1.38,1.38,0,0,0,0,2.75,1.38,1.38,0,1,0,0-2.75Zm13.41,0a1.38,1.38,0,1,0,1.37,1.37A1.37,1.37,0,0,0,67.8,30.38Zm0,0a1.38,1.38,0,1,0,1.37,1.37A1.37,1.37,0,0,0,67.8,30.38ZM55.26,55.49a3.15,3.15,0,1,0,3.15,3.15A3.15,3.15,0,0,0,55.26,55.49Zm-.87-25.11a1.38,1.38,0,0,0,0,2.75,1.38,1.38,0,1,0,0-2.75Zm-13.4,0a1.38,1.38,0,1,0,1.37,1.37A1.37,1.37,0,0,0,41,30.38Zm-13.41,0a1.38,1.38,0,0,0,0,2.75,1.38,1.38,0,1,0,0-2.75Zm-13.4,0a1.38,1.38,0,1,0,1.37,1.37A1.37,1.37,0,0,0,14.18,30.38Zm26.81,0a1.38,1.38,0,1,0,1.37,1.37A1.37,1.37,0,0,0,41,30.38Zm-26.81,0a1.38,1.38,0,1,0,1.37,1.37A1.37,1.37,0,0,0,14.18,30.38Zm13.4,0a1.38,1.38,0,0,0,0,2.75,1.38,1.38,0,1,0,0-2.75Zm40.22,0a1.38,1.38,0,1,0,1.37,1.37A1.37,1.37,0,0,0,67.8,30.38Zm-13.41,0a1.38,1.38,0,0,0,0,2.75,1.38,1.38,0,1,0,0-2.75Zm.87,25.11a3.15,3.15,0,1,0,3.15,3.15A3.15,3.15,0,0,0,55.26,55.49ZM67.8,30.38a1.38,1.38,0,1,0,1.37,1.37A1.37,1.37,0,0,0,67.8,30.38ZM55.26,55.49a3.15,3.15,0,1,0,3.15,3.15A3.15,3.15,0,0,0,55.26,55.49Zm-.87-25.11a1.38,1.38,0,0,0,0,2.75,1.38,1.38,0,1,0,0-2.75Zm-13.4,0a1.38,1.38,0,1,0,1.37,1.37A1.37,1.37,0,0,0,41,30.38Zm-13.41,0a1.38,1.38,0,0,0,0,2.75,1.38,1.38,0,1,0,0-2.75Zm-13.4,0a1.38,1.38,0,1,0,1.37,1.37A1.37,1.37,0,0,0,14.18,30.38Zm53.62,0a1.38,1.38,0,1,0,1.37,1.37A1.37,1.37,0,0,0,67.8,30.38ZM55.26,55.49a3.15,3.15,0,1,0,3.15,3.15A3.15,3.15,0,0,0,55.26,55.49Zm-.87-25.11a1.38,1.38,0,0,0,0,2.75,1.38,1.38,0,1,0,0-2.75Zm-13.4,0a1.38,1.38,0,1,0,1.37,1.37A1.37,1.37,0,0,0,41,30.38Zm-13.41,0a1.38,1.38,0,0,0,0,2.75,1.38,1.38,0,1,0,0-2.75Zm-13.4,0a1.38,1.38,0,1,0,1.37,1.37A1.37,1.37,0,0,0,14.18,30.38Zm53.62,0a1.38,1.38,0,1,0,1.37,1.37A1.37,1.37,0,0,0,67.8,30.38ZM55.26,55.49a3.15,3.15,0,1,0,3.15,3.15A3.15,3.15,0,0,0,55.26,55.49Zm-.87-25.11a1.38,1.38,0,0,0,0,2.75,1.38,1.38,0,1,0,0-2.75Zm-13.4,0a1.38,1.38,0,1,0,1.37,1.37A1.37,1.37,0,0,0,41,30.38Zm-13.41,0a1.38,1.38,0,0,0,0,2.75,1.38,1.38,0,1,0,0-2.75Zm-13.4,0a1.38,1.38,0,1,0,1.37,1.37A1.37,1.37,0,0,0,14.18,30.38ZM55.26,55.49a3.15,3.15,0,1,0,3.15,3.15A3.15,3.15,0,0,0,55.26,55.49Zm-.87-25.11a1.38,1.38,0,0,0,0,2.75,1.38,1.38,0,1,0,0-2.75Zm-13.4,0a1.38,1.38,0,1,0,1.37,1.37A1.37,1.37,0,0,0,41,30.38Zm-13.41,0a1.38,1.38,0,0,0,0,2.75,1.38,1.38,0,1,0,0-2.75Zm-13.4,0a1.38,1.38,0,1,0,1.37,1.37A1.37,1.37,0,0,0,14.18,30.38ZM55.26,55.49a3.15,3.15,0,1,0,3.15,3.15A3.15,3.15,0,0,0,55.26,55.49Zm-.87-25.11a1.38,1.38,0,0,0,0,2.75,1.38,1.38,0,1,0,0-2.75Zm-13.4,0a1.38,1.38,0,1,0,1.37,1.37A1.37,1.37,0,0,0,41,30.38Zm-13.41,0a1.38,1.38,0,0,0,0,2.75,1.38,1.38,0,1,0,0-2.75Zm-13.4,0a1.38,1.38,0,1,0,1.37,1.37A1.37,1.37,0,0,0,14.18,30.38ZM55.26,55.49a3.15,3.15,0,1,0,3.15,3.15A3.15,3.15,0,0,0,55.26,55.49ZM27.58,30.38a1.38,1.38,0,0,0,0,2.75,1.38,1.38,0,1,0,0-2.75Zm-13.4,0a1.38,1.38,0,1,0,1.37,1.37A1.37,1.37,0,0,0,14.18,30.38ZM55.26,55.49a3.15,3.15,0,1,0,3.15,3.15A3.15,3.15,0,0,0,55.26,55.49ZM27.58,30.38a1.38,1.38,0,0,0,0,2.75,1.38,1.38,0,1,0,0-2.75Zm-13.4,0a1.38,1.38,0,1,0,1.37,1.37A1.37,1.37,0,0,0,14.18,30.38ZM55.26,55.49a3.15,3.15,0,1,0,3.15,3.15A3.15,3.15,0,0,0,55.26,55.49Zm0,0a3.15,3.15,0,1,0,3.15,3.15A3.15,3.15,0,0,0,55.26,55.49Zm0,0a3.15,3.15,0,1,0,3.15,3.15A3.15,3.15,0,0,0,55.26,55.49Zm0,0a3.15,3.15,0,1,0,3.15,3.15A3.15,3.15,0,0,0,55.26,55.49Z"/><path class="cls-1" d="M87.26,41.55V33.63a32.48,32.48,0,0,0-.6-6.23C83.63,11.78,70.16,0,55.32,0H32.92C21.11,0,10,7.29,4.33,18.64l-.42.87a37.18,37.18,0,0,0-2.62,7.81A47.82,47.82,0,0,0,0,35.46c0,.55,0,1.09,0,1.63V69.67A32.55,32.55,0,0,0,15.87,97.5l2.31,7.25A4.71,4.71,0,0,0,21,107.64a5.88,5.88,0,0,0,5-.26l8.56-4.54a5.08,5.08,0,0,0,1.12-.78H53.73A32.44,32.44,0,0,0,84.66,79.27C91.73,79,97.4,70.52,97.4,60.16,97.4,51.11,93.07,43.52,87.26,41.55ZM17.41,74.1c-4.58-.38-7.92-5.2-7.46-10.78s4.55-9.8,9.12-9.43S27,59.1,26.53,64.68,22,74.48,17.41,74.1ZM16.9,31.75a2.73,2.73,0,1,1-3.4-2.64v-15l.67-.52.68-.48v16A2.73,2.73,0,0,1,16.9,31.75Zm6.75,11.39c1.36,1.56-2.44,1.11-2.93,1-2.08-.23-3.34.9-4.59,2.48a1.42,1.42,0,0,1-1.22.65c-.85-.13-1.21-1.24-1-2a3.27,3.27,0,0,1,.75-1.25C16.7,41.77,21.36,40.53,23.65,43.14Zm6.66-11.39a2.73,2.73,0,1,1-3.4-2.64v-21l.2,0q.57-.11,1.14-.18V29.11A2.73,2.73,0,0,1,30.31,31.75Zm13.4,0a2.73,2.73,0,1,1-3.4-2.64V7.52h1.35V29.11A2.73,2.73,0,0,1,43.71,31.75ZM40,78.63a1.59,1.59,0,0,1,1.52,2.11c-1,2.87-3.3,4.86-5.94,4.86s-4.9-2-5.93-4.86a1.59,1.59,0,0,1,1.52-2.11Zm45.35-1.84a8,8,0,0,1-2.18.09l-.15,0a30.19,30.19,0,0,1-29.27,23H34.65l-.34.38a3,3,0,0,1-.86.67l-8.57,4.54a3.67,3.67,0,0,1-3.07.16,2.48,2.48,0,0,1-1.49-1.5l-.52-1.62a4.52,4.52,0,0,0,3.69-.23l8.07-4.27a4.1,4.1,0,0,0,1.11-.86H50.16a29.56,29.56,0,0,0,28.47-22l-.42-.32a13.75,13.75,0,0,1-3.12-3.66l-12.6,12.6a2.4,2.4,0,0,1,.32,1.21,2.47,2.47,0,0,1-.73,1.76,2.51,2.51,0,0,1-.8.54,2.57,2.57,0,0,1-1,.19,2.46,2.46,0,0,1-1.75-.73,2.49,2.49,0,0,1,3-3.93L74.42,69.89c-.06-.13-.12-.25-.17-.37a22.25,22.25,0,0,1-2-9.36c0-6.39,2.5-12.19,6.41-15,.17-.12.34-.24.52-.35s.4-.24.6-.35A8.72,8.72,0,0,1,80.94,44V37.1A32.89,32.89,0,0,0,72.57,15a34.55,34.55,0,0,0-3.37-3.27l-.62-.5a2.43,2.43,0,0,0-.25-.2l-.53-.41c-.21-.15-.41-.31-.62-.45a26.87,26.87,0,0,0-7-3.61L60,6.45l-.78-.24c-.36-.11-.71-.21-1-.29a19.92,19.92,0,0,0-3-.52c-.44,0-.9-.07-1.4-.09-.88,0-1.81,0-2.76,0l-18.09,0a36.43,36.43,0,0,0-4.81.33l-1.23.2h-.09l-.08,0a32.89,32.89,0,0,0-13.1,5.4c-.27.18-.53.37-.78.56A32.57,32.57,0,0,0,9.12,15c.45-.62.91-1.21,1.39-1.8a29.44,29.44,0,0,1,22.41-11h22.4C68.19,2.25,80,11.83,83.77,25c.27.94.5,1.89.69,2.86a30.4,30.4,0,0,1,.55,5.8l0,9.87a7.14,7.14,0,0,1,1.1.22h0a11.09,11.09,0,0,1,6.11,4.77,21.13,21.13,0,0,1,3.26,11.67,21.14,21.14,0,0,1-3.26,11.68,11.55,11.55,0,0,1-5.4,4.54A8.4,8.4,0,0,1,85.33,76.79Zm-28.21-45a2.73,2.73,0,1,1-3.4-2.64V7.56c.44,0,.85,0,1.24.08h.11V29.11A2.74,2.74,0,0,1,57.12,31.75Zm1.47,12.32a3.15,3.15,0,0,1,.75,1.25c.21.76-.15,1.87-1,2a1.42,1.42,0,0,1-1.22-.65c-1.25-1.58-2.51-2.71-4.59-2.48-.49.06-4.29.51-2.93-1C51.89,40.53,56.55,41.77,58.59,44.07Zm-4.38,9.62c4.58-.38,8.66,3.84,9.12,9.42S60.45,73.52,55.87,73.9s-8.66-3.85-9.12-9.43S49.63,54.06,54.21,53.69ZM70.52,31.75a2.73,2.73,0,1,1-3.4-2.64V12.89q.31.24.63.51t.72.63V29.11A2.73,2.73,0,0,1,70.52,31.75Z"/><circle class="cls-1" cx="18.03" cy="58.85" r="3.15"/><circle class="cls-1" cx="18.03" cy="58.85" r="3.15"/><circle class="cls-1" cx="55.26" cy="58.64" r="3.15"/><circle class="cls-1" cx="55.26" cy="58.64" r="3.15"/><path class="cls-1" d="M26.79,5.81h0Z"/><path class="cls-1" d="M26.79,5.81h0Z"/><path class="cls-1" d="M26.79,5.81h0Z"/><path class="cls-1" d="M93.26,60.16c0,6.84-3.19,12.83-7.48,14.2a4.61,4.61,0,0,1-.46.13l-.15,0a6,6,0,0,1-.61.09l-.3,0h-.91A6.89,6.89,0,0,1,79.62,73q-.23-.18-.45-.39a11.92,11.92,0,0,1-2.28-2.91l-.15-.26c-.15-.29-.31-.6-.45-.91-.06-.12-.12-.25-.17-.37a20.27,20.27,0,0,1-1.59-8c0-4.9,1.58-9.36,4.16-12a8.72,8.72,0,0,1,1.12-1q.3-.23.6-.42c.18-.11.35-.21.53-.3a6.33,6.33,0,0,1,2.93-.76h0a5.82,5.82,0,0,1,.92.08.86.86,0,0,1,.17,0h0a6.37,6.37,0,0,1,.66.16l.12,0,.33.12h0a7.32,7.32,0,0,1,1.12.56C90.81,48.78,93.26,54.14,93.26,60.16Z"/><path class="cls-1" d="M61.69,84.94a1.35,1.35,0,0,1-.4,1,1.39,1.39,0,0,1-1.93,0,1.37,1.37,0,0,1,0-1.93,1.37,1.37,0,0,1,2.33,1Z"/></g></g></svg>