<svg xmlns="http://www.w3.org/2000/svg" viewBox="0 0 140.95 156.39"><defs><style>.cls-1{fill:#f2f2f2;}</style></defs><g id="Capa_2" data-name="Capa 2"><g id="numeración_Pag" data-name="numeración Pag"><circle class="cls-1" cx="26.09" cy="85.16" r="4.56"/><path class="cls-1" d="M80,80.3a4.56,4.56,0,1,0,4.55,4.56A4.56,4.56,0,0,0,80,80.3Zm0,0a4.56,4.56,0,1,0,4.55,4.56A4.56,4.56,0,0,0,80,80.3ZM20.51,44a2,2,0,1,0,2,2A2,2,0,0,0,20.51,44ZM80,80.3a4.56,4.56,0,1,0,4.55,4.56A4.56,4.56,0,0,0,80,80.3ZM20.51,44a2,2,0,1,0,2,2A2,2,0,0,0,20.51,44ZM80,80.3a4.56,4.56,0,1,0,4.55,4.56A4.56,4.56,0,0,0,80,80.3ZM20.51,44a2,2,0,1,0,2,2A2,2,0,0,0,20.51,44Zm19.4,0a2,2,0,1,0,2,2A2,2,0,0,0,39.91,44Zm19.4,0a2,2,0,1,0,2,2A2,2,0,0,0,59.31,44ZM80,80.3a4.56,4.56,0,1,0,4.55,4.56A4.56,4.56,0,0,0,80,80.3ZM20.51,44a2,2,0,1,0,2,2A2,2,0,0,0,20.51,44Zm19.4,0a2,2,0,1,0,2,2A2,2,0,0,0,39.91,44Zm19.4,0a2,2,0,1,0,2,2A2,2,0,0,0,59.31,44ZM80,80.3a4.56,4.56,0,1,0,4.55,4.56A4.56,4.56,0,0,0,80,80.3ZM20.51,44a2,2,0,1,0,2,2A2,2,0,0,0,20.51,44Zm19.4,0a2,2,0,1,0,2,2A2,2,0,0,0,39.91,44Zm19.4,0a2,2,0,1,0,2,2A2,2,0,0,0,59.31,44Zm19.4,0a2,2,0,1,0,2,2A2,2,0,0,0,78.71,44ZM80,80.3a4.56,4.56,0,1,0,4.55,4.56A4.56,4.56,0,0,0,80,80.3ZM98.11,44a2,2,0,1,0,2,2A2,2,0,0,0,98.11,44Zm-77.6,0a2,2,0,1,0,2,2A2,2,0,0,0,20.51,44Zm19.4,0a2,2,0,1,0,2,2A2,2,0,0,0,39.91,44Zm19.4,0a2,2,0,1,0,2,2A2,2,0,0,0,59.31,44Zm19.4,0a2,2,0,1,0,2,2A2,2,0,0,0,78.71,44ZM80,80.3a4.56,4.56,0,1,0,4.55,4.56A4.56,4.56,0,0,0,80,80.3ZM98.11,44a2,2,0,1,0,2,2A2,2,0,0,0,98.11,44Zm-77.6,0a2,2,0,1,0,2,2A2,2,0,0,0,20.51,44Zm19.4,0a2,2,0,1,0,2,2A2,2,0,0,0,39.91,44Zm19.4,0a2,2,0,1,0,2,2A2,2,0,0,0,59.31,44Zm19.4,0a2,2,0,1,0,2,2A2,2,0,0,0,78.71,44ZM80,80.3a4.56,4.56,0,1,0,4.55,4.56A4.56,4.56,0,0,0,80,80.3ZM98.11,44a2,2,0,1,0,2,2A2,2,0,0,0,98.11,44Zm-77.6,0a2,2,0,1,0,2,2A2,2,0,0,0,20.51,44Zm19.4,0a2,2,0,1,0,2,2A2,2,0,0,0,39.91,44Zm19.4,0a2,2,0,1,0,2,2A2,2,0,0,0,59.31,44Zm19.4,0a2,2,0,1,0,2,2A2,2,0,0,0,78.71,44ZM80,80.3a4.56,4.56,0,1,0,4.55,4.56A4.56,4.56,0,0,0,80,80.3ZM98.11,44a2,2,0,1,0,2,2A2,2,0,0,0,98.11,44Zm-77.6,0a2,2,0,1,0,2,2A2,2,0,0,0,20.51,44Zm19.4,0a2,2,0,1,0,2,2A2,2,0,0,0,39.91,44Zm19.4,0a2,2,0,1,0,2,2A2,2,0,0,0,59.31,44Zm19.4,0a2,2,0,1,0,2,2A2,2,0,0,0,78.71,44ZM80,80.3a4.56,4.56,0,1,0,4.55,4.56A4.56,4.56,0,0,0,80,80.3ZM98.11,44a2,2,0,1,0,2,2A2,2,0,0,0,98.11,44ZM80,80.3a4.56,4.56,0,1,0,4.55,4.56A4.56,4.56,0,0,0,80,80.3ZM78.71,44a2,2,0,1,0,2,2A2,2,0,0,0,78.71,44Zm19.4,0a2,2,0,1,0,2,2A2,2,0,0,0,98.11,44Zm-58.2,0a2,2,0,1,0,2,2A2,2,0,0,0,39.91,44Zm-19.4,0a2,2,0,1,0,2,2A2,2,0,0,0,20.51,44Zm38.8,0a2,2,0,1,0,2,2A2,2,0,0,0,59.31,44Zm-38.8,0a2,2,0,1,0,2,2A2,2,0,0,0,20.51,44Zm19.4,0a2,2,0,1,0,2,2A2,2,0,0,0,39.91,44Zm19.4,0a2,2,0,1,0,2,2A2,2,0,0,0,59.31,44Zm19.4,0a2,2,0,1,0,2,2A2,2,0,0,0,78.71,44ZM80,80.3a4.56,4.56,0,1,0,4.55,4.56A4.56,4.56,0,0,0,80,80.3ZM98.11,44a2,2,0,1,0,2,2A2,2,0,0,0,98.11,44Zm0,0a2,2,0,1,0,2,2A2,2,0,0,0,98.11,44Zm-19.4,0a2,2,0,1,0,2,2A2,2,0,0,0,78.71,44Zm-38.8,0a2,2,0,1,0,2,2A2,2,0,0,0,39.91,44Zm-19.4,0a2,2,0,1,0,2,2A2,2,0,0,0,20.51,44Zm38.8,0a2,2,0,1,0,2,2A2,2,0,0,0,59.31,44ZM80,80.3a4.56,4.56,0,1,0,4.55,4.56A4.56,4.56,0,0,0,80,80.3ZM20.51,44a2,2,0,1,0,2,2A2,2,0,0,0,20.51,44Zm19.4,0a2,2,0,1,0,2,2A2,2,0,0,0,39.91,44Zm19.4,0a2,2,0,1,0,2,2A2,2,0,0,0,59.31,44Zm19.4,0a2,2,0,1,0,2,2A2,2,0,0,0,78.71,44ZM80,80.3a4.56,4.56,0,1,0,4.55,4.56A4.56,4.56,0,0,0,80,80.3ZM98.11,44a2,2,0,1,0,2,2A2,2,0,0,0,98.11,44Zm0,0a2,2,0,1,0,2,2A2,2,0,0,0,98.11,44Zm-19.4,0a2,2,0,1,0,2,2A2,2,0,0,0,78.71,44Zm-38.8,0a2,2,0,1,0,2,2A2,2,0,0,0,39.91,44Zm-19.4,0a2,2,0,1,0,2,2A2,2,0,0,0,20.51,44Zm38.8,0a2,2,0,1,0,2,2A2,2,0,0,0,59.31,44ZM80,80.3a4.56,4.56,0,1,0,4.55,4.56A4.56,4.56,0,0,0,80,80.3ZM20.51,44a2,2,0,1,0,2,2A2,2,0,0,0,20.51,44Zm19.4,0a2,2,0,1,0,2,2A2,2,0,0,0,39.91,44Zm19.4,0a2,2,0,1,0,2,2A2,2,0,0,0,59.31,44Zm19.4,0a2,2,0,1,0,2,2A2,2,0,0,0,78.71,44ZM80,80.3a4.56,4.56,0,1,0,4.55,4.56A4.56,4.56,0,0,0,80,80.3ZM98.11,44a2,2,0,1,0,2,2A2,2,0,0,0,98.11,44Zm0,0a2,2,0,1,0,2,2A2,2,0,0,0,98.11,44ZM80,80.3a4.56,4.56,0,1,0,4.55,4.56A4.56,4.56,0,0,0,80,80.3ZM78.71,44a2,2,0,1,0,2,2A2,2,0,0,0,78.71,44Zm-19.4,0a2,2,0,1,0,2,2A2,2,0,0,0,59.31,44Zm-19.4,0a2,2,0,1,0,2,2A2,2,0,0,0,39.91,44Zm-19.4,0a2,2,0,1,0,2,2A2,2,0,0,0,20.51,44Zm77.6,0a2,2,0,1,0,2,2A2,2,0,0,0,98.11,44Zm-9.42,77.57A2,2,0,0,0,87.3,121a2,2,0,1,0,0,3.94,2,2,0,0,0,1.39-.57,2,2,0,0,0,.58-1.4A2,2,0,0,0,88.69,121.53ZM80,80.3a4.56,4.56,0,1,0,4.55,4.56A4.56,4.56,0,0,0,80,80.3ZM78.71,44a2,2,0,1,0,2,2A2,2,0,0,0,78.71,44Zm-19.4,0a2,2,0,1,0,2,2A2,2,0,0,0,59.31,44Zm-19.4,0a2,2,0,1,0,2,2A2,2,0,0,0,39.91,44Zm-19.4,0a2,2,0,1,0,2,2A2,2,0,0,0,20.51,44ZM80,80.3a4.56,4.56,0,1,0,4.55,4.56A4.56,4.56,0,0,0,80,80.3ZM59.31,44a2,2,0,1,0,2,2A2,2,0,0,0,59.31,44Zm-38.8,0a2,2,0,1,0,2,2A2,2,0,0,0,20.51,44Zm19.4,0a2,2,0,1,0,2,2A2,2,0,0,0,39.91,44Zm38.8,0a2,2,0,1,0,2,2A2,2,0,0,0,78.71,44Zm19.4,0a2,2,0,1,0,2,2A2,2,0,0,0,98.11,44Zm0,0a2,2,0,1,0,2,2A2,2,0,0,0,98.11,44ZM80,80.3a4.56,4.56,0,1,0,4.55,4.56A4.56,4.56,0,0,0,80,80.3ZM78.71,44a2,2,0,1,0,2,2A2,2,0,0,0,78.71,44Zm-19.4,0a2,2,0,1,0,2,2A2,2,0,0,0,59.31,44Zm-19.4,0a2,2,0,1,0,2,2A2,2,0,0,0,39.91,44Zm-19.4,0a2,2,0,1,0,2,2A2,2,0,0,0,20.51,44ZM80,80.3a4.56,4.56,0,1,0,4.55,4.56A4.56,4.56,0,0,0,80,80.3ZM59.31,44a2,2,0,1,0,2,2A2,2,0,0,0,59.31,44Zm-38.8,0a2,2,0,1,0,2,2A2,2,0,0,0,20.51,44Zm19.4,0a2,2,0,1,0,2,2A2,2,0,0,0,39.91,44Zm38.8,0a2,2,0,1,0,2,2A2,2,0,0,0,78.71,44Zm19.4,0a2,2,0,1,0,2,2A2,2,0,0,0,98.11,44Zm0,0a2,2,0,1,0,2,2A2,2,0,0,0,98.11,44ZM80,80.3a4.56,4.56,0,1,0,4.55,4.56A4.56,4.56,0,0,0,80,80.3ZM78.71,44a2,2,0,1,0,2,2A2,2,0,0,0,78.71,44Zm-19.4,0a2,2,0,1,0,2,2A2,2,0,0,0,59.31,44Zm-19.4,0a2,2,0,1,0,2,2A2,2,0,0,0,39.91,44Zm-19.4,0a2,2,0,1,0,2,2A2,2,0,0,0,20.51,44ZM80,80.3a4.56,4.56,0,1,0,4.55,4.56A4.56,4.56,0,0,0,80,80.3ZM59.31,44a2,2,0,1,0,2,2A2,2,0,0,0,59.31,44Zm-38.8,0a2,2,0,1,0,2,2A2,2,0,0,0,20.51,44Zm19.4,0a2,2,0,1,0,2,2A2,2,0,0,0,39.91,44Zm38.8,0a2,2,0,1,0,2,2A2,2,0,0,0,78.71,44Zm19.4,0a2,2,0,1,0,2,2A2,2,0,0,0,98.11,44Zm0,0a2,2,0,1,0,2,2A2,2,0,0,0,98.11,44ZM80,80.3a4.56,4.56,0,1,0,4.55,4.56A4.56,4.56,0,0,0,80,80.3ZM78.71,44a2,2,0,1,0,2,2A2,2,0,0,0,78.71,44Zm-19.4,0a2,2,0,1,0,2,2A2,2,0,0,0,59.31,44Zm-19.4,0a2,2,0,1,0,2,2A2,2,0,0,0,39.91,44Zm-19.4,0a2,2,0,1,0,2,2A2,2,0,0,0,20.51,44Zm38.8,0a2,2,0,1,0,2,2A2,2,0,0,0,59.31,44Zm-38.8,0a2,2,0,1,0,2,2A2,2,0,0,0,20.51,44Zm19.4,0a2,2,0,1,0,2,2A2,2,0,0,0,39.91,44Zm58.2,0a2,2,0,1,0,2,2A2,2,0,0,0,98.11,44Zm-19.4,0a2,2,0,1,0,2,2A2,2,0,0,0,78.71,44ZM80,80.3a4.56,4.56,0,1,0,4.55,4.56A4.56,4.56,0,0,0,80,80.3ZM98.11,44a2,2,0,1,0,2,2A2,2,0,0,0,98.11,44ZM80,80.3a4.56,4.56,0,1,0,4.55,4.56A4.56,4.56,0,0,0,80,80.3ZM78.71,44a2,2,0,1,0,2,2A2,2,0,0,0,78.71,44Zm-19.4,0a2,2,0,1,0,2,2A2,2,0,0,0,59.31,44Zm-19.4,0a2,2,0,1,0,2,2A2,2,0,0,0,39.91,44Zm-19.4,0a2,2,0,1,0,2,2A2,2,0,0,0,20.51,44Zm77.6,0a2,2,0,1,0,2,2A2,2,0,0,0,98.11,44ZM80,80.3a4.56,4.56,0,1,0,4.55,4.56A4.56,4.56,0,0,0,80,80.3ZM78.71,44a2,2,0,1,0,2,2A2,2,0,0,0,78.71,44Zm-19.4,0a2,2,0,1,0,2,2A2,2,0,0,0,59.31,44Zm-19.4,0a2,2,0,1,0,2,2A2,2,0,0,0,39.91,44Zm-19.4,0a2,2,0,1,0,2,2A2,2,0,0,0,20.51,44Zm77.6,0a2,2,0,1,0,2,2A2,2,0,0,0,98.11,44ZM80,80.3a4.56,4.56,0,1,0,4.55,4.56A4.56,4.56,0,0,0,80,80.3ZM78.71,44a2,2,0,1,0,2,2A2,2,0,0,0,78.71,44Zm-19.4,0a2,2,0,1,0,2,2A2,2,0,0,0,59.31,44Zm-19.4,0a2,2,0,1,0,2,2A2,2,0,0,0,39.91,44Zm-19.4,0a2,2,0,1,0,2,2A2,2,0,0,0,20.51,44ZM80,80.3a4.56,4.56,0,1,0,4.55,4.56A4.56,4.56,0,0,0,80,80.3ZM78.71,44a2,2,0,1,0,2,2A2,2,0,0,0,78.71,44Zm-19.4,0a2,2,0,1,0,2,2A2,2,0,0,0,59.31,44Zm-19.4,0a2,2,0,1,0,2,2A2,2,0,0,0,39.91,44Zm-19.4,0a2,2,0,1,0,2,2A2,2,0,0,0,20.51,44ZM80,80.3a4.56,4.56,0,1,0,4.55,4.56A4.56,4.56,0,0,0,80,80.3ZM78.71,44a2,2,0,1,0,2,2A2,2,0,0,0,78.71,44Zm-19.4,0a2,2,0,1,0,2,2A2,2,0,0,0,59.31,44Zm-19.4,0a2,2,0,1,0,2,2A2,2,0,0,0,39.91,44Zm-19.4,0a2,2,0,1,0,2,2A2,2,0,0,0,20.51,44ZM80,80.3a4.56,4.56,0,1,0,4.55,4.56A4.56,4.56,0,0,0,80,80.3ZM39.91,44a2,2,0,1,0,2,2A2,2,0,0,0,39.91,44Zm-19.4,0a2,2,0,1,0,2,2A2,2,0,0,0,20.51,44ZM80,80.3a4.56,4.56,0,1,0,4.55,4.56A4.56,4.56,0,0,0,80,80.3ZM39.91,44a2,2,0,1,0,2,2A2,2,0,0,0,39.91,44Zm-19.4,0a2,2,0,1,0,2,2A2,2,0,0,0,20.51,44ZM80,80.3a4.56,4.56,0,1,0,4.55,4.56A4.56,4.56,0,0,0,80,80.3Zm0,0a4.56,4.56,0,1,0,4.55,4.56A4.56,4.56,0,0,0,80,80.3Zm0,0a4.56,4.56,0,1,0,4.55,4.56A4.56,4.56,0,0,0,80,80.3Zm0,0a4.56,4.56,0,1,0,4.55,4.56A4.56,4.56,0,0,0,80,80.3Z"/><path class="cls-1" d="M126.28,60.13V48.66a47.75,47.75,0,0,0-.86-9C121,17.05,101.53,0,80.06,0H47.64C30.55,0,14.42,10.55,6.26,27l-.6,1.27a54.25,54.25,0,0,0-3.8,11.3A69,69,0,0,0,.06,51.32C0,52.1,0,52.89,0,53.67v47.15a47.1,47.1,0,0,0,23,40.27l3.35,10.49a6.83,6.83,0,0,0,4,4.19,8.45,8.45,0,0,0,3.18.62,8.69,8.69,0,0,0,4-1l12.39-6.57a8.38,8.38,0,0,0,1.62-1.14h26.2a47,47,0,0,0,44.77-33c10.23-.44,18.43-12.65,18.43-27.65C141,74,134.69,63,126.28,60.13ZM25.2,107.24c-6.63-.55-11.46-7.54-10.8-15.61S21,77.45,27.6,78,39.06,85.52,38.4,93.6,31.83,107.78,25.2,107.24ZM24.46,46a3.95,3.95,0,1,1-4.92-3.82V20.43c.32-.25.64-.5,1-.74l1-.71V42.13A4,4,0,0,1,24.46,46Zm9.76,16.48c2,2.26-3.53,1.6-4.24,1.52-3-.33-4.83,1.3-6.64,3.59a2.06,2.06,0,0,1-1.76.94c-1.23-.18-1.75-1.8-1.45-2.89a4.71,4.71,0,0,1,1.09-1.82C24.16,60.44,30.92,58.65,34.22,62.43ZM43.86,46a3.95,3.95,0,1,1-4.92-3.82V11.7l.3,0q.81-.15,1.65-.27V42.13A4,4,0,0,1,43.86,46Zm19.4,0a3.95,3.95,0,1,1-4.92-3.82V10.89h1.95V42.13A4,4,0,0,1,63.26,46Zm-5.4,67.84a2.31,2.31,0,0,1,2.19,3.06c-1.49,4.15-4.77,7-8.58,7s-7.1-2.88-8.59-7a2.31,2.31,0,0,1,2.19-3.06Zm65.62-2.66a12,12,0,0,1-3.16.12l-.21,0a43.7,43.7,0,0,1-42.36,33.21H50.14l-.48.55a4.29,4.29,0,0,1-1.26,1L36,152.52a5.31,5.31,0,0,1-4.44.24,3.59,3.59,0,0,1-2.16-2.17l-.75-2.34a6.52,6.52,0,0,0,5.34-.34l11.67-6.18a5.72,5.72,0,0,0,1.61-1.25h25.3a42.76,42.76,0,0,0,41.2-31.78l-.6-.47a19.82,19.82,0,0,1-4.51-5.3L90.44,121.16a3.62,3.62,0,0,1-.6,4.3,3.74,3.74,0,0,1-1.16.79,3.81,3.81,0,0,1-1.38.27,3.6,3.6,0,1,1,1.75-6.73l18.65-18.65-.26-.54a32.43,32.43,0,0,1-2.84-13.54c0-9.25,3.61-17.64,9.27-21.71l.76-.51a9.34,9.34,0,0,1,.87-.5,11.74,11.74,0,0,1,1.62-.74V53.69A47.64,47.64,0,0,0,105,21.63a51.71,51.71,0,0,0-4.88-4.73c-.3-.25-.59-.49-.89-.72l-.36-.29-.78-.6-.89-.65A38.85,38.85,0,0,0,87.15,9.42l-.26-.09c-.4-.13-.77-.25-1.13-.35-.52-.15-1-.29-1.53-.41a29,29,0,0,0-4.39-.75c-.63-.07-1.3-.11-2-.14-1.27-.06-2.62-.06-4-.06l-26.17,0a50.27,50.27,0,0,0-7,.48c-.59.08-1.19.17-1.77.27l-.13,0-.12,0a47.53,47.53,0,0,0-19,7.81c-.38.27-.76.54-1.12.82a46,46,0,0,0-5.37,4.66c.65-.9,1.32-1.76,2-2.6C23.44,9.24,35.28,3.25,47.64,3.25H80.06c18.61,0,35.65,13.88,41.16,32.89.39,1.35.73,2.73,1,4.13a44.42,44.42,0,0,1,.8,8.39l0,14.28a14.18,14.18,0,0,1,1.6.33h0a16.07,16.07,0,0,1,8.84,6.9,30.63,30.63,0,0,1,4.72,16.9,30.63,30.63,0,0,1-4.72,16.9,16.74,16.74,0,0,1-7.81,6.57A12.29,12.29,0,0,1,123.48,111.13ZM82.66,46a3.95,3.95,0,1,1-4.92-3.82V10.93c.64,0,1.23.07,1.79.13h.16V42.13A4,4,0,0,1,82.66,46Zm2.13,17.82a4.69,4.69,0,0,1,1.08,1.82c.31,1.09-.21,2.71-1.45,2.89a2.06,2.06,0,0,1-1.76-.94C80.85,65.25,79,63.62,76,64c-.71.08-6.21.74-4.24-1.52C75.09,58.65,81.84,60.44,84.79,63.77ZM78.45,77.69c6.63-.54,12.54,5.56,13.2,13.64s-4.17,15.06-10.8,15.61-12.53-5.56-13.2-13.64S71.82,78.24,78.45,77.69ZM102.06,46a3.95,3.95,0,1,1-4.92-3.82V18.65l.9.74c.35.29.7.6,1,.91V42.13A4,4,0,0,1,102.06,46Z"/><circle class="cls-1" cx="26.09" cy="85.16" r="4.56"/><circle class="cls-1" cx="26.09" cy="85.16" r="4.56"/><circle class="cls-1" cx="79.97" cy="84.86" r="4.56"/><circle class="cls-1" cx="79.97" cy="84.86" r="4.56"/><path class="cls-1" d="M38.77,8.4v0l.13,0Z"/><path class="cls-1" d="M38.77,8.4v0l.13,0Z"/><path class="cls-1" d="M38.77,8.4v0l.13,0Z"/><path class="cls-1" d="M135,87.06c0,9.9-4.61,18.56-10.83,20.55a5.12,5.12,0,0,1-.67.19l-.2,0a6.85,6.85,0,0,1-.89.14l-.44,0-.52,0-.63,0-.16,0a9.94,9.94,0,0,1-5.39-2.31c-.23-.18-.45-.37-.67-.57a17.28,17.28,0,0,1-3.29-4.2l-.21-.39c-.23-.42-.45-.86-.66-1.31-.09-.18-.17-.36-.25-.54a29.36,29.36,0,0,1-2.29-11.63c0-7.09,2.29-13.54,6-17.41a13.86,13.86,0,0,1,1.63-1.45,8.42,8.42,0,0,1,.87-.6,8.31,8.31,0,0,1,.76-.44,9,9,0,0,1,4.24-1.09h0a8.73,8.73,0,0,1,1.34.1l.25,0h0a9.61,9.61,0,0,1,1,.23l.17.06.48.17h0a9.84,9.84,0,0,1,1.63.8C131.42,70.59,135,78.34,135,87.06Z"/><path class="cls-1" d="M89.27,122.92a2,2,0,0,1-.58,1.4,2,2,0,0,1-1.39.57,2,2,0,1,1,2-2Z"/></g></g></svg>