<svg xmlns="http://www.w3.org/2000/svg" viewBox="0 0 253.38 47.19"><defs><style>.cls-1{fill:#f2f2f2;}</style></defs><g id="Capa_2" data-name="Capa 2"><g id="Capa_1-2" data-name="Capa 1"><path class="cls-1" d="M11.06,37.86a30.13,30.13,0,0,1-4.72-.39,14.37,14.37,0,0,1-4.4-1.39A3.26,3.26,0,0,1,.4,34.75,3,3,0,0,1,0,33.07a2.66,2.66,0,0,1,.55-1.52,2.49,2.49,0,0,1,1.3-.89,2.72,2.72,0,0,1,1.81.19,21.47,21.47,0,0,0,4,1.25,17,17,0,0,0,3.48.37,5.69,5.69,0,0,0,3.24-.73,2.22,2.22,0,0,0,1.05-1.89,1.74,1.74,0,0,0-.68-1.49,5,5,0,0,0-2-.76l-5.55-1a9.25,9.25,0,0,1-4.95-2.41,6.26,6.26,0,0,1-1.75-4.6A7.26,7.26,0,0,1,1.94,15,9.31,9.31,0,0,1,6,12.12a16,16,0,0,1,5.89-1,20.69,20.69,0,0,1,4.32.42,14.59,14.59,0,0,1,3.85,1.42,2.61,2.61,0,0,1,1.34,1.2,2.48,2.48,0,0,1,.23,1.62,3.49,3.49,0,0,1-.65,1.5,2.51,2.51,0,0,1-1.31.89,2.91,2.91,0,0,1-1.91-.24,23.1,23.1,0,0,0-3.09-1,11.09,11.09,0,0,0-2.62-.34,6.3,6.3,0,0,0-3.48.73,2.21,2.21,0,0,0-1.08,1.89,2,2,0,0,0,.63,1.49,3.53,3.53,0,0,0,1.89.81l5.55.94a10,10,0,0,1,5.13,2.33,6.06,6.06,0,0,1,1.78,4.59,7.32,7.32,0,0,1-3.11,6.31A14,14,0,0,1,11.06,37.86Z"/><path class="cls-1" d="M36.24,37.86q-4.65,0-7-2.56C27.74,33.59,27,31,27,27.6V4a3.9,3.9,0,0,1,1-3A4,4,0,0,1,30.9,0a4,4,0,0,1,3,1,4,4,0,0,1,1,3v23.3a4.63,4.63,0,0,0,.92,3.17,3.11,3.11,0,0,0,2.43,1,5.56,5.56,0,0,0,.82,0l.76-.1a1.13,1.13,0,0,1,1.17.55,5.62,5.62,0,0,1,.34,2.43,3.94,3.94,0,0,1-.62,2.36,2.88,2.88,0,0,1-1.94,1.05l-1.15.1C37.15,37.85,36.7,37.86,36.24,37.86Z"/><path class="cls-1" d="M67.67,25.69a1.82,1.82,0,0,0,.63-1.5,16.73,16.73,0,0,0-.84-5.41A11,11,0,0,0,61.14,12a14.29,14.29,0,0,0-11.86.81,12.54,12.54,0,0,0-4.68,4.69,13.6,13.6,0,0,0-1.7,6.94,14,14,0,0,0,1.75,7.15,11.65,11.65,0,0,0,5,4.63,17.47,17.47,0,0,0,7.83,1.62,22.64,22.64,0,0,0,4.29-.44,13.43,13.43,0,0,0,4.08-1.5,3.53,3.53,0,0,0,1.5-1.43,3.48,3.48,0,0,0,.39-1.76,2.5,2.5,0,0,0-.6-1.54,2.62,2.62,0,0,0-1.44-.87,3.41,3.41,0,0,0-2.15.37,13.68,13.68,0,0,1-3.06,1,15,15,0,0,1-2.86.32q-3.72,0-5.55-1.89a6.8,6.8,0,0,1-1.7-3.93H65.83A2.93,2.93,0,0,0,67.67,25.69ZM50.39,22.1A8.56,8.56,0,0,1,51,19.77a5.68,5.68,0,0,1,2.1-2.59,5.89,5.89,0,0,1,3.3-.89,5.2,5.2,0,0,1,2.9.76,4.78,4.78,0,0,1,1.81,2.2,8.34,8.34,0,0,1,.61,2.85Z"/><path class="cls-1" d="M96.42,25.69a1.78,1.78,0,0,0,.62-1.5,16.74,16.74,0,0,0-.83-5.41A10.92,10.92,0,0,0,89.9,12,14.31,14.31,0,0,0,78,12.83a12.54,12.54,0,0,0-4.68,4.69,13.6,13.6,0,0,0-1.7,6.94,14,14,0,0,0,1.75,7.15,11.65,11.65,0,0,0,5,4.63,17.47,17.47,0,0,0,7.83,1.62,22.64,22.64,0,0,0,4.29-.44,13.43,13.43,0,0,0,4.08-1.5,3.53,3.53,0,0,0,1.5-1.43,3.48,3.48,0,0,0,.39-1.76,2.59,2.59,0,0,0-2-2.41,3.41,3.41,0,0,0-2.15.37,13.68,13.68,0,0,1-3.06,1,15,15,0,0,1-2.86.32q-3.72,0-5.55-1.89a6.8,6.8,0,0,1-1.7-3.93H94.58A2.93,2.93,0,0,0,96.42,25.69ZM79.14,22.1a8.56,8.56,0,0,1,.62-2.33,5.68,5.68,0,0,1,2.1-2.59,5.89,5.89,0,0,1,3.3-.89,5.2,5.2,0,0,1,2.9.76,4.78,4.78,0,0,1,1.81,2.2,8.34,8.34,0,0,1,.61,2.85Z"/><path class="cls-1" d="M126.08,35.09A2.67,2.67,0,0,1,125,37a3.82,3.82,0,0,1-2.38.74,5.37,5.37,0,0,1-2.85-.66,8.64,8.64,0,0,1-2.18-2l-7.9-8.85h-.11v7.54q0,4-4,4a3.6,3.6,0,0,1-3.93-4V4a3.9,3.9,0,0,1,1-3,4,4,0,0,1,2.88-1,4,4,0,0,1,3,1,4,4,0,0,1,1,3V22.31h.11l7.59-8.43a11.61,11.61,0,0,1,2.09-2,4.51,4.51,0,0,1,2.62-.65,3.42,3.42,0,0,1,2.52.84,2.88,2.88,0,0,1,.86,2,3.71,3.71,0,0,1-1,2.44l-6.69,7.39,7.58,8.74A3.35,3.35,0,0,1,126.08,35.09Z"/><path class="cls-1" d="M148.55,16.81A3.66,3.66,0,0,1,146,18l-1.21.11a6.79,6.79,0,0,0-4.42,1.73A5.79,5.79,0,0,0,138.94,24v9.74a4,4,0,0,1-1,3,4,4,0,0,1-3,1,4.18,4.18,0,0,1-3-1,4,4,0,0,1-1-3V15.19a4.06,4.06,0,0,1,1-3,4,4,0,0,1,2.91-1,3.79,3.79,0,0,1,2.83,1,4.09,4.09,0,0,1,1,3v.88a7.23,7.23,0,0,1,2.23-3,9.79,9.79,0,0,1,5.63-1.94,2.25,2.25,0,0,1,2,.66,4,4,0,0,1,.82,2.54A3.69,3.69,0,0,1,148.55,16.81Z"/><path class="cls-1" d="M175.49,25.69a1.79,1.79,0,0,0,.63-1.5,16.47,16.47,0,0,0-.84-5.41,11.13,11.13,0,0,0-2.46-4.14A10.93,10.93,0,0,0,169,12a14.29,14.29,0,0,0-11.86.81,12.64,12.64,0,0,0-4.69,4.69,13.7,13.7,0,0,0-1.7,6.94,14,14,0,0,0,1.76,7.15,11.62,11.62,0,0,0,5,4.63,17.47,17.47,0,0,0,7.83,1.62,22.82,22.82,0,0,0,4.3-.44,13.43,13.43,0,0,0,4.08-1.5,3.44,3.44,0,0,0,1.49-1.43,3.39,3.39,0,0,0,.4-1.76,2.62,2.62,0,0,0-2-2.41,3.41,3.41,0,0,0-2.15.37,13.59,13.59,0,0,1-3.07,1,14.86,14.86,0,0,1-2.85.32q-3.72,0-5.55-1.89a6.87,6.87,0,0,1-1.71-3.93h15.43A2.91,2.91,0,0,0,175.49,25.69ZM158.22,22.1a8.56,8.56,0,0,1,.62-2.33,5.73,5.73,0,0,1,2.09-2.59,5.94,5.94,0,0,1,3.3-.89,5.23,5.23,0,0,1,2.91.76,4.85,4.85,0,0,1,1.81,2.2,8.35,8.35,0,0,1,.6,2.85Z"/><path class="cls-1" d="M206.47,17.33a10.58,10.58,0,0,0-4-4.6,10.84,10.84,0,0,0-5.91-1.63,10,10,0,0,0-5.48,1.52,7.52,7.52,0,0,0-2.59,2.71v-.14a4,4,0,0,0-1-3,3.85,3.85,0,0,0-2.85-1,3.94,3.94,0,0,0-2.91,1,4,4,0,0,0-1,3v28a3.92,3.92,0,0,0,1.05,3,4,4,0,0,0,2.88,1,4.07,4.07,0,0,0,3-1,4,4,0,0,0,1-3V33.84a7.37,7.37,0,0,0,2.56,2.56,10.07,10.07,0,0,0,5.4,1.46,10.82,10.82,0,0,0,5.91-1.59,10.61,10.61,0,0,0,3.93-4.64,16.89,16.89,0,0,0,1.42-7.17A16.89,16.89,0,0,0,206.47,17.33ZM199.19,28.7a5.25,5.25,0,0,1-2,2.49,5.43,5.43,0,0,1-3,.81,5.08,5.08,0,0,1-4.08-1.84q-1.57-1.83-1.58-5.7a10.84,10.84,0,0,1,.71-4.19,5.07,5.07,0,0,1,2-2.46,5.51,5.51,0,0,1,3-.79,5.12,5.12,0,0,1,4.08,1.81q1.58,1.8,1.58,5.63A11,11,0,0,1,199.19,28.7Z"/><path class="cls-1" d="M221.94,37.86q-4.66,0-7-2.56t-2.31-7.7V4a3.9,3.9,0,0,1,1.05-3,4,4,0,0,1,2.88-1,4,4,0,0,1,3,1,4,4,0,0,1,1,3v23.3a4.63,4.63,0,0,0,.92,3.17,3.11,3.11,0,0,0,2.43,1,5.34,5.34,0,0,0,.81,0l.76-.1a1.15,1.15,0,0,1,1.18.55A5.62,5.62,0,0,1,227,34.3a3.87,3.87,0,0,1-.63,2.36,2.85,2.85,0,0,1-1.93,1.05l-1.16.1C222.85,37.85,222.4,37.86,221.94,37.86Z"/><path class="cls-1" d="M252.89,16.29,240.59,44.2a5.16,5.16,0,0,1-1.76,2.38,4.56,4.56,0,0,1-2.43.61,3.4,3.4,0,0,1-2.26-.71,3.11,3.11,0,0,1-1-1.89,4,4,0,0,1,.42-2.48L236.31,36l-8.55-19.63a4.62,4.62,0,0,1-.32-2.54,2.9,2.9,0,0,1,1.15-1.89,4.4,4.4,0,0,1,2.67-.7,3.86,3.86,0,0,1,2.33.63,5,5,0,0,1,1.5,2.56L240.51,28,246,14.3a5.56,5.56,0,0,1,1.65-2.44,4.18,4.18,0,0,1,2.49-.65,3.18,3.18,0,0,1,2.17.7,3.07,3.07,0,0,1,1,1.86A4.38,4.38,0,0,1,252.89,16.29Z"/></g></g></svg>