<svg xmlns="http://www.w3.org/2000/svg" viewBox="0 0 228.59 151.38"><defs><style>.cls-1{fill:#f2f2f2;}</style></defs><g id="Capa_2" data-name="Capa 2"><g id="Capa_1-2" data-name="Capa 1"><circle class="cls-1" cx="84.94" cy="53.09" r="2.84"/><path class="cls-1" d="M118.53,50.06a2.84,2.84,0,1,0,2.84,2.84A2.84,2.84,0,0,0,118.53,50.06Zm0,0a2.84,2.84,0,1,0,2.84,2.84A2.84,2.84,0,0,0,118.53,50.06ZM81.47,27.4a1.25,1.25,0,1,0,1.24,1.25A1.25,1.25,0,0,0,81.47,27.4Zm37.06,22.66a2.84,2.84,0,1,0,2.84,2.84A2.84,2.84,0,0,0,118.53,50.06ZM81.47,27.4a1.25,1.25,0,1,0,1.24,1.25A1.25,1.25,0,0,0,81.47,27.4Zm37.06,22.66a2.84,2.84,0,1,0,2.84,2.84A2.84,2.84,0,0,0,118.53,50.06ZM81.47,27.4a1.25,1.25,0,1,0,1.24,1.25A1.25,1.25,0,0,0,81.47,27.4Zm12.09,0a1.25,1.25,0,1,0,1.25,1.25A1.25,1.25,0,0,0,93.56,27.4Zm12.1,0a1.25,1.25,0,1,0,1.24,1.25A1.24,1.24,0,0,0,105.66,27.4Zm12.87,22.66a2.84,2.84,0,1,0,2.84,2.84A2.84,2.84,0,0,0,118.53,50.06ZM81.47,27.4a1.25,1.25,0,1,0,1.24,1.25A1.25,1.25,0,0,0,81.47,27.4Zm12.09,0a1.25,1.25,0,1,0,1.25,1.25A1.25,1.25,0,0,0,93.56,27.4Zm12.1,0a1.25,1.25,0,1,0,1.24,1.25A1.24,1.24,0,0,0,105.66,27.4Zm12.87,22.66a2.84,2.84,0,1,0,2.84,2.84A2.84,2.84,0,0,0,118.53,50.06ZM81.47,27.4a1.25,1.25,0,1,0,1.24,1.25A1.25,1.25,0,0,0,81.47,27.4Zm12.09,0a1.25,1.25,0,1,0,1.25,1.25A1.25,1.25,0,0,0,93.56,27.4Zm12.1,0a1.25,1.25,0,1,0,1.24,1.25A1.24,1.24,0,0,0,105.66,27.4Zm12.09,0A1.25,1.25,0,1,0,119,28.65,1.25,1.25,0,0,0,117.75,27.4Zm.78,22.66a2.84,2.84,0,1,0,2.84,2.84A2.84,2.84,0,0,0,118.53,50.06ZM129.85,27.4a1.25,1.25,0,1,0,1.24,1.25A1.25,1.25,0,0,0,129.85,27.4Zm-48.38,0a1.25,1.25,0,1,0,1.24,1.25A1.25,1.25,0,0,0,81.47,27.4Zm12.09,0a1.25,1.25,0,1,0,1.25,1.25A1.25,1.25,0,0,0,93.56,27.4Zm12.1,0a1.25,1.25,0,1,0,1.24,1.25A1.24,1.24,0,0,0,105.66,27.4Zm12.09,0A1.25,1.25,0,1,0,119,28.65,1.25,1.25,0,0,0,117.75,27.4Zm.78,22.66a2.84,2.84,0,1,0,2.84,2.84A2.84,2.84,0,0,0,118.53,50.06ZM129.85,27.4a1.25,1.25,0,1,0,1.24,1.25A1.25,1.25,0,0,0,129.85,27.4Zm-48.38,0a1.25,1.25,0,1,0,1.24,1.25A1.25,1.25,0,0,0,81.47,27.4Zm12.09,0a1.25,1.25,0,1,0,1.25,1.25A1.25,1.25,0,0,0,93.56,27.4Zm12.1,0a1.25,1.25,0,1,0,1.24,1.25A1.24,1.24,0,0,0,105.66,27.4Zm12.09,0A1.25,1.25,0,1,0,119,28.65,1.25,1.25,0,0,0,117.75,27.4Zm.78,22.66a2.84,2.84,0,1,0,2.84,2.84A2.84,2.84,0,0,0,118.53,50.06ZM129.85,27.4a1.25,1.25,0,1,0,1.24,1.25A1.25,1.25,0,0,0,129.85,27.4Zm-48.38,0a1.25,1.25,0,1,0,1.24,1.25A1.25,1.25,0,0,0,81.47,27.4Zm12.09,0a1.25,1.25,0,1,0,1.25,1.25A1.25,1.25,0,0,0,93.56,27.4Zm12.1,0a1.25,1.25,0,1,0,1.24,1.25A1.24,1.24,0,0,0,105.66,27.4Zm12.09,0A1.25,1.25,0,1,0,119,28.65,1.25,1.25,0,0,0,117.75,27.4Zm.78,22.66a2.84,2.84,0,1,0,2.84,2.84A2.84,2.84,0,0,0,118.53,50.06ZM129.85,27.4a1.25,1.25,0,1,0,1.24,1.25A1.25,1.25,0,0,0,129.85,27.4Zm-48.38,0a1.25,1.25,0,1,0,1.24,1.25A1.25,1.25,0,0,0,81.47,27.4Zm12.09,0a1.25,1.25,0,1,0,1.25,1.25A1.25,1.25,0,0,0,93.56,27.4Zm12.1,0a1.25,1.25,0,1,0,1.24,1.25A1.24,1.24,0,0,0,105.66,27.4Zm12.09,0A1.25,1.25,0,1,0,119,28.65,1.25,1.25,0,0,0,117.75,27.4Zm.78,22.66a2.84,2.84,0,1,0,2.84,2.84A2.84,2.84,0,0,0,118.53,50.06ZM129.85,27.4a1.25,1.25,0,1,0,1.24,1.25A1.25,1.25,0,0,0,129.85,27.4ZM118.53,50.06a2.84,2.84,0,1,0,2.84,2.84A2.84,2.84,0,0,0,118.53,50.06Zm-.78-22.66A1.25,1.25,0,1,0,119,28.65,1.25,1.25,0,0,0,117.75,27.4Zm12.1,0a1.25,1.25,0,1,0,1.24,1.25A1.25,1.25,0,0,0,129.85,27.4Zm-36.29,0a1.25,1.25,0,1,0,1.25,1.25A1.25,1.25,0,0,0,93.56,27.4Zm-12.09,0a1.25,1.25,0,1,0,1.24,1.25A1.25,1.25,0,0,0,81.47,27.4Zm24.19,0a1.25,1.25,0,1,0,1.24,1.25A1.24,1.24,0,0,0,105.66,27.4Zm-24.19,0a1.25,1.25,0,1,0,1.24,1.25A1.25,1.25,0,0,0,81.47,27.4Zm12.09,0a1.25,1.25,0,1,0,1.25,1.25A1.25,1.25,0,0,0,93.56,27.4Zm12.1,0a1.25,1.25,0,1,0,1.24,1.25A1.24,1.24,0,0,0,105.66,27.4Zm12.09,0A1.25,1.25,0,1,0,119,28.65,1.25,1.25,0,0,0,117.75,27.4Zm.78,22.66a2.84,2.84,0,1,0,2.84,2.84A2.84,2.84,0,0,0,118.53,50.06ZM129.85,27.4a1.25,1.25,0,1,0,1.24,1.25A1.25,1.25,0,0,0,129.85,27.4Zm0,0a1.25,1.25,0,1,0,1.24,1.25A1.25,1.25,0,0,0,129.85,27.4Zm-12.1,0A1.25,1.25,0,1,0,119,28.65,1.25,1.25,0,0,0,117.75,27.4Zm-24.19,0a1.25,1.25,0,1,0,1.25,1.25A1.25,1.25,0,0,0,93.56,27.4Zm-12.09,0a1.25,1.25,0,1,0,1.24,1.25A1.25,1.25,0,0,0,81.47,27.4Zm24.19,0a1.25,1.25,0,1,0,1.24,1.25A1.24,1.24,0,0,0,105.66,27.4Zm12.87,22.66a2.84,2.84,0,1,0,2.84,2.84A2.84,2.84,0,0,0,118.53,50.06ZM81.47,27.4a1.25,1.25,0,1,0,1.24,1.25A1.25,1.25,0,0,0,81.47,27.4Zm12.09,0a1.25,1.25,0,1,0,1.25,1.25A1.25,1.25,0,0,0,93.56,27.4Zm12.1,0a1.25,1.25,0,1,0,1.24,1.25A1.24,1.24,0,0,0,105.66,27.4Zm12.09,0A1.25,1.25,0,1,0,119,28.65,1.25,1.25,0,0,0,117.75,27.4Zm.78,22.66a2.84,2.84,0,1,0,2.84,2.84A2.84,2.84,0,0,0,118.53,50.06ZM129.85,27.4a1.25,1.25,0,1,0,1.24,1.25A1.25,1.25,0,0,0,129.85,27.4Zm0,0a1.25,1.25,0,1,0,1.24,1.25A1.25,1.25,0,0,0,129.85,27.4Zm-12.1,0A1.25,1.25,0,1,0,119,28.65,1.25,1.25,0,0,0,117.75,27.4Zm-24.19,0a1.25,1.25,0,1,0,1.25,1.25A1.25,1.25,0,0,0,93.56,27.4Zm-12.09,0a1.25,1.25,0,1,0,1.24,1.25A1.25,1.25,0,0,0,81.47,27.4Zm24.19,0a1.25,1.25,0,1,0,1.24,1.25A1.24,1.24,0,0,0,105.66,27.4Zm12.87,22.66a2.84,2.84,0,1,0,2.84,2.84A2.84,2.84,0,0,0,118.53,50.06ZM81.47,27.4a1.25,1.25,0,1,0,1.24,1.25A1.25,1.25,0,0,0,81.47,27.4Zm12.09,0a1.25,1.25,0,1,0,1.25,1.25A1.25,1.25,0,0,0,93.56,27.4Zm12.1,0a1.25,1.25,0,1,0,1.24,1.25A1.24,1.24,0,0,0,105.66,27.4Zm12.09,0A1.25,1.25,0,1,0,119,28.65,1.25,1.25,0,0,0,117.75,27.4Zm.78,22.66a2.84,2.84,0,1,0,2.84,2.84A2.84,2.84,0,0,0,118.53,50.06ZM129.85,27.4a1.25,1.25,0,1,0,1.24,1.25A1.25,1.25,0,0,0,129.85,27.4Zm0,0a1.25,1.25,0,1,0,1.24,1.25A1.25,1.25,0,0,0,129.85,27.4ZM118.53,50.06a2.84,2.84,0,1,0,2.84,2.84A2.84,2.84,0,0,0,118.53,50.06Zm-.78-22.66A1.25,1.25,0,1,0,119,28.65,1.25,1.25,0,0,0,117.75,27.4Zm-12.09,0a1.25,1.25,0,1,0,1.24,1.25A1.24,1.24,0,0,0,105.66,27.4Zm-12.1,0a1.25,1.25,0,1,0,1.25,1.25A1.25,1.25,0,0,0,93.56,27.4Zm-12.09,0a1.25,1.25,0,1,0,1.24,1.25A1.25,1.25,0,0,0,81.47,27.4Zm48.38,0a1.25,1.25,0,1,0,1.24,1.25A1.25,1.25,0,0,0,129.85,27.4ZM124,75.76a1.25,1.25,0,0,0-.87-.35A1.23,1.23,0,1,0,124,77.5a1.19,1.19,0,0,0,.36-.87A1.2,1.2,0,0,0,124,75.76Zm-5.44-25.7a2.84,2.84,0,1,0,2.84,2.84A2.84,2.84,0,0,0,118.53,50.06Zm-.78-22.66A1.25,1.25,0,1,0,119,28.65,1.25,1.25,0,0,0,117.75,27.4Zm-12.09,0a1.25,1.25,0,1,0,1.24,1.25A1.24,1.24,0,0,0,105.66,27.4Zm-12.1,0a1.25,1.25,0,1,0,1.25,1.25A1.25,1.25,0,0,0,93.56,27.4Zm-12.09,0a1.25,1.25,0,1,0,1.24,1.25A1.25,1.25,0,0,0,81.47,27.4Zm37.06,22.66a2.84,2.84,0,1,0,2.84,2.84A2.84,2.84,0,0,0,118.53,50.06ZM105.66,27.4a1.25,1.25,0,1,0,1.24,1.25A1.24,1.24,0,0,0,105.66,27.4Zm-24.19,0a1.25,1.25,0,1,0,1.24,1.25A1.25,1.25,0,0,0,81.47,27.4Zm12.09,0a1.25,1.25,0,1,0,1.25,1.25A1.25,1.25,0,0,0,93.56,27.4Zm24.19,0A1.25,1.25,0,1,0,119,28.65,1.25,1.25,0,0,0,117.75,27.4Zm12.1,0a1.25,1.25,0,1,0,1.24,1.25A1.25,1.25,0,0,0,129.85,27.4Zm0,0a1.25,1.25,0,1,0,1.24,1.25A1.25,1.25,0,0,0,129.85,27.4ZM118.53,50.06a2.84,2.84,0,1,0,2.84,2.84A2.84,2.84,0,0,0,118.53,50.06Zm-.78-22.66A1.25,1.25,0,1,0,119,28.65,1.25,1.25,0,0,0,117.75,27.4Zm-12.09,0a1.25,1.25,0,1,0,1.24,1.25A1.24,1.24,0,0,0,105.66,27.4Zm-12.1,0a1.25,1.25,0,1,0,1.25,1.25A1.25,1.25,0,0,0,93.56,27.4Zm-12.09,0a1.25,1.25,0,1,0,1.24,1.25A1.25,1.25,0,0,0,81.47,27.4Zm37.06,22.66a2.84,2.84,0,1,0,2.84,2.84A2.84,2.84,0,0,0,118.53,50.06ZM105.66,27.4a1.25,1.25,0,1,0,1.24,1.25A1.24,1.24,0,0,0,105.66,27.4Zm-24.19,0a1.25,1.25,0,1,0,1.24,1.25A1.25,1.25,0,0,0,81.47,27.4Zm12.09,0a1.25,1.25,0,1,0,1.25,1.25A1.25,1.25,0,0,0,93.56,27.4Zm24.19,0A1.25,1.25,0,1,0,119,28.65,1.25,1.25,0,0,0,117.75,27.4Zm12.1,0a1.25,1.25,0,1,0,1.24,1.25A1.25,1.25,0,0,0,129.85,27.4Zm0,0a1.25,1.25,0,1,0,1.24,1.25A1.25,1.25,0,0,0,129.85,27.4ZM118.53,50.06a2.84,2.84,0,1,0,2.84,2.84A2.84,2.84,0,0,0,118.53,50.06Zm-.78-22.66A1.25,1.25,0,1,0,119,28.65,1.25,1.25,0,0,0,117.75,27.4Zm-12.09,0a1.25,1.25,0,1,0,1.24,1.25A1.24,1.24,0,0,0,105.66,27.4Zm-12.1,0a1.25,1.25,0,1,0,1.25,1.25A1.25,1.25,0,0,0,93.56,27.4Zm-12.09,0a1.25,1.25,0,1,0,1.24,1.25A1.25,1.25,0,0,0,81.47,27.4Zm37.06,22.66a2.84,2.84,0,1,0,2.84,2.84A2.84,2.84,0,0,0,118.53,50.06ZM105.66,27.4a1.25,1.25,0,1,0,1.24,1.25A1.24,1.24,0,0,0,105.66,27.4Zm-24.19,0a1.25,1.25,0,1,0,1.24,1.25A1.25,1.25,0,0,0,81.47,27.4Zm12.09,0a1.25,1.25,0,1,0,1.25,1.25A1.25,1.25,0,0,0,93.56,27.4Zm24.19,0A1.25,1.25,0,1,0,119,28.65,1.25,1.25,0,0,0,117.75,27.4Zm12.1,0a1.25,1.25,0,1,0,1.24,1.25A1.25,1.25,0,0,0,129.85,27.4Zm0,0a1.25,1.25,0,1,0,1.24,1.25A1.25,1.25,0,0,0,129.85,27.4ZM118.53,50.06a2.84,2.84,0,1,0,2.84,2.84A2.84,2.84,0,0,0,118.53,50.06Zm-.78-22.66A1.25,1.25,0,1,0,119,28.65,1.25,1.25,0,0,0,117.75,27.4Zm-12.09,0a1.25,1.25,0,1,0,1.24,1.25A1.24,1.24,0,0,0,105.66,27.4Zm-12.1,0a1.25,1.25,0,1,0,1.25,1.25A1.25,1.25,0,0,0,93.56,27.4Zm-12.09,0a1.25,1.25,0,1,0,1.24,1.25A1.25,1.25,0,0,0,81.47,27.4Zm24.19,0a1.25,1.25,0,1,0,1.24,1.25A1.24,1.24,0,0,0,105.66,27.4Zm-24.19,0a1.25,1.25,0,1,0,1.24,1.25A1.25,1.25,0,0,0,81.47,27.4Zm12.09,0a1.25,1.25,0,1,0,1.25,1.25A1.25,1.25,0,0,0,93.56,27.4Zm36.29,0a1.25,1.25,0,1,0,1.24,1.25A1.25,1.25,0,0,0,129.85,27.4Zm-12.1,0A1.25,1.25,0,1,0,119,28.65,1.25,1.25,0,0,0,117.75,27.4Zm.78,22.66a2.84,2.84,0,1,0,2.84,2.84A2.84,2.84,0,0,0,118.53,50.06ZM129.85,27.4a1.25,1.25,0,1,0,1.24,1.25A1.25,1.25,0,0,0,129.85,27.4ZM118.53,50.06a2.84,2.84,0,1,0,2.84,2.84A2.84,2.84,0,0,0,118.53,50.06Zm-.78-22.66A1.25,1.25,0,1,0,119,28.65,1.25,1.25,0,0,0,117.75,27.4Zm-12.09,0a1.25,1.25,0,1,0,1.24,1.25A1.24,1.24,0,0,0,105.66,27.4Zm-12.1,0a1.25,1.25,0,1,0,1.25,1.25A1.25,1.25,0,0,0,93.56,27.4Zm-12.09,0a1.25,1.25,0,1,0,1.24,1.25A1.25,1.25,0,0,0,81.47,27.4Zm48.38,0a1.25,1.25,0,1,0,1.24,1.25A1.25,1.25,0,0,0,129.85,27.4ZM118.53,50.06a2.84,2.84,0,1,0,2.84,2.84A2.84,2.84,0,0,0,118.53,50.06Zm-.78-22.66A1.25,1.25,0,1,0,119,28.65,1.25,1.25,0,0,0,117.75,27.4Zm-12.09,0a1.25,1.25,0,1,0,1.24,1.25A1.24,1.24,0,0,0,105.66,27.4Zm-12.1,0a1.25,1.25,0,1,0,1.25,1.25A1.25,1.25,0,0,0,93.56,27.4Zm-12.09,0a1.25,1.25,0,1,0,1.24,1.25A1.25,1.25,0,0,0,81.47,27.4Zm48.38,0a1.25,1.25,0,1,0,1.24,1.25A1.25,1.25,0,0,0,129.85,27.4ZM118.53,50.06a2.84,2.84,0,1,0,2.84,2.84A2.84,2.84,0,0,0,118.53,50.06Zm-.78-22.66A1.25,1.25,0,1,0,119,28.65,1.25,1.25,0,0,0,117.75,27.4Zm-12.09,0a1.25,1.25,0,1,0,1.24,1.25A1.24,1.24,0,0,0,105.66,27.4Zm-12.1,0a1.25,1.25,0,1,0,1.25,1.25A1.25,1.25,0,0,0,93.56,27.4Zm-12.09,0a1.25,1.25,0,1,0,1.24,1.25A1.25,1.25,0,0,0,81.47,27.4Zm37.06,22.66a2.84,2.84,0,1,0,2.84,2.84A2.84,2.84,0,0,0,118.53,50.06Zm-.78-22.66A1.25,1.25,0,1,0,119,28.65,1.25,1.25,0,0,0,117.75,27.4Zm-12.09,0a1.25,1.25,0,1,0,1.24,1.25A1.24,1.24,0,0,0,105.66,27.4Zm-12.1,0a1.25,1.25,0,1,0,1.25,1.25A1.25,1.25,0,0,0,93.56,27.4Zm-12.09,0a1.25,1.25,0,1,0,1.24,1.25A1.25,1.25,0,0,0,81.47,27.4Zm37.06,22.66a2.84,2.84,0,1,0,2.84,2.84A2.84,2.84,0,0,0,118.53,50.06Zm-.78-22.66A1.25,1.25,0,1,0,119,28.65,1.25,1.25,0,0,0,117.75,27.4Zm-12.09,0a1.25,1.25,0,1,0,1.24,1.25A1.24,1.24,0,0,0,105.66,27.4Zm-12.1,0a1.25,1.25,0,1,0,1.25,1.25A1.25,1.25,0,0,0,93.56,27.4Zm-12.09,0a1.25,1.25,0,1,0,1.24,1.25A1.25,1.25,0,0,0,81.47,27.4Zm37.06,22.66a2.84,2.84,0,1,0,2.84,2.84A2.84,2.84,0,0,0,118.53,50.06Zm-25-22.66a1.25,1.25,0,1,0,1.25,1.25A1.25,1.25,0,0,0,93.56,27.4Zm-12.09,0a1.25,1.25,0,1,0,1.24,1.25A1.25,1.25,0,0,0,81.47,27.4Zm37.06,22.66a2.84,2.84,0,1,0,2.84,2.84A2.84,2.84,0,0,0,118.53,50.06Zm-25-22.66a1.25,1.25,0,1,0,1.25,1.25A1.25,1.25,0,0,0,93.56,27.4Zm-12.09,0a1.25,1.25,0,1,0,1.24,1.25A1.25,1.25,0,0,0,81.47,27.4Zm37.06,22.66a2.84,2.84,0,1,0,2.84,2.84A2.84,2.84,0,0,0,118.53,50.06Zm0,0a2.84,2.84,0,1,0,2.84,2.84A2.84,2.84,0,0,0,118.53,50.06Zm0,0a2.84,2.84,0,1,0,2.84,2.84A2.84,2.84,0,0,0,118.53,50.06Zm0,0a2.84,2.84,0,1,0,2.84,2.84A2.84,2.84,0,0,0,118.53,50.06Z"/><path class="cls-1" d="M147.4,37.48V30.34a30.14,30.14,0,0,0-.53-5.62C144.13,10.63,132,0,118.59,0H98.38C87.73,0,77.67,6.58,72.59,16.82l-.38.79a33.53,33.53,0,0,0-2.37,7A42.41,42.41,0,0,0,68.72,32c0,.49,0,1,0,1.47V62.85A29.37,29.37,0,0,0,83,88l2.09,6.54a4.28,4.28,0,0,0,2.51,2.61,5.22,5.22,0,0,0,2,.38,5.34,5.34,0,0,0,2.5-.61l7.73-4.1a5.23,5.23,0,0,0,1-.71h16.33a29.27,29.27,0,0,0,27.91-20.56c6.38-.27,11.49-7.88,11.49-17.23C156.55,46.11,152.65,39.26,147.4,37.48Zm-63,29.37c-4.13-.34-7.14-4.69-6.73-9.73s4.1-8.84,8.23-8.5,7.14,4.7,6.73,9.73S88.52,67.19,84.39,66.85Zm-.46-38.2a2.46,2.46,0,1,1-3.07-2.39V12.74c.2-.16.4-.32.61-.47l.61-.44V26.26A2.47,2.47,0,0,1,83.93,28.65ZM90,38.92c1.22,1.41-2.21,1-2.65.95-1.87-.21-3,.81-4.14,2.23a1.27,1.27,0,0,1-1.1.59c-.76-.11-1.09-1.12-.9-1.8a2.86,2.86,0,0,1,.68-1.13C83.74,37.68,88,36.57,90,38.92Zm6-10.27A2.46,2.46,0,1,1,93,26.26V7.3l.19,0c.34-.06.68-.12,1-.16V26.26A2.48,2.48,0,0,1,96,28.65Zm12.1,0a2.46,2.46,0,1,1-3.07-2.39V6.79h1.22V26.26A2.48,2.48,0,0,1,108.12,28.65Zm-3.37,42.29a1.44,1.44,0,0,1,1.37,1.91c-.93,2.58-3,4.38-5.35,4.38s-4.43-1.8-5.35-4.38a1.43,1.43,0,0,1,1.36-1.91Zm40.91-1.66a7.64,7.64,0,0,1-2,.08l-.13,0a27.24,27.24,0,0,1-26.41,20.71H99.94l-.3.34a3,3,0,0,1-.78.6l-7.73,4.1a3.32,3.32,0,0,1-2.77.14A2.22,2.22,0,0,1,87,93.88l-.46-1.46a4.07,4.07,0,0,0,3.33-.21l7.27-3.85a3.67,3.67,0,0,0,1-.78h15.77a26.68,26.68,0,0,0,25.69-19.82c-.13-.09-.26-.18-.38-.28a12.4,12.4,0,0,1-2.81-3.31L125.06,75.54a2.17,2.17,0,0,1,.29,1.09,2.25,2.25,0,0,1-.66,1.59,2.21,2.21,0,0,1-.73.48,2.1,2.1,0,0,1-.86.17,2.24,2.24,0,1,1,1.1-4.19l11.62-11.63c0-.11-.1-.22-.16-.33a20.28,20.28,0,0,1-1.77-8.45c0-5.76,2.25-11,5.78-13.53l.47-.31c.18-.12.36-.22.54-.32a9.16,9.16,0,0,1,1-.46V33.47a29.68,29.68,0,0,0-7.55-20,30.12,30.12,0,0,0-3-3l-.55-.46-.23-.17-.48-.38-.56-.4A24.29,24.29,0,0,0,123,5.87l-.16,0-.7-.22c-.33-.1-.65-.18-1-.26a18.56,18.56,0,0,0-2.73-.47c-.4,0-.81-.06-1.27-.08-.79,0-1.63,0-2.49,0l-16.32,0a31.12,31.12,0,0,0-4.34.3c-.38,0-.75.1-1.11.17h-.08l-.07,0A29.52,29.52,0,0,0,81,10.14c-.24.17-.48.33-.7.51a28.1,28.1,0,0,0-3.35,2.9c.4-.56.82-1.09,1.26-1.62A26.52,26.52,0,0,1,98.38,2h20.21c11.61,0,22.23,8.65,25.66,20.5.25.84.45,1.7.63,2.58a27.67,27.67,0,0,1,.5,5.23l0,8.9a6.84,6.84,0,0,1,1,.21h0a10.06,10.06,0,0,1,5.51,4.3,19.14,19.14,0,0,1,2.94,10.54,19.13,19.13,0,0,1-2.94,10.53,10.47,10.47,0,0,1-4.87,4.1A7.91,7.91,0,0,1,145.66,69.28ZM120.21,28.65a2.46,2.46,0,1,1-3.07-2.39V6.82c.41,0,.77,0,1.12.07h.1V26.26A2.47,2.47,0,0,1,120.21,28.65Zm1.33,11.11a3,3,0,0,1,.68,1.13c.18.68-.14,1.69-.91,1.8a1.29,1.29,0,0,1-1.1-.59c-1.13-1.42-2.26-2.44-4.14-2.23-.44.05-3.87.46-2.64-.95C115.49,36.57,119.7,37.68,121.54,39.76Zm-4,8.67c4.13-.33,7.81,3.47,8.23,8.51s-2.6,9.39-6.73,9.73-7.82-3.47-8.23-8.51S113.46,48.77,117.59,48.43ZM132.3,28.65a2.46,2.46,0,1,1-3.06-2.39V11.63l.56.46c.22.18.44.37.65.57v13.6A2.47,2.47,0,0,1,132.3,28.65Z"/><circle class="cls-1" cx="84.94" cy="53.09" r="2.84"/><circle class="cls-1" cx="84.94" cy="53.09" r="2.84"/><circle class="cls-1" cx="118.53" cy="52.9" r="2.84"/><circle class="cls-1" cx="118.53" cy="52.9" r="2.84"/><path class="cls-1" d="M92.85,5.24h0Z"/><path class="cls-1" d="M92.85,5.24h0Z"/><path class="cls-1" d="M92.85,5.24h0Z"/><path class="cls-1" d="M152.82,54.27c0,6.18-2.88,11.58-6.75,12.82l-.42.12-.13,0a3.47,3.47,0,0,1-.55.08,2.48,2.48,0,0,1-.27,0h-.82a6.28,6.28,0,0,1-3.37-1.44c-.14-.11-.27-.23-.41-.36a11,11,0,0,1-2-2.62l-.13-.24c-.15-.26-.28-.53-.42-.82l-.15-.34a18.39,18.39,0,0,1-1.43-7.25c0-4.41,1.43-8.44,3.75-10.85a7.83,7.83,0,0,1,1-.9,5.22,5.22,0,0,1,.54-.38,4.39,4.39,0,0,1,.47-.27,5.62,5.62,0,0,1,2.65-.68h0a5.79,5.79,0,0,1,.83.06l.16,0h0a5.66,5.66,0,0,1,.59.15l.11,0,.3.11h0a6,6,0,0,1,1,.5C150.61,44,152.82,48.84,152.82,54.27Z"/><path class="cls-1" d="M124.33,76.63a1.19,1.19,0,0,1-.36.87,1.23,1.23,0,1,1-.87-2.09,1.25,1.25,0,0,1,.87.35A1.2,1.2,0,0,1,124.33,76.63Z"/><path class="cls-1" d="M10,143a26.6,26.6,0,0,1-4.25-.36,13,13,0,0,1-4-1.25,3,3,0,0,1-1.39-1.21A2.63,2.63,0,0,1,0,138.64a2.45,2.45,0,0,1,.49-1.37,2.22,2.22,0,0,1,1.18-.8,2.38,2.38,0,0,1,1.63.17,19.85,19.85,0,0,0,3.57,1.13,15.82,15.82,0,0,0,3.14.33,5.18,5.18,0,0,0,2.93-.66,2,2,0,0,0,1-1.7,1.57,1.57,0,0,0-.62-1.35,4.49,4.49,0,0,0-1.79-.68l-5-.9A8.34,8.34,0,0,1,2,130.63a5.67,5.67,0,0,1-1.58-4.15,6.49,6.49,0,0,1,1.32-4.11,8.47,8.47,0,0,1,3.66-2.63,14.54,14.54,0,0,1,5.32-.92,18.83,18.83,0,0,1,3.9.38,13.25,13.25,0,0,1,3.47,1.28A2.29,2.29,0,0,1,19.52,123a3.19,3.19,0,0,1-.59,1.34,2.22,2.22,0,0,1-1.18.81A2.61,2.61,0,0,1,16,125a20.68,20.68,0,0,0-2.79-.93,10.31,10.31,0,0,0-2.36-.3,5.73,5.73,0,0,0-3.14.66,2,2,0,0,0-1,1.7,1.8,1.8,0,0,0,.57,1.35,3.19,3.19,0,0,0,1.7.73l5,.85a9,9,0,0,1,4.63,2.1,5.44,5.44,0,0,1,1.6,4.13,6.58,6.58,0,0,1-2.81,5.7A12.61,12.61,0,0,1,10,143Z"/><path class="cls-1" d="M32.7,143c-2.81,0-4.9-.78-6.29-2.32s-2.07-3.86-2.07-6.94V112.4a3.52,3.52,0,0,1,.94-2.69,3.62,3.62,0,0,1,2.6-.9,3.69,3.69,0,0,1,2.67.9,3.59,3.59,0,0,1,.92,2.69v21a4.19,4.19,0,0,0,.83,2.86,2.81,2.81,0,0,0,2.19.92,4.45,4.45,0,0,0,.74,0l.68-.09a1,1,0,0,1,1.06.5,5,5,0,0,1,.31,2.19,3.46,3.46,0,0,1-.57,2.13,2.55,2.55,0,0,1-1.74.94c-.29,0-.63.07-1,.1S33.11,143,32.7,143Z"/><path class="cls-1" d="M61.05,132a1.63,1.63,0,0,0,.56-1.34,15.13,15.13,0,0,0-.75-4.9A10.32,10.32,0,0,0,58.64,122a10.08,10.08,0,0,0-3.48-2.36,12.89,12.89,0,0,0-10.7.73,11.45,11.45,0,0,0-4.23,4.23,12.38,12.38,0,0,0-1.53,6.26,12.64,12.64,0,0,0,1.58,6.45,10.57,10.57,0,0,0,4.54,4.18A15.69,15.69,0,0,0,51.88,143a19.76,19.76,0,0,0,3.87-.41,11.84,11.84,0,0,0,3.69-1.34,3.21,3.21,0,0,0,1.35-1.3,3.11,3.11,0,0,0,.35-1.58,2.33,2.33,0,0,0-.54-1.4,2.41,2.41,0,0,0-1.3-.78,3.14,3.14,0,0,0-1.94.33,12.05,12.05,0,0,1-2.76.9,13.4,13.4,0,0,1-2.58.28,6.65,6.65,0,0,1-5-1.7,6.12,6.12,0,0,1-1.55-3.54H59.39A2.63,2.63,0,0,0,61.05,132Zm-15.59-3.23a7.86,7.86,0,0,1,.56-2.11,5.16,5.16,0,0,1,1.89-2.34,5.37,5.37,0,0,1,3-.8,4.79,4.79,0,0,1,2.62.68,4.37,4.37,0,0,1,1.63,2,7.58,7.58,0,0,1,.55,2.58Z"/><path class="cls-1" d="M87,132a1.61,1.61,0,0,0,.57-1.34,14.86,14.86,0,0,0-.76-4.9,9.85,9.85,0,0,0-5.69-6.09,12.89,12.89,0,0,0-10.7.73,11.37,11.37,0,0,0-4.23,4.23,12.38,12.38,0,0,0-1.53,6.26,12.54,12.54,0,0,0,1.58,6.45,10.52,10.52,0,0,0,4.54,4.18A15.66,15.66,0,0,0,77.82,143a19.76,19.76,0,0,0,3.87-.41,11.94,11.94,0,0,0,3.69-1.34,3.12,3.12,0,0,0,1.34-1.3,3,3,0,0,0,.36-1.58,2.33,2.33,0,0,0-.54-1.4,2.44,2.44,0,0,0-1.31-.78,3.11,3.11,0,0,0-1.93.33,12.13,12.13,0,0,1-2.77.9,13.3,13.3,0,0,1-2.57.28,6.66,6.66,0,0,1-5-1.7,6.11,6.11,0,0,1-1.54-3.54H85.33A2.6,2.6,0,0,0,87,132ZM71.4,128.75a7.86,7.86,0,0,1,.56-2.11,5.16,5.16,0,0,1,1.89-2.34,5.37,5.37,0,0,1,3-.8,4.79,4.79,0,0,1,2.62.68,4.37,4.37,0,0,1,1.63,2,7.58,7.58,0,0,1,.55,2.58Z"/><path class="cls-1" d="M113.75,140.46a2.44,2.44,0,0,1-1,1.75,3.48,3.48,0,0,1-2.15.66,4.88,4.88,0,0,1-2.58-.59,7.74,7.74,0,0,1-2-1.82l-7.13-8h-.1v6.8c0,2.4-1.19,3.59-3.59,3.59a3.59,3.59,0,0,1-2.6-.92,3.55,3.55,0,0,1-.94-2.67V112.4a3.52,3.52,0,0,1,.94-2.69,3.57,3.57,0,0,1,6.19,2.69v16.53h.1l6.85-7.6a10.05,10.05,0,0,1,1.89-1.82,4.09,4.09,0,0,1,2.36-.59,3.11,3.11,0,0,1,2.27.75,2.63,2.63,0,0,1,.78,1.82,3.4,3.4,0,0,1-.92,2.2l-6,6.67,6.84,7.88A3,3,0,0,1,113.75,140.46Z"/><path class="cls-1" d="M134.65,121.71a2.88,2.88,0,0,1-2.92,3.3l-1.09.1a6.11,6.11,0,0,0-4,1.56,5.2,5.2,0,0,0-1.3,3.82v8.79a3.2,3.2,0,0,1-3.59,3.59A3.78,3.78,0,0,1,119,142a3.55,3.55,0,0,1-1-2.67V122.51a3.62,3.62,0,0,1,.92-2.67,3.58,3.58,0,0,1,2.63-.92,3.42,3.42,0,0,1,2.55.92,3.69,3.69,0,0,1,.89,2.67v.79a6.59,6.59,0,0,1,2-2.73,8.84,8.84,0,0,1,5.08-1.75,2.07,2.07,0,0,1,1.77.59A3.62,3.62,0,0,1,134.65,121.71Z"/><path class="cls-1" d="M158.32,132a1.61,1.61,0,0,0,.57-1.34,15.13,15.13,0,0,0-.75-4.9,10.32,10.32,0,0,0-2.22-3.73,10.08,10.08,0,0,0-3.48-2.36,12.89,12.89,0,0,0-10.7.73,11.45,11.45,0,0,0-4.23,4.23,12.38,12.38,0,0,0-1.53,6.26,12.54,12.54,0,0,0,1.58,6.45,10.52,10.52,0,0,0,4.54,4.18,15.66,15.66,0,0,0,7.06,1.47,19.76,19.76,0,0,0,3.87-.41,11.84,11.84,0,0,0,3.69-1.34,3.12,3.12,0,0,0,1.34-1.3,3,3,0,0,0,.36-1.58,2.33,2.33,0,0,0-.54-1.4,2.45,2.45,0,0,0-1.3-.78,3.13,3.13,0,0,0-1.94.33,12.05,12.05,0,0,1-2.76.9,13.48,13.48,0,0,1-2.58.28,6.66,6.66,0,0,1-5-1.7,6.11,6.11,0,0,1-1.54-3.54h13.92A2.6,2.6,0,0,0,158.32,132Zm-15.58-3.23a7.86,7.86,0,0,1,.56-2.11,5.16,5.16,0,0,1,1.89-2.34,5.37,5.37,0,0,1,3-.8,4.79,4.79,0,0,1,2.62.68,4.37,4.37,0,0,1,1.63,2,7.58,7.58,0,0,1,.55,2.58Z"/><path class="cls-1" d="M186.27,124.45a9.42,9.42,0,0,0-3.57-4.16,9.73,9.73,0,0,0-5.34-1.47,9,9,0,0,0-4.93,1.37,6.75,6.75,0,0,0-2.34,2.45v-.13a3.62,3.62,0,0,0-.92-2.67,4.13,4.13,0,0,0-5.2,0,3.62,3.62,0,0,0-.92,2.67v25.28a3.55,3.55,0,0,0,.94,2.69,4.31,4.31,0,0,0,5.27,0,3.58,3.58,0,0,0,.92-2.69v-8.45a6.72,6.72,0,0,0,2.32,2.3,9,9,0,0,0,4.86,1.33,9.66,9.66,0,0,0,5.34-1.45,9.54,9.54,0,0,0,3.55-4.18,15.18,15.18,0,0,0,1.27-6.47A15,15,0,0,0,186.27,124.45ZM179.7,134.7a4.68,4.68,0,0,1-1.79,2.24,4.89,4.89,0,0,1-2.67.73,4.65,4.65,0,0,1-3.69-1.65q-1.41-1.65-1.41-5.15a9.89,9.89,0,0,1,.63-3.78,4.61,4.61,0,0,1,1.8-2.22,5,5,0,0,1,2.67-.71,4.66,4.66,0,0,1,3.68,1.63q1.43,1.63,1.42,5.08A9.85,9.85,0,0,1,179.7,134.7Z"/><path class="cls-1" d="M200.23,143c-2.8,0-4.9-.78-6.28-2.32s-2.08-3.86-2.08-6.94V112.4a3.52,3.52,0,0,1,.94-2.69A3.57,3.57,0,0,1,199,112.4v21a4.19,4.19,0,0,0,.83,2.86,2.82,2.82,0,0,0,2.2.92,4.4,4.4,0,0,0,.73,0l.68-.09a1,1,0,0,1,1.07.5,5.2,5.2,0,0,1,.3,2.19,3.53,3.53,0,0,1-.56,2.13,2.58,2.58,0,0,1-1.75.94c-.29,0-.63.07-1,.1S200.64,143,200.23,143Z"/><path class="cls-1" d="M228.15,123.5l-11.1,25.18a4.67,4.67,0,0,1-1.58,2.15,4.06,4.06,0,0,1-2.2.55,3.07,3.07,0,0,1-2-.64,2.79,2.79,0,0,1-1-1.7,3.7,3.7,0,0,1,.38-2.25l2.52-5.53-7.72-17.71a4.36,4.36,0,0,1-.28-2.29,2.61,2.61,0,0,1,1-1.7,3.93,3.93,0,0,1,2.41-.64,3.56,3.56,0,0,1,2.1.56,4.6,4.6,0,0,1,1.35,2.32L217,134.06l5-12.35a4.91,4.91,0,0,1,1.49-2.2,3.83,3.83,0,0,1,2.25-.59,2.87,2.87,0,0,1,2,.64,2.72,2.72,0,0,1,.89,1.67A3.91,3.91,0,0,1,228.15,123.5Z"/></g></g></svg>