<svg xmlns="http://www.w3.org/2000/svg" viewBox="0 0 228.59 151.9"><defs><style>.cls-1{fill:#a777c6;}.cls-2{fill:#7d42bc;}.cls-3{fill:#0f0140;}.cls-4{fill:#fff;}.cls-5{fill:#6519d1;}.cls-6{fill:#4505a0;}</style></defs><g id="Capa_2" data-name="Capa 2"><g id="Capa_1-2" data-name="Capa 1"><path class="cls-1" d="M145.41,33.16V62.55A28.3,28.3,0,0,1,117.2,90.76H100.45a3.94,3.94,0,0,1-1.07.82l-7.73,4.1c-2.14,1.13-4.9.24-5.55-1.79L83.89,87A28.28,28.28,0,0,1,69.74,62.55V33.16A28.29,28.29,0,0,1,98,5H117.2A28.29,28.29,0,0,1,145.41,33.16Z"/><path class="cls-2" d="M145.41,48v14.6A28.3,28.3,0,0,1,117.2,90.76H100.45a3.94,3.94,0,0,1-1.07.82l-7.73,4.1c-2.14,1.13-4.9.24-5.55-1.79l-.76-2.39a3.94,3.94,0,0,0,4.59.61l7.27-3.86a3.45,3.45,0,0,0,1-.77H114a26.64,26.64,0,0,0,26.56-26.56V48Z"/><ellipse class="cls-3" cx="85.19" cy="57.63" rx="9.15" ry="7.51" transform="translate(20.77 137.81) rotate(-85.3)"/><circle class="cls-4" cx="84.99" cy="52.99" r="2.84"/><ellipse class="cls-3" cx="118.39" cy="57.45" rx="7.51" ry="9.15" transform="translate(-4.31 9.89) rotate(-4.7)"/><circle class="cls-4" cx="118.58" cy="52.8" r="2.84"/><path class="cls-3" d="M104.8,70.84a1.44,1.44,0,0,1,1.37,1.9c-.93,2.59-3,4.39-5.36,4.39s-4.42-1.8-5.35-4.39a1.44,1.44,0,0,1,1.37-1.9Z"/><path class="cls-3" d="M90.06,38.82c-2.06-2.35-6.27-1.24-8.11.83a3,3,0,0,0-.67,1.14c-.19.68.13,1.69.9,1.8a1.27,1.27,0,0,0,1.1-.59c1.13-1.42,2.26-2.44,4.14-2.23C87.86,39.82,91.29,40.23,90.06,38.82Z"/><path class="cls-3" d="M113.48,38.82c2.06-2.35,6.27-1.24,8.11.83a3,3,0,0,1,.67,1.14c.19.68-.13,1.69-.9,1.8a1.27,1.27,0,0,1-1.1-.59c-1.13-1.42-2.26-2.44-4.14-2.23C115.68,39.82,112.25,40.23,113.48,38.82Z"/><path class="cls-5" d="M130.5,26.16V9.91h-1.21V26.16a2.46,2.46,0,1,0,1.21,0Zm-.61,3.63a1.25,1.25,0,1,1,1.25-1.25A1.25,1.25,0,0,1,129.89,29.79Z"/><path class="cls-3" d="M129.89,31.31a2.77,2.77,0,0,1-.91-5.38V9.6h1.83V25.94a2.76,2.76,0,0,1-.92,5.37Zm-.3-21.1V26.4l-.23.06a2.16,2.16,0,1,0,1.07,0l-.23-.06V10.21Zm.3,19.88a1.55,1.55,0,1,1,1.55-1.55A1.54,1.54,0,0,1,129.89,30.09Zm0-2.48a.94.94,0,1,0,.94.93A.93.93,0,0,0,129.89,27.61Z"/><path class="cls-5" d="M106.31,26.16V5.24H105.1V26.16a2.46,2.46,0,1,0,1.21,0Zm-.6,3.63A1.25,1.25,0,1,1,107,28.54,1.25,1.25,0,0,1,105.71,29.79Z"/><path class="cls-3" d="M105.71,31.31a2.77,2.77,0,0,1-.92-5.38v-21h1.83v21a2.76,2.76,0,0,1-.91,5.37ZM105.4,5.54V26.4l-.23.06a2.16,2.16,0,1,0,1.07,0L106,26.4V5.54Zm.31,24.55a1.55,1.55,0,1,1,1.54-1.55A1.54,1.54,0,0,1,105.71,30.09Zm0-2.48a.94.94,0,1,0,.93.93A.94.94,0,0,0,105.71,27.61Z"/><path class="cls-5" d="M82.13,26.16V10.87H80.91V26.16a2.46,2.46,0,1,0,1.22,0Zm-.61,3.63a1.25,1.25,0,1,1,1.24-1.25A1.24,1.24,0,0,1,81.52,29.79Z"/><path class="cls-3" d="M81.52,31.31a2.76,2.76,0,0,1-.92-5.37V10.56h1.83V25.93a2.77,2.77,0,0,1-.91,5.38Zm-.31-20.14V26.4l-.23.06a2.16,2.16,0,1,0,1.07,0l-.23-.06V11.17Zm.31,18.92a1.55,1.55,0,1,1,1.54-1.55A1.54,1.54,0,0,1,81.52,30.09Zm0-2.48a.94.94,0,1,0,.93.93A.94.94,0,0,0,81.52,27.61Z"/><path class="cls-5" d="M94.22,26.16V5.24H93V26.16a2.46,2.46,0,1,0,1.22,0Zm-.61,3.63a1.25,1.25,0,1,1,1.24-1.25A1.25,1.25,0,0,1,93.61,29.79Z"/><path class="cls-3" d="M93.61,31.31a2.77,2.77,0,0,1-.91-5.38v-21h1.82v21a2.76,2.76,0,0,1-.91,5.37Zm-.3-25.77V26.4l-.23.06a2.15,2.15,0,0,0,.53,4.24,2.15,2.15,0,0,0,.53-4.24l-.22-.06V5.54Zm.3,24.55a1.55,1.55,0,1,1,1.55-1.55A1.54,1.54,0,0,1,93.61,30.09Zm0-2.48a.94.94,0,1,0,.94.93A.94.94,0,0,0,93.61,27.61Z"/><path class="cls-5" d="M118.41,26.16V5.24h-1.22V26.16a2.46,2.46,0,1,0,1.22,0Zm-.61,3.63A1.25,1.25,0,1,1,119,28.54,1.25,1.25,0,0,1,117.8,29.79Z"/><path class="cls-3" d="M117.8,31.31a2.76,2.76,0,0,1-.91-5.37v-21h1.82v21a2.77,2.77,0,0,1-.91,5.38Zm-.3-25.77V26.4l-.23.06a2.15,2.15,0,1,0,1.06,0l-.23-.06V5.54Zm.3,24.55a1.55,1.55,0,1,1,1.55-1.55A1.55,1.55,0,0,1,117.8,30.09Zm0-2.48a.94.94,0,1,0,.94.93A.94.94,0,0,0,117.8,27.61Z"/><path class="cls-3" d="M89.63,97.39a5.22,5.22,0,0,1-2-.38,4.26,4.26,0,0,1-2.51-2.61L83,87.86A29.37,29.37,0,0,1,68.73,62.75V33.36A29.26,29.26,0,0,1,98,4.14H117.2a29.26,29.26,0,0,1,29.22,29.22V62.75A29.26,29.26,0,0,1,117.2,92H100.87a5,5,0,0,1-1,.71l-7.72,4.1A5.34,5.34,0,0,1,89.63,97.39ZM98,6.17A27.21,27.21,0,0,0,70.76,33.36V62.75A27.31,27.31,0,0,0,84.4,86.3l.34.2,2.32,7.28a2.25,2.25,0,0,0,1.35,1.35A3.28,3.28,0,0,0,91.18,95l7.72-4.09a2.89,2.89,0,0,0,.79-.6l.3-.35H117.2a27.22,27.22,0,0,0,27.19-27.19V33.36A27.22,27.22,0,0,0,117.2,6.17Z"/><path class="cls-6" d="M146.44,30.24V57.51h-4.91V32.76a28.64,28.64,0,0,0-7.3-19.3,25.51,25.51,0,0,0-11.57-7.6,27.93,27.93,0,0,0-8-.81l-16.36,0A28.89,28.89,0,0,0,71,24.86l-.2-.05C73.34,11.55,84.93.91,98.31.91h20.26c13.27,0,24.77,10.64,27.35,23.9A29,29,0,0,1,146.44,30.24Z"/><path class="cls-3" d="M147.35,58.42h-6.73V32.76a27.71,27.71,0,0,0-7.07-18.69,24.58,24.58,0,0,0-11.14-7.33A26.73,26.73,0,0,0,114.67,6H98.31A28,28,0,0,0,71.82,25.15l-.27.81-1.85-.48.17-.85C72.6,10.59,84.83,0,98.31,0h20.26c13.37,0,25.51,10.59,28.24,24.64a29.12,29.12,0,0,1,.54,5.6Zm-4.91-1.82h3.09V30.24A27.08,27.08,0,0,0,145,25c-2.57-13.21-13.94-23.16-26.45-23.16H98.31c-8.76,0-17,4.79-22,12.13a29.67,29.67,0,0,1,22-9.8l16.36,0a28.44,28.44,0,0,1,8.25.85,26.49,26.49,0,0,1,12,7.85,29.57,29.57,0,0,1,7.53,19.92Z"/><rect class="cls-6" x="121.23" y="67.1" width="21.48" height="1.22" transform="translate(-9.22 113.15) rotate(-45)"/><path class="cls-3" d="M124.81,76.16l-1.29-1.29,15.62-15.62,1.29,1.3Zm-.43-1.29.43.43,14.76-14.75-.43-.44Z"/><ellipse class="cls-5" cx="144.42" cy="54.17" rx="9.46" ry="14.1"/><path class="cls-3" d="M144.42,69.32c-2.9,0-5.6-1.64-7.59-4.6a19.12,19.12,0,0,1-3-10.55,19.08,19.08,0,0,1,3-10.54c2-3,4.69-4.6,7.59-4.6s5.59,1.63,7.58,4.6A19.08,19.08,0,0,1,155,54.17,19.12,19.12,0,0,1,152,64.72C150,67.68,147.32,69.32,144.42,69.32Zm0-28.2c-4.63,0-8.4,5.85-8.4,13.05s3.77,13.06,8.4,13.06,8.39-5.86,8.39-13.06S149,41.12,144.42,41.12Z"/><circle class="cls-5" cx="123.15" cy="76.53" r="1.74"/><path class="cls-3" d="M123.15,78.77a2.24,2.24,0,1,1,2.24-2.24,2.26,2.26,0,0,1-.65,1.59h0A2.26,2.26,0,0,1,123.15,78.77Zm0-3.47a1.23,1.23,0,1,0,.87,2.1h0a1.23,1.23,0,0,0-.87-2.1Z"/><path class="cls-3" d="M10,143.49a26.6,26.6,0,0,1-4.25-.36,13.3,13.3,0,0,1-4-1.25,3,3,0,0,1-1.39-1.21A2.63,2.63,0,0,1,0,139.16a2.45,2.45,0,0,1,.49-1.37,2.22,2.22,0,0,1,1.18-.8,2.43,2.43,0,0,1,1.63.16,19.17,19.17,0,0,0,3.57,1.14,15.82,15.82,0,0,0,3.14.33A5.18,5.18,0,0,0,13,138a2,2,0,0,0,1-1.7,1.57,1.57,0,0,0-.62-1.35,4.64,4.64,0,0,0-1.79-.69l-5-.89A8.34,8.34,0,0,1,2,131.15,5.67,5.67,0,0,1,.43,127a6.49,6.49,0,0,1,1.32-4.11,8.47,8.47,0,0,1,3.66-2.63,14.54,14.54,0,0,1,5.32-.92,18.83,18.83,0,0,1,3.9.38A13.25,13.25,0,0,1,18.1,121a2.29,2.29,0,0,1,1.42,2.55,3.19,3.19,0,0,1-.59,1.34,2.22,2.22,0,0,1-1.18.81,2.56,2.56,0,0,1-1.73-.22,22,22,0,0,0-2.79-.92,10.31,10.31,0,0,0-2.36-.3,5.71,5.71,0,0,0-3.14.66,2,2,0,0,0-1,1.7A1.78,1.78,0,0,0,7.33,128a3.12,3.12,0,0,0,1.7.74l5,.85a9,9,0,0,1,4.63,2.1,5.44,5.44,0,0,1,1.6,4.13,6.58,6.58,0,0,1-2.81,5.7A12.61,12.61,0,0,1,10,143.49Z"/><path class="cls-3" d="M32.7,143.49c-2.81,0-4.9-.78-6.29-2.32s-2.07-3.86-2.07-6.95v-21.3a3.56,3.56,0,0,1,.94-2.7,3.66,3.66,0,0,1,2.6-.89,3.73,3.73,0,0,1,2.67.89,3.63,3.63,0,0,1,.92,2.7v21a4.19,4.19,0,0,0,.83,2.86,2.81,2.81,0,0,0,2.19.92,4.45,4.45,0,0,0,.74-.05l.68-.09a1,1,0,0,1,1.06.5,5,5,0,0,1,.31,2.19,3.46,3.46,0,0,1-.57,2.13,2.55,2.55,0,0,1-1.74.94l-1,.1C33.52,143.47,33.11,143.49,32.7,143.49Z"/><path class="cls-3" d="M61.05,132.5a1.64,1.64,0,0,0,.56-1.35,15.11,15.11,0,0,0-.75-4.89,10.32,10.32,0,0,0-2.22-3.73,10.08,10.08,0,0,0-3.48-2.36,12.89,12.89,0,0,0-10.7.73,11.45,11.45,0,0,0-4.23,4.23,12.38,12.38,0,0,0-1.53,6.26,12.64,12.64,0,0,0,1.58,6.45A10.57,10.57,0,0,0,44.82,142a15.66,15.66,0,0,0,7.06,1.46,19.9,19.9,0,0,0,3.88-.4,11.88,11.88,0,0,0,3.68-1.34,3.21,3.21,0,0,0,1.35-1.3,3.11,3.11,0,0,0,.35-1.58,2.33,2.33,0,0,0-.54-1.4,2.41,2.41,0,0,0-1.3-.78,3.14,3.14,0,0,0-1.94.33,12.05,12.05,0,0,1-2.76.9,13.4,13.4,0,0,1-2.58.28,6.69,6.69,0,0,1-5-1.7A6.23,6.23,0,0,1,45.47,133H59.39A2.63,2.63,0,0,0,61.05,132.5Zm-15.59-3.24a7.89,7.89,0,0,1,.56-2.1,5.16,5.16,0,0,1,1.89-2.34,5.37,5.37,0,0,1,3-.8,4.79,4.79,0,0,1,2.62.68,4.37,4.37,0,0,1,1.63,2,7.57,7.57,0,0,1,.55,2.57Z"/><path class="cls-3" d="M87,132.5a1.62,1.62,0,0,0,.57-1.35,14.84,14.84,0,0,0-.76-4.89,9.85,9.85,0,0,0-5.69-6.09,12.89,12.89,0,0,0-10.7.73,11.37,11.37,0,0,0-4.23,4.23,12.38,12.38,0,0,0-1.53,6.26,12.54,12.54,0,0,0,1.58,6.45A10.55,10.55,0,0,0,70.75,142a15.73,15.73,0,0,0,7.07,1.46,19.72,19.72,0,0,0,3.87-.4,11.94,11.94,0,0,0,3.69-1.34,3.12,3.12,0,0,0,1.34-1.3,3,3,0,0,0,.36-1.58,2.34,2.34,0,0,0-.55-1.4,2.38,2.38,0,0,0-1.29-.78,3.13,3.13,0,0,0-1.94.33,12,12,0,0,1-2.77.9,13.3,13.3,0,0,1-2.57.28,6.66,6.66,0,0,1-5-1.7A6.17,6.17,0,0,1,71.41,133H85.33A2.6,2.6,0,0,0,87,132.5ZM71.4,129.26a7.89,7.89,0,0,1,.56-2.1,5.16,5.16,0,0,1,1.89-2.34,5.37,5.37,0,0,1,3-.8,4.82,4.82,0,0,1,2.62.68,4.37,4.37,0,0,1,1.63,2,7.57,7.57,0,0,1,.55,2.57Z"/><path class="cls-3" d="M113.75,141a2.44,2.44,0,0,1-1,1.75,3.48,3.48,0,0,1-2.15.66,5,5,0,0,1-2.58-.59,7.91,7.91,0,0,1-2-1.82l-7.13-8h-.1v6.8q0,3.58-3.59,3.59a3.59,3.59,0,0,1-2.6-.92,3.55,3.55,0,0,1-.94-2.67V112.92a3.56,3.56,0,0,1,.94-2.7,4.35,4.35,0,0,1,5.27,0,3.59,3.59,0,0,1,.92,2.7v16.53h.1l6.85-7.6a10.05,10.05,0,0,1,1.89-1.82,4,4,0,0,1,2.36-.59,3.11,3.11,0,0,1,2.27.75,2.61,2.61,0,0,1,.78,1.82,3.4,3.4,0,0,1-.92,2.2l-6,6.67,6.84,7.88A3,3,0,0,1,113.75,141Z"/><path class="cls-3" d="M134,124.49a3.28,3.28,0,0,1-2.3,1l-1.08.1a6.11,6.11,0,0,0-4,1.56,5.24,5.24,0,0,0-1.29,3.82v8.79a3.2,3.2,0,0,1-3.59,3.59,3.76,3.76,0,0,1-2.74-.92,3.51,3.51,0,0,1-1-2.67V123a3.62,3.62,0,0,1,.92-2.67,3.53,3.53,0,0,1,2.62-.92,3.39,3.39,0,0,1,2.56.92,3.69,3.69,0,0,1,.89,2.67v.79a6.59,6.59,0,0,1,2-2.73,8.84,8.84,0,0,1,5.08-1.75,2.07,2.07,0,0,1,1.77.59,3.61,3.61,0,0,1,.73,2.29A3.3,3.3,0,0,1,134,124.49Z"/><path class="cls-3" d="M158.32,132.5a1.62,1.62,0,0,0,.57-1.35,15.11,15.11,0,0,0-.75-4.89,10.32,10.32,0,0,0-2.22-3.73,10.08,10.08,0,0,0-3.48-2.36,12.89,12.89,0,0,0-10.7.73,11.45,11.45,0,0,0-4.23,4.23,12.38,12.38,0,0,0-1.53,6.26,12.54,12.54,0,0,0,1.58,6.45,10.61,10.61,0,0,0,4.53,4.18,15.73,15.73,0,0,0,7.07,1.46,19.72,19.72,0,0,0,3.87-.4,11.94,11.94,0,0,0,3.69-1.34,3.21,3.21,0,0,0,1.35-1.3,3.11,3.11,0,0,0,.35-1.58,2.28,2.28,0,0,0-.55-1.4,2.38,2.38,0,0,0-1.29-.78,3.14,3.14,0,0,0-1.94.33,12.05,12.05,0,0,1-2.76.9,13.48,13.48,0,0,1-2.58.28,6.66,6.66,0,0,1-5-1.7,6.17,6.17,0,0,1-1.54-3.54h13.92A2.6,2.6,0,0,0,158.32,132.5Zm-15.58-3.24a7.89,7.89,0,0,1,.56-2.1,5.16,5.16,0,0,1,1.89-2.34,5.37,5.37,0,0,1,3-.8,4.79,4.79,0,0,1,2.62.68,4.37,4.37,0,0,1,1.63,2,7.57,7.57,0,0,1,.55,2.57Z"/><path class="cls-3" d="M186.27,125a9.51,9.51,0,0,0-3.57-4.15,9.73,9.73,0,0,0-5.34-1.47,9,9,0,0,0-4.93,1.37,6.67,6.67,0,0,0-2.34,2.45V123a3.62,3.62,0,0,0-.92-2.67,3.48,3.48,0,0,0-2.58-.92,3.53,3.53,0,0,0-2.62.92,3.62,3.62,0,0,0-.92,2.67V148.3A3.56,3.56,0,0,0,164,151a3.57,3.57,0,0,0,6.19-2.7v-8.44a6.72,6.72,0,0,0,2.32,2.3,9,9,0,0,0,4.86,1.32A9.66,9.66,0,0,0,182.7,142a9.53,9.53,0,0,0,3.55-4.18,17.14,17.14,0,0,0,0-12.9Zm-6.57,10.26a4.73,4.73,0,0,1-1.79,2.24,4.86,4.86,0,0,1-2.67.73,4.65,4.65,0,0,1-3.69-1.65q-1.41-1.65-1.41-5.15a9.89,9.89,0,0,1,.63-3.78,4.61,4.61,0,0,1,1.8-2.22,5,5,0,0,1,2.67-.71,4.63,4.63,0,0,1,3.68,1.63q1.43,1.64,1.42,5.08A9.85,9.85,0,0,1,179.7,135.22Z"/><path class="cls-3" d="M200.23,143.49c-2.8,0-4.9-.78-6.28-2.32s-2.08-3.86-2.08-6.95v-21.3a3.56,3.56,0,0,1,.94-2.7,3.57,3.57,0,0,1,6.19,2.7v21a4.19,4.19,0,0,0,.83,2.86,2.82,2.82,0,0,0,2.2.92,4.4,4.4,0,0,0,.73-.05l.68-.09a1,1,0,0,1,1.07.5,5.2,5.2,0,0,1,.3,2.19,3.53,3.53,0,0,1-.56,2.13,2.6,2.6,0,0,1-1.75.94l-1,.1C201.05,143.47,200.64,143.49,200.23,143.49Z"/><path class="cls-3" d="M228.15,124l-11.1,25.18a4.67,4.67,0,0,1-1.58,2.15,4.15,4.15,0,0,1-2.2.55,3.07,3.07,0,0,1-2-.64,2.81,2.81,0,0,1-1-1.7,3.7,3.7,0,0,1,.38-2.25l2.52-5.53-7.72-17.71a4.26,4.26,0,0,1-.28-2.29,2.61,2.61,0,0,1,1-1.7,3.93,3.93,0,0,1,2.41-.64,3.56,3.56,0,0,1,2.1.56,4.6,4.6,0,0,1,1.35,2.32L217,134.57l5-12.35a4.93,4.93,0,0,1,1.49-2.19,3.75,3.75,0,0,1,2.25-.59,2.87,2.87,0,0,1,2,.64,2.72,2.72,0,0,1,.89,1.67A3.92,3.92,0,0,1,228.15,124Z"/></g></g></svg>