<svg xmlns="http://www.w3.org/2000/svg" viewBox="0 0 374.34 107.95"><defs><style>.cls-1{fill:#a777c6;}.cls-2{fill:#7d42bc;}.cls-3{fill:#0f0140;}.cls-4{fill:#fff;}.cls-5{fill:#6519d1;}.cls-6{fill:#4505a0;}</style></defs><g id="Capa_2" data-name="Capa 2"><g id="Capa_1-2" data-name="Capa 1"><path class="cls-1" d="M85,36.75V69.33A31.36,31.36,0,0,1,53.73,100.6H35.16a4.21,4.21,0,0,1-1.18.91l-8.57,4.54c-2.37,1.26-5.44.27-6.16-2l-2.44-7.66A31.34,31.34,0,0,1,1.12,69.33V36.75A31.36,31.36,0,0,1,32.39,5.48H53.73A31.36,31.36,0,0,1,85,36.75Z"/><path class="cls-2" d="M85,53.15V69.33A31.36,31.36,0,0,1,53.73,100.6H35.16a4.21,4.21,0,0,1-1.18.91l-8.57,4.54c-2.37,1.26-5.44.27-6.16-2l-.84-2.65a4.36,4.36,0,0,0,5.09.68l8.06-4.28A3.74,3.74,0,0,0,32.67,97H50.16A29.52,29.52,0,0,0,79.6,67.52V53.15Z"/><ellipse class="cls-3" cx="18.24" cy="63.88" rx="10.14" ry="8.32" transform="translate(-46.92 76.83) rotate(-85.3)"/><circle class="cls-4" cx="18.03" cy="58.73" r="3.15"/><ellipse class="cls-3" cx="55.04" cy="63.68" rx="8.32" ry="10.14" transform="translate(-5.03 4.72) rotate(-4.7)"/><circle class="cls-4" cx="55.26" cy="58.53" r="3.15"/><path class="cls-3" d="M40,78.52a1.59,1.59,0,0,1,1.52,2.11c-1,2.87-3.3,4.86-5.93,4.86s-4.91-2-5.94-4.86a1.59,1.59,0,0,1,1.52-2.11Z"/><path class="cls-3" d="M23.65,43c-2.29-2.61-6.95-1.38-9,.92a3.31,3.31,0,0,0-.75,1.26c-.21.76.15,1.87,1,2a1.41,1.41,0,0,0,1.22-.65c1.25-1.58,2.51-2.71,4.59-2.48C21.21,44.13,25,44.59,23.65,43Z"/><path class="cls-3" d="M49.6,43c2.29-2.61,6.95-1.38,9,.92a3.18,3.18,0,0,1,.75,1.26c.21.76-.15,1.87-1,2a1.42,1.42,0,0,1-1.22-.65c-1.25-1.58-2.51-2.71-4.59-2.48C52,44.13,48.24,44.59,49.6,43Z"/><path class="cls-5" d="M68.47,29V11H67.12V29a2.73,2.73,0,1,0,1.35,0Zm-.67,4a1.38,1.38,0,1,1,1.38-1.38A1.38,1.38,0,0,1,67.8,33Z"/><path class="cls-3" d="M67.8,34.7a3.06,3.06,0,0,1-1-6V10.64h2V28.75a3.06,3.06,0,0,1-1,6Zm-.34-23.38V29.26l-.25.06a2.41,2.41,0,1,0,1.18,0l-.25-.07V11.32Zm.34,22a1.71,1.71,0,1,1,1.71-1.71A1.71,1.71,0,0,1,67.8,33.35Zm0-2.75a1,1,0,1,0,1,1A1,1,0,0,0,67.8,30.6Z"/><path class="cls-5" d="M41.66,29V5.81H40.31V29a2.73,2.73,0,1,0,1.35,0ZM41,33a1.38,1.38,0,1,1,1.37-1.38A1.38,1.38,0,0,1,41,33Z"/><path class="cls-3" d="M41,34.7a3.06,3.06,0,0,1-1-6V5.47h2V28.75a3.06,3.06,0,0,1-1,6ZM40.65,6.15V29.26l-.25.06a2.41,2.41,0,1,0,1.18,0l-.26-.07V6.15ZM41,33.35a1.71,1.71,0,1,1,1.71-1.71A1.72,1.72,0,0,1,41,33.35Zm0-2.75a1,1,0,1,0,1,1A1,1,0,0,0,41,30.6Z"/><path class="cls-5" d="M14.85,29V12.05H13.5V29a2.73,2.73,0,1,0,1.35,0Zm-.67,4a1.38,1.38,0,1,1,1.37-1.38A1.38,1.38,0,0,1,14.18,33Z"/><path class="cls-3" d="M14.18,34.7a3.06,3.06,0,0,1-1-6v-17h2v17a3.06,3.06,0,0,1-1,6Zm-.34-22.32V29.26l-.25.07a2.36,2.36,0,1,0,1.18,0l-.26-.06V12.38Zm.34,21a1.71,1.71,0,1,1,1.71-1.71A1.72,1.72,0,0,1,14.18,33.35Zm0-2.75a1,1,0,1,0,1,1A1,1,0,0,0,14.18,30.6Z"/><path class="cls-5" d="M28.26,29V5.81H26.91V29a2.73,2.73,0,1,0,1.35,0Zm-.68,4A1.38,1.38,0,1,1,29,31.64,1.37,1.37,0,0,1,27.58,33Z"/><path class="cls-3" d="M27.58,34.7a3.06,3.06,0,0,1-1-6V5.47h2V28.75a3.06,3.06,0,0,1-1,6ZM27.24,6.15V29.26l-.25.06a2.41,2.41,0,1,0,1.18,0l-.25-.07V6.15Zm.34,27.2a1.71,1.71,0,1,1,1.72-1.71A1.72,1.72,0,0,1,27.58,33.35Zm0-2.75a1,1,0,1,0,1,1A1,1,0,0,0,27.58,30.6Z"/><path class="cls-5" d="M55.07,29V5.81H53.72V29a2.73,2.73,0,1,0,1.35,0Zm-.68,4a1.38,1.38,0,1,1,1.38-1.38A1.38,1.38,0,0,1,54.39,33Z"/><path class="cls-3" d="M54.39,34.7a3.06,3.06,0,0,1-1-6V5.47h2V28.75a3.06,3.06,0,0,1-1,6ZM54.06,6.15V29.26l-.26.07a2.37,2.37,0,1,0,1.18,0l-.25-.06V6.15Zm.33,27.2a1.71,1.71,0,1,1,1.72-1.71A1.72,1.72,0,0,1,54.39,33.35Zm0-2.75a1,1,0,1,0,1,1A1,1,0,0,0,54.39,30.6Z"/><path class="cls-3" d="M23.16,108a5.84,5.84,0,0,1-2.19-.42,4.74,4.74,0,0,1-2.79-2.89l-2.31-7.25A32.56,32.56,0,0,1,0,69.56V37A32.43,32.43,0,0,1,32.39,4.59H53.73A32.43,32.43,0,0,1,86.12,37V69.56A32.43,32.43,0,0,1,53.73,102H35.63a5.39,5.39,0,0,1-1.13.78l-8.56,4.54A6,6,0,0,1,23.16,108ZM32.39,6.83A30.18,30.18,0,0,0,2.25,37V69.56a30.29,30.29,0,0,0,15.12,26.1l.38.22L20.32,104a2.48,2.48,0,0,0,1.49,1.5,3.73,3.73,0,0,0,3.08-.17l8.56-4.54a2.94,2.94,0,0,0,.87-.66l.33-.38H53.73A30.17,30.17,0,0,0,83.87,69.56V37A30.18,30.18,0,0,0,53.73,6.83Z"/><path class="cls-6" d="M86.14,33.51V63.75H80.7V36.31a31.78,31.78,0,0,0-8.1-21.4A28.26,28.26,0,0,0,59.79,6.5a30.75,30.75,0,0,0-8.86-.9l-18.14,0A32,32,0,0,0,2.47,27.55l-.22-.05C5.11,12.8,18,1,32.79,1H55.25C70,1,82.7,12.8,85.56,27.5A31.88,31.88,0,0,1,86.14,33.51Z"/><path class="cls-3" d="M87.15,64.76H79.69V36.31a30.76,30.76,0,0,0-7.84-20.72A27.29,27.29,0,0,0,59.5,7.47a29.9,29.9,0,0,0-8.57-.86l-18.14,0A31,31,0,0,0,3.43,27.88l-.3.89-2-.53.18-.94C4.29,11.74,17.84,0,32.79,0H55.25c14.82,0,28.28,11.74,31.3,27.31a32.17,32.17,0,0,1,.6,6.2Zm-5.44-2h3.42V33.51a30.69,30.69,0,0,0-.56-5.82C81.72,13.06,69.12,2,55.25,2H32.79C23.08,2,14,7.33,8.39,15.47A32.9,32.9,0,0,1,32.79,4.61l18.13,0a31.81,31.81,0,0,1,9.15.94,29.16,29.16,0,0,1,13.28,8.71,32.75,32.75,0,0,1,8.36,22.07Z"/><rect class="cls-6" x="58.2" y="74.38" width="23.81" height="1.35" transform="translate(-32.54 71.55) rotate(-45)"/><path class="cls-3" d="M62.16,84.42,60.73,83,78,65.68l1.44,1.43ZM61.69,83l.47.48L78.52,67.11,78,66.63Z"/><ellipse class="cls-5" cx="83.9" cy="60.05" rx="10.49" ry="15.63"/><path class="cls-3" d="M83.9,76.83c-3.22,0-6.2-1.81-8.41-5.1a21.11,21.11,0,0,1-3.27-11.68,21.12,21.12,0,0,1,3.27-11.69c2.21-3.29,5.19-5.1,8.41-5.1s6.2,1.81,8.4,5.1a21.12,21.12,0,0,1,3.27,11.69A21.11,21.11,0,0,1,92.3,71.73C90.1,75,87.11,76.83,83.9,76.83Zm0-31.25c-5.13,0-9.31,6.49-9.31,14.47s4.18,14.47,9.31,14.47S93.2,68,93.2,60.05,89,45.58,83.9,45.58Z"/><circle class="cls-5" cx="60.33" cy="84.83" r="1.92"/><path class="cls-3" d="M60.33,87.32a2.47,2.47,0,0,1-1.76-.73,2.49,2.49,0,1,1,3.51,0h0A2.46,2.46,0,0,1,60.33,87.32Zm0-3.85a1.36,1.36,0,1,0,0,2.72,1.35,1.35,0,0,0,1-.4h0a1.39,1.39,0,0,0,.4-1,1.37,1.37,0,0,0-.4-1A1.36,1.36,0,0,0,60.33,83.47Z"/><path class="cls-3" d="M132,73.82a30.1,30.1,0,0,1-4.71-.39,14.29,14.29,0,0,1-4.4-1.39,3.24,3.24,0,0,1-1.55-1.33A3.06,3.06,0,0,1,121,69a2.73,2.73,0,0,1,.55-1.52,2.51,2.51,0,0,1,1.31-.89,2.73,2.73,0,0,1,1.81.19,21.38,21.38,0,0,0,4,1.25,17,17,0,0,0,3.48.37,5.72,5.72,0,0,0,3.25-.73,2.22,2.22,0,0,0,1.05-1.89,1.74,1.74,0,0,0-.68-1.49,5.27,5.27,0,0,0-2-.76l-5.56-1a9.25,9.25,0,0,1-4.94-2.41,6.27,6.27,0,0,1-1.76-4.61A7.2,7.2,0,0,1,122.91,51a9.32,9.32,0,0,1,4.06-2.9,15.75,15.75,0,0,1,5.89-1,20.69,20.69,0,0,1,4.32.42A14.72,14.72,0,0,1,141,48.9a2.54,2.54,0,0,1,1.57,2.83,3.65,3.65,0,0,1-.66,1.49,2.51,2.51,0,0,1-1.31.89,2.8,2.8,0,0,1-1.91-.24,22.65,22.65,0,0,0-3.09-1,11,11,0,0,0-2.62-.34,6.44,6.44,0,0,0-3.48.73,2.22,2.22,0,0,0-1.07,1.89,2,2,0,0,0,.63,1.49,3.49,3.49,0,0,0,1.88.81l5.55,1a9.88,9.88,0,0,1,5.14,2.33,6.05,6.05,0,0,1,1.78,4.58,7.29,7.29,0,0,1-3.12,6.31A14,14,0,0,1,132,73.82Z"/><path class="cls-3" d="M157.21,73.82q-4.67,0-7-2.56t-2.3-7.7V39.94A3.92,3.92,0,0,1,149,37a4,4,0,0,1,2.88-1,4.06,4.06,0,0,1,3,1,4,4,0,0,1,1,3V63.25a4.62,4.62,0,0,0,.91,3.16,3.1,3.1,0,0,0,2.44,1,5.32,5.32,0,0,0,.81-.06l.76-.1a1.15,1.15,0,0,1,1.18.55,5.78,5.78,0,0,1,.34,2.43,3.85,3.85,0,0,1-.63,2.36,2.88,2.88,0,0,1-1.94,1l-1.15.1C158.12,73.81,157.66,73.82,157.21,73.82Z"/><path class="cls-3" d="M188.63,61.65a1.78,1.78,0,0,0,.63-1.49,16.53,16.53,0,0,0-.84-5.42A11.21,11.21,0,0,0,186,50.6,11,11,0,0,0,182.11,48a13.38,13.38,0,0,0-5.11-.91,13.24,13.24,0,0,0-6.75,1.72,12.64,12.64,0,0,0-4.69,4.69,13.73,13.73,0,0,0-1.7,6.94,14,14,0,0,0,1.75,7.15,11.64,11.64,0,0,0,5,4.63,17.34,17.34,0,0,0,7.83,1.62,22,22,0,0,0,4.3-.44,13.51,13.51,0,0,0,4.08-1.49,3.58,3.58,0,0,0,1.49-1.44,3.28,3.28,0,0,0,.39-1.76,2.52,2.52,0,0,0-.6-1.54,2.58,2.58,0,0,0-1.44-.87,3.42,3.42,0,0,0-2.15.37,13.54,13.54,0,0,1-3.06,1,15.71,15.71,0,0,1-2.85.31q-3.72,0-5.55-1.89a6.69,6.69,0,0,1-1.71-3.92H186.8A2.91,2.91,0,0,0,188.63,61.65Zm-17.28-3.59a9,9,0,0,1,.63-2.33,5.6,5.6,0,0,1,2.09-2.59,5.94,5.94,0,0,1,3.3-.89,5.25,5.25,0,0,1,2.91.76,4.83,4.83,0,0,1,1.8,2.2,8.11,8.11,0,0,1,.61,2.85Z"/><path class="cls-3" d="M217.38,61.65a1.78,1.78,0,0,0,.63-1.49,16.53,16.53,0,0,0-.84-5.42,11.21,11.21,0,0,0-2.46-4.14A11,11,0,0,0,210.86,48a14.39,14.39,0,0,0-11.86.81,12.64,12.64,0,0,0-4.69,4.69,13.73,13.73,0,0,0-1.7,6.94,14,14,0,0,0,1.75,7.15,11.64,11.64,0,0,0,5,4.63,17.34,17.34,0,0,0,7.83,1.62,21.85,21.85,0,0,0,4.29-.44,13.47,13.47,0,0,0,4.09-1.49,3.58,3.58,0,0,0,1.49-1.44,3.28,3.28,0,0,0,.39-1.76,2.52,2.52,0,0,0-.6-1.54,2.58,2.58,0,0,0-1.44-.87,3.38,3.38,0,0,0-2.14.37,13.62,13.62,0,0,1-3.07,1,15.62,15.62,0,0,1-2.85.31q-3.72,0-5.55-1.89a6.69,6.69,0,0,1-1.71-3.92h15.43A2.91,2.91,0,0,0,217.38,61.65ZM200.1,58.06a9,9,0,0,1,.63-2.33,5.6,5.6,0,0,1,2.09-2.59,5.94,5.94,0,0,1,3.3-.89A5.25,5.25,0,0,1,209,53a4.77,4.77,0,0,1,1.8,2.2,8.11,8.11,0,0,1,.61,2.85Z"/><path class="cls-3" d="M247.05,71.05A2.74,2.74,0,0,1,246,73a3.84,3.84,0,0,1-2.39.73,5.39,5.39,0,0,1-2.85-.66,8.45,8.45,0,0,1-2.17-2l-7.91-8.85h-.11v7.54c0,2.65-1.32,4-4,4a3.59,3.59,0,0,1-3.92-4V39.94a3.92,3.92,0,0,1,1-3,4,4,0,0,1,2.88-1,4,4,0,0,1,3,1,4,4,0,0,1,1,3V58.27h.11l7.59-8.43a11.62,11.62,0,0,1,2.1-2,4.59,4.59,0,0,1,2.62-.65,3.41,3.41,0,0,1,2.51.84,2.84,2.84,0,0,1,.86,2,3.71,3.71,0,0,1-1,2.44l-6.69,7.39,7.58,8.74A3.38,3.38,0,0,1,247.05,71.05Z"/><path class="cls-3" d="M269.51,52.77A3.66,3.66,0,0,1,267,53.93l-1.2.1a6.82,6.82,0,0,0-4.43,1.73A5.81,5.81,0,0,0,259.9,60v9.74a4.09,4.09,0,0,1-1,3,4,4,0,0,1-3,1,4.16,4.16,0,0,1-3-1,4,4,0,0,1-1-3V51.15a4,4,0,0,1,1-3,3.94,3.94,0,0,1,2.91-1,3.75,3.75,0,0,1,2.82,1,4,4,0,0,1,1,3V52a7.21,7.21,0,0,1,2.22-3,9.72,9.72,0,0,1,5.63-1.93,2.27,2.27,0,0,1,2,.65,4.06,4.06,0,0,1,.81,2.54A3.68,3.68,0,0,1,269.51,52.77Z"/><path class="cls-3" d="M296.46,61.65a1.78,1.78,0,0,0,.62-1.49,16.53,16.53,0,0,0-.83-5.42A10.92,10.92,0,0,0,289.94,48a13.38,13.38,0,0,0-5.11-.91,13.24,13.24,0,0,0-6.75,1.72,12.64,12.64,0,0,0-4.69,4.69,13.63,13.63,0,0,0-1.7,6.94,14,14,0,0,0,1.75,7.15,11.64,11.64,0,0,0,5,4.63,17.34,17.34,0,0,0,7.83,1.62,21.85,21.85,0,0,0,4.29-.44,13.57,13.57,0,0,0,4.09-1.49,3.64,3.64,0,0,0,1.49-1.44,3.48,3.48,0,0,0,.39-1.76,2.65,2.65,0,0,0-.6-1.54,2.62,2.62,0,0,0-1.44-.87,3.42,3.42,0,0,0-2.15.37,13.7,13.7,0,0,1-3.06,1,15.81,15.81,0,0,1-2.86.31c-2.48,0-4.32-.63-5.55-1.89a6.74,6.74,0,0,1-1.7-3.92h15.42A2.94,2.94,0,0,0,296.46,61.65Zm-17.28-3.59a9,9,0,0,1,.62-2.33,5.68,5.68,0,0,1,2.1-2.59,5.91,5.91,0,0,1,3.3-.89,5.2,5.2,0,0,1,2.9.76,4.78,4.78,0,0,1,1.81,2.2,8.11,8.11,0,0,1,.61,2.85Z"/><path class="cls-3" d="M327.43,53.3a10.52,10.52,0,0,0-3.95-4.61,10.86,10.86,0,0,0-5.92-1.62,10,10,0,0,0-5.47,1.51,7.44,7.44,0,0,0-2.59,2.71v-.14a4,4,0,0,0-1-3,3.85,3.85,0,0,0-2.85-1,3.94,3.94,0,0,0-2.91,1,4,4,0,0,0-1,3v28a3.92,3.92,0,0,0,1.05,3,4,4,0,0,0,2.88,1,4.09,4.09,0,0,0,3-1,4,4,0,0,0,1-3V69.8a7.41,7.41,0,0,0,2.57,2.56,10.05,10.05,0,0,0,5.39,1.46,10.24,10.24,0,0,0,9.85-6.23,16.86,16.86,0,0,0,1.41-7.17A16.69,16.69,0,0,0,327.43,53.3Zm-7.28,11.36a5.19,5.19,0,0,1-2,2.49,5.41,5.41,0,0,1-3,.81,5.13,5.13,0,0,1-4.08-1.83q-1.58-1.84-1.57-5.71a10.85,10.85,0,0,1,.7-4.19,5.13,5.13,0,0,1,2-2.46,5.53,5.53,0,0,1,3-.79,5.15,5.15,0,0,1,4.09,1.81q1.57,1.8,1.57,5.63A11,11,0,0,1,320.15,64.66Z"/><path class="cls-3" d="M342.91,73.82q-4.67,0-7-2.56c-1.54-1.71-2.3-4.28-2.3-7.7V39.94a3.56,3.56,0,0,1,3.92-4,4,4,0,0,1,3,1,4,4,0,0,1,1,3V63.25a4.62,4.62,0,0,0,.92,3.16,3.09,3.09,0,0,0,2.44,1,5.42,5.42,0,0,0,.81-.06l.76-.1a1.15,1.15,0,0,1,1.18.55,5.78,5.78,0,0,1,.34,2.43,3.85,3.85,0,0,1-.63,2.36,2.88,2.88,0,0,1-1.94,1l-1.15.1C343.81,73.81,343.36,73.82,342.91,73.82Z"/><path class="cls-3" d="M373.86,52.25,361.55,80.16a5.16,5.16,0,0,1-1.75,2.38,4.57,4.57,0,0,1-2.44.61,3.39,3.39,0,0,1-2.25-.71,3.08,3.08,0,0,1-1.05-1.89,4,4,0,0,1,.42-2.48l2.8-6.14L348.72,52.3a4.81,4.81,0,0,1-.32-2.54,2.91,2.91,0,0,1,1.16-1.88,4.33,4.33,0,0,1,2.67-.71,3.88,3.88,0,0,1,2.33.63,5.12,5.12,0,0,1,1.49,2.56L361.48,64,367,50.26a5.4,5.4,0,0,1,1.65-2.44,4.22,4.22,0,0,1,2.48-.65,3.16,3.16,0,0,1,2.18.71,3,3,0,0,1,1,1.86A4.44,4.44,0,0,1,373.86,52.25Z"/></g></g></svg>