<svg xmlns="http://www.w3.org/2000/svg" viewBox="0 0 140.17 158.34"><defs><style>.cls-1{fill:#a777c6;}.cls-2{fill:#7d42bc;}.cls-3{fill:#0f0140;}.cls-4{fill:#fff;}.cls-5{fill:#6519d1;}.cls-6{fill:#4505a0;}</style></defs><g id="Capa_2" data-name="Capa 2"><g id="numeración_Pag" data-name="numeración Pag"><path class="cls-1" d="M124.66,53.9v47.79A46,46,0,0,1,78.8,147.55H51.57a6.14,6.14,0,0,1-1.74,1.34l-12.56,6.66c-3.48,1.85-8,.4-9-2.91l-3.59-11.23a46,46,0,0,1-23-39.72V53.9A46,46,0,0,1,47.51,8H78.8A46,46,0,0,1,124.66,53.9Z"/><path class="cls-2" d="M124.66,78v23.73A46,46,0,0,1,78.8,147.55H51.57a6.14,6.14,0,0,1-1.74,1.34l-12.56,6.66c-3.48,1.85-8,.4-9-2.91L27,148.76a6.38,6.38,0,0,0,7.46,1l11.83-6.27a5.71,5.71,0,0,0,1.63-1.26H73.57A43.31,43.31,0,0,0,116.75,99V78Z"/><ellipse class="cls-3" cx="26.76" cy="93.7" rx="14.87" ry="12.2" transform="matrix(0.08, -1, 1, 0.08, -68.82, 112.69)"/><circle class="cls-4" cx="26.44" cy="86.15" r="4.62"/><ellipse class="cls-3" cx="80.73" cy="93.4" rx="12.2" ry="14.87" transform="translate(-7.38 6.93) rotate(-4.7)"/><circle class="cls-4" cx="81.05" cy="85.84" r="4.62"/><path class="cls-3" d="M58.64,115.17a2.34,2.34,0,0,1,2.23,3.09c-1.51,4.21-4.84,7.13-8.7,7.13s-7.2-2.92-8.71-7.13a2.34,2.34,0,0,1,2.23-3.09Z"/><path class="cls-3" d="M34.69,63.11c-3.35-3.83-10.2-2-13.19,1.36a4.94,4.94,0,0,0-1.1,1.84c-.3,1.11.22,2.75,1.47,2.93a2.07,2.07,0,0,0,1.79-.95c1.83-2.32,3.68-4,6.73-3.64C31.11,64.73,36.69,65.4,34.69,63.11Z"/><path class="cls-3" d="M72.76,63.11c3.35-3.83,10.19-2,13.18,1.36A4.94,4.94,0,0,1,87,66.31c.3,1.11-.22,2.75-1.47,2.93a2.08,2.08,0,0,1-1.79-.95c-1.83-2.32-3.68-4-6.73-3.64C76.34,64.73,70.76,65.4,72.76,63.11Z"/><path class="cls-5" d="M100.43,42.53V16.1h-2V42.53a4,4,0,1,0,2,0Zm-1,5.89a2,2,0,1,1,2-2A2,2,0,0,1,99.44,48.42Z"/><path class="cls-3" d="M99.44,50.9A4.5,4.5,0,0,1,98,42.16V15.61h3V42.17a4.49,4.49,0,0,1-1.49,8.73ZM99,16.6V42.91l-.37.1a3.51,3.51,0,1,0,1.73,0l-.37-.09V16.6Zm.49,32.32A2.52,2.52,0,1,1,102,46.41,2.52,2.52,0,0,1,99.44,48.92Zm0-4A1.53,1.53,0,1,0,101,46.41,1.53,1.53,0,0,0,99.44,44.88Z"/><path class="cls-5" d="M61.11,42.53v-34h-2v34a4,4,0,1,0,2,0Zm-1,5.89a2,2,0,1,1,2-2A2,2,0,0,1,60.12,48.42Z"/><path class="cls-3" d="M60.12,50.9a4.5,4.5,0,0,1-1.49-8.74V8h3V42.17a4.49,4.49,0,0,1-1.48,8.73ZM59.62,9v33.9l-.37.1A3.51,3.51,0,1,0,61,43l-.37-.09V9Zm.5,39.91a2.52,2.52,0,1,1,2.51-2.51A2.52,2.52,0,0,1,60.12,48.92Zm0-4a1.53,1.53,0,1,0,0,3,1.53,1.53,0,0,0,0-3Z"/><path class="cls-5" d="M21.78,42.53V17.67h-2V42.53a4,4,0,1,0,2,0Zm-1,5.89a2,2,0,1,1,2-2A2,2,0,0,1,20.79,48.42Z"/><path class="cls-3" d="M20.79,50.9a4.49,4.49,0,0,1-1.48-8.73v-25h3v25a4.5,4.5,0,0,1-1.49,8.74ZM20.3,18.17V42.92l-.37.09a3.51,3.51,0,1,0,1.73,0l-.37-.1V18.17Zm.49,30.75a2.52,2.52,0,1,1,2.52-2.51A2.52,2.52,0,0,1,20.79,48.92Zm0-4a1.53,1.53,0,1,0,1.53,1.53A1.53,1.53,0,0,0,20.79,44.88Z"/><path class="cls-5" d="M41.44,42.53v-34h-2v34a4,4,0,1,0,2,0Zm-1,5.89a2,2,0,1,1,2-2A2,2,0,0,1,40.46,48.42Z"/><path class="cls-3" d="M40.46,50.9A4.5,4.5,0,0,1,39,42.16V8h3V42.17a4.49,4.49,0,0,1-1.48,8.73ZM40,9v33.9l-.37.1a3.51,3.51,0,1,0,1.73,0L41,42.92V9Zm.5,39.91A2.52,2.52,0,1,1,43,46.41,2.52,2.52,0,0,1,40.46,48.92Zm0-4a1.53,1.53,0,1,0,0,3,1.53,1.53,0,0,0,0-3Z"/><path class="cls-5" d="M80.77,42.53v-34h-2v34a4,4,0,1,0,2,0Zm-1,5.89a2,2,0,1,1,2-2A2,2,0,0,1,79.78,48.42Z"/><path class="cls-3" d="M79.78,50.9a4.49,4.49,0,0,1-1.48-8.73V8h3V42.16a4.5,4.5,0,0,1-1.48,8.74ZM79.29,9V42.92l-.38.09a3.5,3.5,0,1,0,1.74,0l-.38-.1V9Zm.49,39.91a2.52,2.52,0,1,1,2.51-2.51A2.51,2.51,0,0,1,79.78,48.92Zm0-4a1.53,1.53,0,1,0,1.52,1.53A1.53,1.53,0,0,0,79.78,44.88Z"/><path class="cls-3" d="M34,158.34a8.49,8.49,0,0,1-3.23-.63,6.94,6.94,0,0,1-4.08-4.24l-3.4-10.63A47.76,47.76,0,0,1,0,102V54.23A47.56,47.56,0,0,1,47.51,6.73H78.8a47.56,47.56,0,0,1,47.51,47.5V102A47.56,47.56,0,0,1,78.8,149.53H52.25a8.15,8.15,0,0,1-1.64,1.15l-12.56,6.66A8.81,8.81,0,0,1,34,158.34ZM47.51,10A44.26,44.26,0,0,0,3.3,54.23V102a44.45,44.45,0,0,0,22.18,38.29l.55.32,3.78,11.84A3.59,3.59,0,0,0,32,154.66a5.34,5.34,0,0,0,4.5-.24l12.56-6.66a4.54,4.54,0,0,0,1.27-1l.49-.56h28A44.26,44.26,0,0,0,123,102V54.23A44.26,44.26,0,0,0,78.8,10Z"/><path class="cls-6" d="M126.34,49.16V93.5h-8V53.26a46.53,46.53,0,0,0-11.87-31.38A41.55,41.55,0,0,0,87.69,9.53c-4.21-1.23-8.36-1.32-13-1.31l-26.6,0A47,47,0,0,0,3.62,40.41l-.31-.08C7.5,18.78,26.34,1.48,48.09,1.48H81c21.57,0,40.27,17.3,44.46,38.86A45.7,45.7,0,0,1,126.34,49.16Z"/><path class="cls-3" d="M127.83,95h-11V53.26a45.11,45.11,0,0,0-11.49-30.39A39.88,39.88,0,0,0,87.27,11c-4-1.17-8-1.26-12.58-1.26l-26.6,0A45.49,45.49,0,0,0,5,40.89L4.59,42.2l-3-.78.27-1.37C6.29,17.22,26.17,0,48.09,0H81C102.77,0,122.51,17.22,127,40.05a47.92,47.92,0,0,1,.88,9.11Zm-8-3h5V49.16a45.18,45.18,0,0,0-.82-8.54C119.86,19.16,101.37,3,81,3H48.09C33.86,3,20.53,10.75,12.31,22.69A48.24,48.24,0,0,1,48.09,6.76l26.6,0c4.75,0,9,.1,13.42,1.38a43,43,0,0,1,19.48,12.77,48.08,48.08,0,0,1,12.26,32.38Z"/><rect class="cls-6" x="85.36" y="109.09" width="34.92" height="1.98" transform="translate(-47.72 104.95) rotate(-45)"/><path class="cls-3" d="M91.17,123.83l-2.09-2.1,25.39-25.4,2.1,2.1Zm-.69-2.1.69.7,24-24-.7-.7Z"/><ellipse class="cls-5" cx="123.05" cy="88.07" rx="15.38" ry="22.92"/><path class="cls-3" d="M123.05,112.69c-4.71,0-9.09-2.65-12.33-7.48a31,31,0,0,1-4.79-17.14,31,31,0,0,1,4.79-17.14c3.24-4.82,7.62-7.48,12.33-7.48s9.1,2.66,12.33,7.48a31,31,0,0,1,4.79,17.14,31,31,0,0,1-4.79,17.14C132.15,110,127.77,112.69,123.05,112.69Zm0-45.84c-7.52,0-13.64,9.52-13.64,21.22s6.12,21.23,13.64,21.23,13.65-9.52,13.65-21.23S130.58,66.85,123.05,66.85Z"/><circle class="cls-5" cx="88.48" cy="124.42" r="2.82"/><path class="cls-3" d="M88.48,128.07A3.65,3.65,0,1,1,91.06,127h0A3.63,3.63,0,0,1,88.48,128.07Zm0-5.64a2,2,0,1,0,1.41,3.4h0a2,2,0,0,0,.59-1.41,2,2,0,0,0-2-2Z"/></g></g></svg>