<svg xmlns="http://www.w3.org/2000/svg" viewBox="0 0 228.59 151.46"><defs><style>.cls-1{fill:#0f0140;}</style></defs><g id="Capa_2" data-name="Capa 2"><g id="Capa_1-2" data-name="Capa 1"><path class="cls-1" d="M80.31,28.72a1,1,0,0,1,1.06-1.2,1.11,1.11,0,1,1,.06,2.22A1,1,0,0,1,80.31,28.72Z"/><path class="cls-1" d="M93.49,27.52a1.11,1.11,0,1,0,.09,2.21c.69-.05,1-.47,1-1.17A1,1,0,0,0,93.49,27.52Zm12.13,0a1.12,1.12,0,0,0-.09,2.23,1.1,1.1,0,0,0,1.18-1.13A1.05,1.05,0,0,0,105.62,27.52Zm-12.13,0a1.11,1.11,0,1,0,.09,2.21c.69-.05,1-.47,1-1.17A1,1,0,0,0,93.49,27.52Zm12.13,0a1.12,1.12,0,0,0-.09,2.23,1.1,1.1,0,0,0,1.18-1.13A1.05,1.05,0,0,0,105.62,27.52Zm-12.13,0a1.11,1.11,0,1,0,.09,2.21c.69-.05,1-.47,1-1.17A1,1,0,0,0,93.49,27.52Zm12.13,0a1.12,1.12,0,0,0-.09,2.23,1.1,1.1,0,0,0,1.18-1.13A1.05,1.05,0,0,0,105.62,27.52Zm12,0a1.11,1.11,0,1,0,.07,2.22,1,1,0,0,0,1-1.07A1,1,0,0,0,117.65,27.52Zm12.19,0a1.05,1.05,0,0,0-1.19,1.08,1,1,0,0,0,1.13,1.13,1.06,1.06,0,0,0,1.11-1A1.1,1.1,0,0,0,129.84,27.52Zm-36.35,0a1.11,1.11,0,1,0,.09,2.21c.69-.05,1-.47,1-1.17A1,1,0,0,0,93.49,27.52Zm12.13,0a1.12,1.12,0,0,0-.09,2.23,1.1,1.1,0,0,0,1.18-1.13A1.05,1.05,0,0,0,105.62,27.52Zm12,0a1.11,1.11,0,1,0,.07,2.22,1,1,0,0,0,1-1.07A1,1,0,0,0,117.65,27.52Zm12.19,0a1.05,1.05,0,0,0-1.19,1.08,1,1,0,0,0,1.13,1.13,1.06,1.06,0,0,0,1.11-1A1.1,1.1,0,0,0,129.84,27.52Zm-36.35,0a1.11,1.11,0,1,0,.09,2.21c.69-.05,1-.47,1-1.17A1,1,0,0,0,93.49,27.52Zm12.13,0a1.12,1.12,0,0,0-.09,2.23,1.1,1.1,0,0,0,1.18-1.13A1.05,1.05,0,0,0,105.62,27.52Zm12,0a1.11,1.11,0,1,0,.07,2.22,1,1,0,0,0,1-1.07A1,1,0,0,0,117.65,27.52Zm12.19,0a1.05,1.05,0,0,0-1.19,1.08,1,1,0,0,0,1.13,1.13,1.06,1.06,0,0,0,1.11-1A1.1,1.1,0,0,0,129.84,27.52Zm-36.35,0a1.11,1.11,0,1,0,.09,2.21c.69-.05,1-.47,1-1.17A1,1,0,0,0,93.49,27.52Zm12.13,0a1.12,1.12,0,0,0-.09,2.23,1.1,1.1,0,0,0,1.18-1.13A1.05,1.05,0,0,0,105.62,27.52Zm12,0a1.11,1.11,0,1,0,.07,2.22,1,1,0,0,0,1-1.07A1,1,0,0,0,117.65,27.52Zm12.19,0a1.05,1.05,0,0,0-1.19,1.08,1,1,0,0,0,1.13,1.13,1.06,1.06,0,0,0,1.11-1A1.1,1.1,0,0,0,129.84,27.52Zm-36.35,0a1.11,1.11,0,1,0,.09,2.21c.69-.05,1-.47,1-1.17A1,1,0,0,0,93.49,27.52Zm12.13,0a1.12,1.12,0,0,0-.09,2.23,1.1,1.1,0,0,0,1.18-1.13A1.05,1.05,0,0,0,105.62,27.52Zm12,0a1.11,1.11,0,1,0,.07,2.22,1,1,0,0,0,1-1.07A1,1,0,0,0,117.65,27.52Zm12.19,0a1.05,1.05,0,0,0-1.19,1.08,1,1,0,0,0,1.13,1.13,1.06,1.06,0,0,0,1.11-1A1.1,1.1,0,0,0,129.84,27.52Zm-36.35,0a1.11,1.11,0,1,0,.09,2.21c.69-.05,1-.47,1-1.17A1,1,0,0,0,93.49,27.52Zm12.13,0a1.12,1.12,0,0,0-.09,2.23,1.1,1.1,0,0,0,1.18-1.13A1.05,1.05,0,0,0,105.62,27.52Zm12,0a1.11,1.11,0,1,0,.07,2.22,1,1,0,0,0,1-1.07A1,1,0,0,0,117.65,27.52Zm12.19,0a1.05,1.05,0,0,0-1.19,1.08,1,1,0,0,0,1.13,1.13,1.06,1.06,0,0,0,1.11-1A1.1,1.1,0,0,0,129.84,27.52Zm-36.35,0a1.11,1.11,0,1,0,.09,2.21c.69-.05,1-.47,1-1.17A1,1,0,0,0,93.49,27.52Zm12.13,0a1.12,1.12,0,0,0-.09,2.23,1.1,1.1,0,0,0,1.18-1.13A1.05,1.05,0,0,0,105.62,27.52Zm12,0a1.11,1.11,0,1,0,.07,2.22,1,1,0,0,0,1-1.07A1,1,0,0,0,117.65,27.52Zm12.19,0a1.05,1.05,0,0,0-1.19,1.08,1,1,0,0,0,1.13,1.13,1.06,1.06,0,0,0,1.11-1A1.1,1.1,0,0,0,129.84,27.52Zm-36.35,0a1.11,1.11,0,1,0,.09,2.21c.69-.05,1-.47,1-1.17A1,1,0,0,0,93.49,27.52Zm12.13,0a1.12,1.12,0,0,0-.09,2.23,1.1,1.1,0,0,0,1.18-1.13A1.05,1.05,0,0,0,105.62,27.52Zm12,0a1.11,1.11,0,1,0,.07,2.22,1,1,0,0,0,1-1.07A1,1,0,0,0,117.65,27.52Zm12.19,0a1.05,1.05,0,0,0-1.19,1.08,1,1,0,0,0,1.13,1.13,1.06,1.06,0,0,0,1.11-1A1.1,1.1,0,0,0,129.84,27.52Zm-36.35,0a1.11,1.11,0,1,0,.09,2.21c.69-.05,1-.47,1-1.17A1,1,0,0,0,93.49,27.52Zm12.13,0a1.12,1.12,0,0,0-.09,2.23,1.1,1.1,0,0,0,1.18-1.13A1.05,1.05,0,0,0,105.62,27.52Zm12,0a1.11,1.11,0,1,0,.07,2.22,1,1,0,0,0,1-1.07A1,1,0,0,0,117.65,27.52Zm12.19,0a1.05,1.05,0,0,0-1.19,1.08,1,1,0,0,0,1.13,1.13,1.06,1.06,0,0,0,1.11-1A1.1,1.1,0,0,0,129.84,27.52Zm-36.35,0a1.11,1.11,0,1,0,.09,2.21c.69-.05,1-.47,1-1.17A1,1,0,0,0,93.49,27.52Zm12.13,0a1.12,1.12,0,0,0-.09,2.23,1.1,1.1,0,0,0,1.18-1.13A1.05,1.05,0,0,0,105.62,27.52Zm12,0a1.11,1.11,0,1,0,.07,2.22,1,1,0,0,0,1-1.07A1,1,0,0,0,117.65,27.52Zm12.19,0a1.05,1.05,0,0,0-1.19,1.08,1,1,0,0,0,1.13,1.13,1.06,1.06,0,0,0,1.11-1A1.1,1.1,0,0,0,129.84,27.52Zm-36.35,0a1.11,1.11,0,1,0,.09,2.21c.69-.05,1-.47,1-1.17A1,1,0,0,0,93.49,27.52Zm12.13,0a1.12,1.12,0,0,0-.09,2.23,1.1,1.1,0,0,0,1.18-1.13A1.05,1.05,0,0,0,105.62,27.52Zm12,0a1.11,1.11,0,1,0,.07,2.22,1,1,0,0,0,1-1.07A1,1,0,0,0,117.65,27.52Zm12.19,0a1.05,1.05,0,0,0-1.19,1.08,1,1,0,0,0,1.13,1.13,1.06,1.06,0,0,0,1.11-1A1.1,1.1,0,0,0,129.84,27.52Zm-36.35,0a1.11,1.11,0,1,0,.09,2.21c.69-.05,1-.47,1-1.17A1,1,0,0,0,93.49,27.52Zm12.13,0a1.12,1.12,0,0,0-.09,2.23,1.1,1.1,0,0,0,1.18-1.13A1.05,1.05,0,0,0,105.62,27.52Zm12,0a1.11,1.11,0,1,0,.07,2.22,1,1,0,0,0,1-1.07A1,1,0,0,0,117.65,27.52Zm12.19,0a1.05,1.05,0,0,0-1.19,1.08,1,1,0,0,0,1.13,1.13,1.06,1.06,0,0,0,1.11-1A1.1,1.1,0,0,0,129.84,27.52Zm-36.35,0a1.11,1.11,0,1,0,.09,2.21c.69-.05,1-.47,1-1.17A1,1,0,0,0,93.49,27.52Zm12.13,0a1.12,1.12,0,0,0-.09,2.23,1.1,1.1,0,0,0,1.18-1.13A1.05,1.05,0,0,0,105.62,27.52Zm12,0a1.11,1.11,0,1,0,.07,2.22,1,1,0,0,0,1-1.07A1,1,0,0,0,117.65,27.52Zm12.19,0a1.05,1.05,0,0,0-1.19,1.08,1,1,0,0,0,1.13,1.13,1.06,1.06,0,0,0,1.11-1A1.1,1.1,0,0,0,129.84,27.52Zm-36.35,0a1.11,1.11,0,1,0,.09,2.21c.69-.05,1-.47,1-1.17A1,1,0,0,0,93.49,27.52Zm12.13,0a1.12,1.12,0,0,0-.09,2.23,1.1,1.1,0,0,0,1.18-1.13A1.05,1.05,0,0,0,105.62,27.52Zm12,0a1.11,1.11,0,1,0,.07,2.22,1,1,0,0,0,1-1.07A1,1,0,0,0,117.65,27.52Zm12.19,0a1.05,1.05,0,0,0-1.19,1.08,1,1,0,0,0,1.13,1.13,1.06,1.06,0,0,0,1.11-1A1.1,1.1,0,0,0,129.84,27.52Zm-36.35,0a1.11,1.11,0,1,0,.09,2.21c.69-.05,1-.47,1-1.17A1,1,0,0,0,93.49,27.52Zm12.13,0a1.12,1.12,0,0,0-.09,2.23,1.1,1.1,0,0,0,1.18-1.13A1.05,1.05,0,0,0,105.62,27.52Zm12,0a1.11,1.11,0,1,0,.07,2.22,1,1,0,0,0,1-1.07A1,1,0,0,0,117.65,27.52Zm12.19,0a1.05,1.05,0,0,0-1.19,1.08,1,1,0,0,0,1.13,1.13,1.06,1.06,0,0,0,1.11-1A1.1,1.1,0,0,0,129.84,27.52Zm0,0a1.05,1.05,0,0,0-1.19,1.08,1,1,0,0,0,1.13,1.13,1.06,1.06,0,0,0,1.11-1A1.1,1.1,0,0,0,129.84,27.52Zm-12.19,0a1.11,1.11,0,1,0,.07,2.22,1,1,0,0,0,1-1.07A1,1,0,0,0,117.65,27.52Zm-12,0a1.12,1.12,0,0,0-.09,2.23,1.1,1.1,0,0,0,1.18-1.13A1.05,1.05,0,0,0,105.62,27.52Zm-12.13,0a1.11,1.11,0,1,0,.09,2.21c.69-.05,1-.47,1-1.17A1,1,0,0,0,93.49,27.52Zm36.35,0a1.05,1.05,0,0,0-1.19,1.08,1,1,0,0,0,1.13,1.13,1.06,1.06,0,0,0,1.11-1A1.1,1.1,0,0,0,129.84,27.52Zm-12.19,0a1.11,1.11,0,1,0,.07,2.22,1,1,0,0,0,1-1.07A1,1,0,0,0,117.65,27.52Zm-12,0a1.12,1.12,0,0,0-.09,2.23,1.1,1.1,0,0,0,1.18-1.13A1.05,1.05,0,0,0,105.62,27.52Zm-12.13,0a1.11,1.11,0,1,0,.09,2.21c.69-.05,1-.47,1-1.17A1,1,0,0,0,93.49,27.52Zm36.35,0a1.05,1.05,0,0,0-1.19,1.08,1,1,0,0,0,1.13,1.13,1.06,1.06,0,0,0,1.11-1A1.1,1.1,0,0,0,129.84,27.52Zm-12.19,0a1.11,1.11,0,1,0,.07,2.22,1,1,0,0,0,1-1.07A1,1,0,0,0,117.65,27.52Zm-12,0a1.12,1.12,0,0,0-.09,2.23,1.1,1.1,0,0,0,1.18-1.13A1.05,1.05,0,0,0,105.62,27.52Zm-12.13,0a1.11,1.11,0,1,0,.09,2.21c.69-.05,1-.47,1-1.17A1,1,0,0,0,93.49,27.52Zm36.35,0a1.05,1.05,0,0,0-1.19,1.08,1,1,0,0,0,1.13,1.13,1.06,1.06,0,0,0,1.11-1A1.1,1.1,0,0,0,129.84,27.52Zm-12.19,0a1.11,1.11,0,1,0,.07,2.22,1,1,0,0,0,1-1.07A1,1,0,0,0,117.65,27.52Zm-12,0a1.12,1.12,0,0,0-.09,2.23,1.1,1.1,0,0,0,1.18-1.13A1.05,1.05,0,0,0,105.62,27.52Zm-12.13,0a1.11,1.11,0,1,0,.09,2.21c.69-.05,1-.47,1-1.17A1,1,0,0,0,93.49,27.52Zm36.35,0a1.05,1.05,0,0,0-1.19,1.08,1,1,0,0,0,1.13,1.13,1.06,1.06,0,0,0,1.11-1A1.1,1.1,0,0,0,129.84,27.52Zm-12.19,0a1.11,1.11,0,1,0,.07,2.22,1,1,0,0,0,1-1.07A1,1,0,0,0,117.65,27.52Zm-12,0a1.12,1.12,0,0,0-.09,2.23,1.1,1.1,0,0,0,1.18-1.13A1.05,1.05,0,0,0,105.62,27.52Zm-12.13,0a1.11,1.11,0,1,0,.09,2.21c.69-.05,1-.47,1-1.17A1,1,0,0,0,93.49,27.52Zm36.35,0a1.05,1.05,0,0,0-1.19,1.08,1,1,0,0,0,1.13,1.13,1.06,1.06,0,0,0,1.11-1A1.1,1.1,0,0,0,129.84,27.52Zm-12.19,0a1.11,1.11,0,1,0,.07,2.22,1,1,0,0,0,1-1.07A1,1,0,0,0,117.65,27.52Zm-12,0a1.12,1.12,0,0,0-.09,2.23,1.1,1.1,0,0,0,1.18-1.13A1.05,1.05,0,0,0,105.62,27.52Zm-12.13,0a1.11,1.11,0,1,0,.09,2.21c.69-.05,1-.47,1-1.17A1,1,0,0,0,93.49,27.52Zm36.35,0a1.05,1.05,0,0,0-1.19,1.08,1,1,0,0,0,1.13,1.13,1.06,1.06,0,0,0,1.11-1A1.1,1.1,0,0,0,129.84,27.52Zm-12.19,0a1.11,1.11,0,1,0,.07,2.22,1,1,0,0,0,1-1.07A1,1,0,0,0,117.65,27.52Zm-12,0a1.12,1.12,0,0,0-.09,2.23,1.1,1.1,0,0,0,1.18-1.13A1.05,1.05,0,0,0,105.62,27.52Zm-12.13,0a1.11,1.11,0,1,0,.09,2.21c.69-.05,1-.47,1-1.17A1,1,0,0,0,93.49,27.52Zm36.35,0a1.05,1.05,0,0,0-1.19,1.08,1,1,0,0,0,1.13,1.13,1.06,1.06,0,0,0,1.11-1A1.1,1.1,0,0,0,129.84,27.52Zm-12.19,0a1.11,1.11,0,1,0,.07,2.22,1,1,0,0,0,1-1.07A1,1,0,0,0,117.65,27.52Zm-12,0a1.12,1.12,0,0,0-.09,2.23,1.1,1.1,0,0,0,1.18-1.13A1.05,1.05,0,0,0,105.62,27.52Zm-12.13,0a1.11,1.11,0,1,0,.09,2.21c.69-.05,1-.47,1-1.17A1,1,0,0,0,93.49,27.52Zm36.35,0a1.05,1.05,0,0,0-1.19,1.08,1,1,0,0,0,1.13,1.13,1.06,1.06,0,0,0,1.11-1A1.1,1.1,0,0,0,129.84,27.52Zm-12.19,0a1.11,1.11,0,1,0,.07,2.22,1,1,0,0,0,1-1.07A1,1,0,0,0,117.65,27.52Zm-12,0a1.12,1.12,0,0,0-.09,2.23,1.1,1.1,0,0,0,1.18-1.13A1.05,1.05,0,0,0,105.62,27.52Zm-12.13,0a1.11,1.11,0,1,0,.09,2.21c.69-.05,1-.47,1-1.17A1,1,0,0,0,93.49,27.52Zm36.35,0a1.05,1.05,0,0,0-1.19,1.08,1,1,0,0,0,1.13,1.13,1.06,1.06,0,0,0,1.11-1A1.1,1.1,0,0,0,129.84,27.52Zm-12.19,0a1.11,1.11,0,1,0,.07,2.22,1,1,0,0,0,1-1.07A1,1,0,0,0,117.65,27.52Zm-12,0a1.12,1.12,0,0,0-.09,2.23,1.1,1.1,0,0,0,1.18-1.13A1.05,1.05,0,0,0,105.62,27.52Zm-12.13,0a1.11,1.11,0,1,0,.09,2.21c.69-.05,1-.47,1-1.17A1,1,0,0,0,93.49,27.52Zm36.35,0a1.05,1.05,0,0,0-1.19,1.08,1,1,0,0,0,1.13,1.13,1.06,1.06,0,0,0,1.11-1A1.1,1.1,0,0,0,129.84,27.52Zm-12.19,0a1.11,1.11,0,1,0,.07,2.22,1,1,0,0,0,1-1.07A1,1,0,0,0,117.65,27.52Zm-12,0a1.12,1.12,0,0,0-.09,2.23,1.1,1.1,0,0,0,1.18-1.13A1.05,1.05,0,0,0,105.62,27.52Zm-12.13,0a1.11,1.11,0,1,0,.09,2.21c.69-.05,1-.47,1-1.17A1,1,0,0,0,93.49,27.52Zm36.35,0a1.05,1.05,0,0,0-1.19,1.08,1,1,0,0,0,1.13,1.13,1.06,1.06,0,0,0,1.11-1A1.1,1.1,0,0,0,129.84,27.52Zm-12.19,0a1.11,1.11,0,1,0,.07,2.22,1,1,0,0,0,1-1.07A1,1,0,0,0,117.65,27.52Zm-12,0a1.12,1.12,0,0,0-.09,2.23,1.1,1.1,0,0,0,1.18-1.13A1.05,1.05,0,0,0,105.62,27.52Zm-12.13,0a1.11,1.11,0,1,0,.09,2.21c.69-.05,1-.47,1-1.17A1,1,0,0,0,93.49,27.52Zm36.35,0a1.05,1.05,0,0,0-1.19,1.08,1,1,0,0,0,1.13,1.13,1.06,1.06,0,0,0,1.11-1A1.1,1.1,0,0,0,129.84,27.52Zm-12.19,0a1.11,1.11,0,1,0,.07,2.22,1,1,0,0,0,1-1.07A1,1,0,0,0,117.65,27.52Zm-12,0a1.12,1.12,0,0,0-.09,2.23,1.1,1.1,0,0,0,1.18-1.13A1.05,1.05,0,0,0,105.62,27.52Zm-12.13,0a1.11,1.11,0,1,0,.09,2.21c.69-.05,1-.47,1-1.17A1,1,0,0,0,93.49,27.52Zm36.35,0a1.05,1.05,0,0,0-1.19,1.08,1,1,0,0,0,1.13,1.13,1.06,1.06,0,0,0,1.11-1A1.1,1.1,0,0,0,129.84,27.52Zm-12.19,0a1.11,1.11,0,1,0,.07,2.22,1,1,0,0,0,1-1.07A1,1,0,0,0,117.65,27.52Zm-12,0a1.12,1.12,0,0,0-.09,2.23,1.1,1.1,0,0,0,1.18-1.13A1.05,1.05,0,0,0,105.62,27.52Zm-12.13,0a1.11,1.11,0,1,0,.09,2.21c.69-.05,1-.47,1-1.17A1,1,0,0,0,93.49,27.52Zm24.16,0a1.11,1.11,0,1,0,.07,2.22,1,1,0,0,0,1-1.07A1,1,0,0,0,117.65,27.52Zm-12,0a1.12,1.12,0,0,0-.09,2.23,1.1,1.1,0,0,0,1.18-1.13A1.05,1.05,0,0,0,105.62,27.52Zm-12.13,0a1.11,1.11,0,1,0,.09,2.21c.69-.05,1-.47,1-1.17A1,1,0,0,0,93.49,27.52Zm24.16,0a1.11,1.11,0,1,0,.07,2.22,1,1,0,0,0,1-1.07A1,1,0,0,0,117.65,27.52Zm-12,0a1.12,1.12,0,0,0-.09,2.23,1.1,1.1,0,0,0,1.18-1.13A1.05,1.05,0,0,0,105.62,27.52Zm-12.13,0a1.11,1.11,0,1,0,.09,2.21c.69-.05,1-.47,1-1.17A1,1,0,0,0,93.49,27.52Zm0,0a1.11,1.11,0,1,0,.09,2.21c.69-.05,1-.47,1-1.17A1,1,0,0,0,93.49,27.52Zm0,0a1.11,1.11,0,1,0,.09,2.21c.69-.05,1-.47,1-1.17A1,1,0,0,0,93.49,27.52Z"/><path class="cls-1" d="M152.74,54.32c-.12,3.82-.9,7.43-3.46,10.42-3,3.51-7.08,3.46-10.06-.08A14.46,14.46,0,0,1,136,56.92a17.69,17.69,0,0,1,2.18-11.69,9.47,9.47,0,0,1,2.32-2.65,5.82,5.82,0,0,1,8,.4,14.1,14.1,0,0,1,4,8.71A11,11,0,0,1,152.74,54.32Z"/><path class="cls-1" d="M121.83,76.61A1.16,1.16,0,0,1,123,75.42a1.19,1.19,0,0,1,.06,2.37A1.15,1.15,0,0,1,121.83,76.61Z"/><path class="cls-1" d="M118.77,28.67a1,1,0,0,1-1,1.07,1.11,1.11,0,1,1-.07-2.22A1,1,0,0,1,118.77,28.67Z"/><path class="cls-1" d="M106.71,28.62a1.1,1.1,0,0,1-1.18,1.13,1.12,1.12,0,0,1,.09-2.23A1.05,1.05,0,0,1,106.71,28.62Z"/><path class="cls-1" d="M94.59,28.56c0,.7-.32,1.12-1,1.17a1.11,1.11,0,1,1,1-1.17Z"/><path class="cls-1" d="M82.52,28.65a1,1,0,0,1-1.09,1.09,1,1,0,0,1-1.12-1,1,1,0,0,1,1.06-1.2A1,1,0,0,1,82.52,28.65Z"/><path class="cls-1" d="M130.89,28.7a1.06,1.06,0,0,1-1.11,1,1,1,0,0,1-1.13-1.13,1,1,0,0,1,1.19-1.08A1.1,1.1,0,0,1,130.89,28.7Z"/><path class="cls-1" d="M118.77,28.67a1,1,0,0,1-1,1.07,1.11,1.11,0,1,1-.07-2.22A1,1,0,0,1,118.77,28.67Z"/><path class="cls-1" d="M106.71,28.62a1.1,1.1,0,0,1-1.18,1.13,1.12,1.12,0,0,1,.09-2.23A1.05,1.05,0,0,1,106.71,28.62Z"/><path class="cls-1" d="M94.59,28.56c0,.7-.32,1.12-1,1.17a1.11,1.11,0,1,1,1-1.17Z"/><path class="cls-1" d="M82.52,28.65a1,1,0,0,1-1.09,1.09,1,1,0,0,1-1.12-1,1,1,0,0,1,1.06-1.2A1,1,0,0,1,82.52,28.65Z"/><path class="cls-1" d="M130.89,28.7a1.06,1.06,0,0,1-1.11,1,1,1,0,0,1-1.13-1.13,1,1,0,0,1,1.19-1.08A1.1,1.1,0,0,1,130.89,28.7Z"/><path class="cls-1" d="M85.71,49.05l-.47,0a6.46,6.46,0,0,0-4.63,2.1,9.72,9.72,0,0,0-2.58,6A8.83,8.83,0,0,0,78,58a9.47,9.47,0,0,0,1.61,5.4,6.09,6.09,0,0,0,9.8.81A9.69,9.69,0,0,0,92,58.24C92.37,53.49,89.56,49.37,85.71,49.05Zm-.9,6.8A2.84,2.84,0,1,1,87.65,53,2.84,2.84,0,0,1,84.81,55.85Z"/><path class="cls-1" d="M125.18,56.9a10.68,10.68,0,0,0-.81-3.27A9,9,0,0,0,122.59,51a6.42,6.42,0,0,0-4.62-2.1,3.85,3.85,0,0,0-.48,0c-3.84.31-6.65,4.43-6.27,9.18a9.68,9.68,0,0,0,2.59,6,6.08,6.08,0,0,0,9.79-.8A9.66,9.66,0,0,0,125.18,56.9Zm-6.78-1.23a2.84,2.84,0,1,1,2.84-2.84A2.84,2.84,0,0,1,118.4,55.67Z"/><path class="cls-1" d="M147.32,37.58c0-2.22,0-4.44,0-6.67a29.18,29.18,0,0,0-3.5-14.6C138.11,5.93,129.57,0,117.4,0,111.18,0,105,0,98.75,0A27.23,27.23,0,0,0,81.87,5.6c-9.06,6.77-12.79,16.29-13.19,27.15-.37,10-.12,20-.07,30,0,9.19,3.76,16.69,10.68,22.69,1.22,1.06,3,1.51,3.74,3.08a46.28,46.28,0,0,1,1.58,4.79c.06.2.15.38.19.58A4.81,4.81,0,0,0,91.71,97c2.86-1.37,5.63-2.91,8.4-4.45a3.29,3.29,0,0,1,1.69-.49c5.07,0,10.14.09,15.21,0,10.34-.19,18.39-4.49,24.14-12.72l.4-.57c.26-.4.53-.8.78-1.21a24.8,24.8,0,0,0,2.66-6c6.35-.33,11.42-7.92,11.42-17.23C156.41,46.21,152.54,39.39,147.32,37.58ZM84.77,67.31l-.56,0A7.31,7.31,0,0,1,78.77,64,10.67,10.67,0,0,1,77,57a11.46,11.46,0,0,1,.89-3.61,10,10,0,0,1,2-3A7.32,7.32,0,0,1,85.79,48c4.41.36,7.63,5,7.2,10.28a10.73,10.73,0,0,1-2.86,6.58A7.48,7.48,0,0,1,84.77,67.31ZM80.63,14c0-1.15.54-1.6,1.5-2.1V17c0,2.77,0,5.54,0,8.31a1.1,1.1,0,0,0,.64,1.19,2.39,2.39,0,0,1,1.12,2.78A2.56,2.56,0,1,1,80,26.5a1.16,1.16,0,0,0,.64-1.2C80.65,21.52,80.72,17.73,80.63,14Zm8.71,24.38a2.92,2.92,0,0,1,.53.46c.21.22.45.45.31.79s-.86.36-1.23.37a14.59,14.59,0,0,0-2.88,0,5.21,5.21,0,0,0-2.72,2c-.45.53-.92,1.11-1.68.61a1.48,1.48,0,0,1-.4-2C82.38,38,87.06,36.69,89.34,38.33Zm3.41-13c0-5.68,0-11.36,0-17,0-.43-.2-1,.58-1,.61-.07.88,0,.87.73,0,2.94,0,5.87,0,8.81s0,5.61,0,8.42a1.28,1.28,0,0,0,.71,1.35A2.55,2.55,0,1,1,91,29.34a2.38,2.38,0,0,1,1.15-2.85C92.78,26.17,92.75,25.78,92.75,25.28ZM104.87,7.69c0-.55,0-.93.76-.92s.68.4.68.88v8.93c0,2.9,0,5.81,0,8.71,0,.53,0,.89.62,1.2a2.42,2.42,0,0,1,1.14,2.87,2.57,2.57,0,1,1-3.86-2.86,1.2,1.2,0,0,0,.69-1.27C104.87,19.38,104.88,13.53,104.87,7.69Zm-.54,63.19c1.57,0,2.18,1,1.57,2.42-1.1,2.58-3.13,4-5.57,3.9-2.72-.12-4.64-2.76-5.09-4.68-.2-.88.56-1.61,1.61-1.63,1.28,0,2.56,0,3.84,0Zm40.37-1.57h-.3a1.54,1.54,0,0,0-.37,0,.9.9,0,0,0-.51.3,2.76,2.76,0,0,0-.47,1,27,27,0,0,1-25,19.3c-5.34.16-10.68,0-16,0a5.52,5.52,0,0,0-3.27.84,79,79,0,0,1-7.91,4.26c-2.14,1.06-4.09-.19-4.2-2.61a4.58,4.58,0,0,0,3.59-.56c1-.6,2.13-1.15,3.21-1.72,1.67-.89,3.27-2.13,5-2.57s3.83-.08,5.76-.11c4.22-.07,8.45.25,12.66-.17a26.77,26.77,0,0,0,22.35-18.88.91.91,0,0,0-.32-1.13,8.63,8.63,0,0,1-2.15-2.4c-.41-.72-.68-.56-1.15-.08q-4.95,5-10,10a1.4,1.4,0,0,0-.51,1.47,2.13,2.13,0,0,1-1.27,2.4,2.31,2.31,0,0,1-2.6-.53,2.25,2.25,0,0,1-.33-2.63,2.15,2.15,0,0,1,2.48-1.11,1,1,0,0,0,1.14-.32q5.26-5.28,10.55-10.53a.91.91,0,0,0,.24-1.2,20.4,20.4,0,0,1-.86-13.77c1-3.79,2.9-7.06,6.68-8.8.43-.2.35-.52.35-.84,0-1.76,0-3.52,0-5.27a29.19,29.19,0,0,0-9.23-21.93c-4.64-4.42-10.06-7-16.63-7-6,.06-11.9,0-17.85,0A29.52,29.52,0,0,0,80.81,10.2c-1,.7-2,1.49-3,2.29,0-.14,0-.2.07-.23,5.34-6.41,12-10.13,20.49-10.21,6.76-.07,13.52,0,20.28,0a24.84,24.84,0,0,1,2.73.16C134.2,3.87,143.67,15.11,145.08,27c.33,2.78.14,12.34.14,12.34a7,7,0,0,1,1,.2h0a10.06,10.06,0,0,1,5.51,4.3,19.05,19.05,0,0,1,2.94,10.54,19,19,0,0,1-2.94,10.53,14.34,14.34,0,0,1-1.28,1.63A10.89,10.89,0,0,1,149,67.81a9,9,0,0,1-1.55.93,4.53,4.53,0,0,1-1,.29c-.32.08-.64.15-1,.2A6,6,0,0,1,144.7,69.31ZM116.93,16.52c0-2.94,0-5.88,0-8.82,0-.35-.28-.91.54-.89.67,0,.93.2.93.93,0,5.75,0,11.49,0,17.23a1.52,1.52,0,0,0,.8,1.62,2.38,2.38,0,0,1,.93,2.86,2.58,2.58,0,0,1-4.88,0,2.35,2.35,0,0,1,1-2.83,1.36,1.36,0,0,0,.74-1.44C116.92,22.26,116.93,19.39,116.93,16.52Zm5,23.9a2,2,0,0,1,.2.93,1.2,1.2,0,0,1-.7,1.27,1.11,1.11,0,0,1-1.39-.53,5.42,5.42,0,0,0-2.3-1.94,4.28,4.28,0,0,0-1.45-.31c-.66,0-1.35.1-2,.12-.43,0-1.06.07-1.2-.46s.6-1.06,1.13-1.37C116.54,36.79,120.79,38.07,122,40.42Zm-4.57,7.43a7.39,7.39,0,0,1,5.91,2.39,11.11,11.11,0,0,1,1.12,13.54A7.39,7.39,0,0,1,119,67.1l-.56,0a7.41,7.41,0,0,1-5.35-2.41,10.69,10.69,0,0,1-2.87-6.58C109.78,52.83,113,48.22,117.41,47.85ZM129,11.65A2.32,2.32,0,0,1,130.49,14c-.09,3.77,0,7.55,0,11.33a1,1,0,0,0,.59,1.1,2.47,2.47,0,0,1,1.2,2.94,2.6,2.6,0,0,1-5-.08,2.46,2.46,0,0,1,1.2-2.85,1,1,0,0,0,.58-1.11C129,20.82,129,16.3,129,11.65Z"/><path class="cls-1" d="M141.55,78.77l-.39.58h0Z"/><path class="cls-1" d="M10,143.05a27.76,27.76,0,0,1-4.25-.35,13.3,13.3,0,0,1-4-1.26,2.93,2.93,0,0,1-1.39-1.2A2.65,2.65,0,0,1,0,138.73a2.42,2.42,0,0,1,.49-1.37,2.24,2.24,0,0,1,1.18-.81,2.44,2.44,0,0,1,1.63.17,19.08,19.08,0,0,0,3.57,1.13,15.82,15.82,0,0,0,3.14.33,5.18,5.18,0,0,0,2.93-.66,2,2,0,0,0,1-1.7,1.55,1.55,0,0,0-.62-1.34,4.64,4.64,0,0,0-1.79-.69l-5-.9A8.34,8.34,0,0,1,2,130.72a5.7,5.7,0,0,1-1.58-4.16,6.53,6.53,0,0,1,1.32-4.11,8.45,8.45,0,0,1,3.66-2.62,14.54,14.54,0,0,1,5.32-.92,18.17,18.17,0,0,1,3.9.38,13.22,13.22,0,0,1,3.47,1.27,2.31,2.31,0,0,1,1.2,1.09,2.26,2.26,0,0,1,.22,1.46,3.17,3.17,0,0,1-.59,1.35,2.26,2.26,0,0,1-1.18.8,2.61,2.61,0,0,1-1.73-.21,19.23,19.23,0,0,0-2.79-.92,9.82,9.82,0,0,0-2.36-.31,5.73,5.73,0,0,0-3.14.66,2,2,0,0,0-1,1.7,1.78,1.78,0,0,0,.57,1.35,3.12,3.12,0,0,0,1.7.73l5,.85a8.92,8.92,0,0,1,4.63,2.11,5.44,5.44,0,0,1,1.6,4.13A6.56,6.56,0,0,1,17.46,141,12.61,12.61,0,0,1,10,143.05Z"/><path class="cls-1" d="M32.7,143.05c-2.81,0-4.9-.77-6.29-2.31s-2.07-3.86-2.07-7V112.48a3.55,3.55,0,0,1,.94-2.69,3.62,3.62,0,0,1,2.6-.9,3.69,3.69,0,0,1,2.67.9,3.62,3.62,0,0,1,.92,2.69v21a4.21,4.21,0,0,0,.83,2.86,2.81,2.81,0,0,0,2.19.92,5.87,5.87,0,0,0,.74,0l.68-.09a1,1,0,0,1,1.06.49,5.05,5.05,0,0,1,.31,2.2,3.45,3.45,0,0,1-.57,2.12,2.56,2.56,0,0,1-1.74.95l-1,.09C33.52,143,33.11,143.05,32.7,143.05Z"/><path class="cls-1" d="M61.05,132.07a1.64,1.64,0,0,0,.56-1.35,15.07,15.07,0,0,0-.75-4.89,10.23,10.23,0,0,0-2.22-3.73,10,10,0,0,0-3.48-2.36,11.83,11.83,0,0,0-4.6-.83,12,12,0,0,0-6.1,1.56,11.45,11.45,0,0,0-4.23,4.23A12.36,12.36,0,0,0,38.7,131a12.6,12.6,0,0,0,1.58,6.44,10.54,10.54,0,0,0,4.54,4.19,15.82,15.82,0,0,0,7.06,1.46,19.72,19.72,0,0,0,3.87-.4,12.11,12.11,0,0,0,3.69-1.35,3.15,3.15,0,0,0,1.35-1.3,3.09,3.09,0,0,0,.35-1.58,2.32,2.32,0,0,0-1.84-2.17,3,3,0,0,0-1.94.33,12.05,12.05,0,0,1-2.76.9,14.24,14.24,0,0,1-2.58.28,6.69,6.69,0,0,1-5-1.7,6.18,6.18,0,0,1-1.55-3.54H59.39A2.63,2.63,0,0,0,61.05,132.07Zm-15.59-3.24a7.89,7.89,0,0,1,.56-2.1,5.1,5.1,0,0,1,1.89-2.34,5.29,5.29,0,0,1,3-.8,4.79,4.79,0,0,1,2.62.68,4.37,4.37,0,0,1,1.63,2,7.57,7.57,0,0,1,.55,2.57Z"/><path class="cls-1" d="M87,132.07a1.62,1.62,0,0,0,.57-1.35,14.8,14.8,0,0,0-.76-4.89,10,10,0,0,0-2.22-3.73,9.82,9.82,0,0,0-3.47-2.36,11.83,11.83,0,0,0-4.6-.83,12,12,0,0,0-6.1,1.56,11.37,11.37,0,0,0-4.23,4.23A12.36,12.36,0,0,0,64.64,131a12.5,12.5,0,0,0,1.58,6.44,10.48,10.48,0,0,0,4.54,4.19,15.79,15.79,0,0,0,7.06,1.46,19.72,19.72,0,0,0,3.87-.4,12.21,12.21,0,0,0,3.69-1.35,3.07,3.07,0,0,0,1.34-1.3,3,3,0,0,0,.36-1.58,2.32,2.32,0,0,0-1.85-2.17,3,3,0,0,0-1.93.33,12.13,12.13,0,0,1-2.77.9,14.14,14.14,0,0,1-2.57.28,6.7,6.7,0,0,1-5-1.7,6.17,6.17,0,0,1-1.54-3.54H85.33A2.6,2.6,0,0,0,87,132.07ZM71.4,128.83a7.89,7.89,0,0,1,.56-2.1,5.1,5.1,0,0,1,1.89-2.34,5.29,5.29,0,0,1,3-.8,4.79,4.79,0,0,1,2.62.68,4.37,4.37,0,0,1,1.63,2,7.57,7.57,0,0,1,.55,2.57Z"/><path class="cls-1" d="M113.75,140.55a2.48,2.48,0,0,1-1,1.75,3.48,3.48,0,0,1-2.15.66,5,5,0,0,1-2.58-.59,7.93,7.93,0,0,1-2-1.82l-7.13-8h-.1v6.81c0,2.39-1.19,3.59-3.59,3.59a3.24,3.24,0,0,1-3.54-3.59V112.48a3.55,3.55,0,0,1,.94-2.69,3.57,3.57,0,0,1,6.19,2.69V129h.1l6.85-7.61a10.38,10.38,0,0,1,1.89-1.82A4.09,4.09,0,0,1,110,119a3.11,3.11,0,0,1,2.27.76,2.59,2.59,0,0,1,.78,1.82,3.36,3.36,0,0,1-.92,2.19l-6,6.67,6.84,7.89A3,3,0,0,1,113.75,140.55Z"/><path class="cls-1" d="M134.65,121.79a3.31,3.31,0,0,1-.63,2.27,3.38,3.38,0,0,1-2.29,1l-1.09.09a6.16,6.16,0,0,0-4,1.56,5.23,5.23,0,0,0-1.3,3.83v8.79a3.69,3.69,0,0,1-.9,2.67,3.62,3.62,0,0,1-2.69.92A3.78,3.78,0,0,1,119,142a3.58,3.58,0,0,1-1-2.67V122.59a3.65,3.65,0,0,1,.92-2.67,3.58,3.58,0,0,1,2.63-.92,3.42,3.42,0,0,1,2.55.92,3.73,3.73,0,0,1,.89,2.67v.8a6.59,6.59,0,0,1,2-2.73,8.77,8.77,0,0,1,5.08-1.75,2,2,0,0,1,1.77.59A3.61,3.61,0,0,1,134.65,121.79Z"/><path class="cls-1" d="M158.32,132.07a1.62,1.62,0,0,0,.57-1.35,15.07,15.07,0,0,0-.75-4.89,10.23,10.23,0,0,0-2.22-3.73,10,10,0,0,0-3.48-2.36,11.83,11.83,0,0,0-4.6-.83,12,12,0,0,0-6.1,1.56,11.45,11.45,0,0,0-4.23,4.23A12.36,12.36,0,0,0,136,131a12.5,12.5,0,0,0,1.58,6.44,10.48,10.48,0,0,0,4.54,4.19,15.79,15.79,0,0,0,7.06,1.46,19.72,19.72,0,0,0,3.87-.4,12.11,12.11,0,0,0,3.69-1.35,3.07,3.07,0,0,0,1.34-1.3,3,3,0,0,0,.36-1.58,2.31,2.31,0,0,0-.54-1.39,2.33,2.33,0,0,0-1.3-.78,3,3,0,0,0-1.94.33,12.05,12.05,0,0,1-2.76.9,14.33,14.33,0,0,1-2.58.28,6.7,6.7,0,0,1-5-1.7,6.17,6.17,0,0,1-1.54-3.54h13.92A2.6,2.6,0,0,0,158.32,132.07Zm-15.58-3.24a7.89,7.89,0,0,1,.56-2.1,5.1,5.1,0,0,1,1.89-2.34,5.29,5.29,0,0,1,3-.8,4.79,4.79,0,0,1,2.62.68,4.37,4.37,0,0,1,1.63,2,7.57,7.57,0,0,1,.55,2.57Z"/><path class="cls-1" d="M186.27,124.53a9.53,9.53,0,0,0-3.57-4.16,9.81,9.81,0,0,0-5.34-1.46,8.92,8.92,0,0,0-4.93,1.37,6.6,6.6,0,0,0-2.34,2.45v-.14a3.65,3.65,0,0,0-.92-2.67,4.13,4.13,0,0,0-5.2,0,3.65,3.65,0,0,0-.92,2.67v25.28a3.54,3.54,0,0,0,.94,2.69,4.31,4.31,0,0,0,5.27,0,3.57,3.57,0,0,0,.92-2.69v-8.45a6.66,6.66,0,0,0,2.32,2.31,9,9,0,0,0,4.86,1.32,9.74,9.74,0,0,0,5.34-1.44,9.59,9.59,0,0,0,3.55-4.18,17.14,17.14,0,0,0,0-12.9Zm-6.57,10.25a4.71,4.71,0,0,1-1.79,2.25,4.89,4.89,0,0,1-2.67.73,4.65,4.65,0,0,1-3.69-1.65c-.94-1.11-1.41-2.82-1.41-5.15a9.85,9.85,0,0,1,.63-3.78,4.61,4.61,0,0,1,1.8-2.22,4.94,4.94,0,0,1,2.67-.71,4.63,4.63,0,0,1,3.68,1.63c1,1.08,1.42,2.78,1.42,5.08A9.76,9.76,0,0,1,179.7,134.78Z"/><path class="cls-1" d="M200.23,143.05c-2.8,0-4.9-.77-6.28-2.31s-2.08-3.86-2.08-7V112.48a3.55,3.55,0,0,1,.94-2.69,3.57,3.57,0,0,1,6.19,2.69v21a4.21,4.21,0,0,0,.83,2.86,2.82,2.82,0,0,0,2.2.92,5.84,5.84,0,0,0,.73,0l.68-.09a1,1,0,0,1,1.07.49,5.26,5.26,0,0,1,.3,2.2,3.52,3.52,0,0,1-.56,2.12,2.58,2.58,0,0,1-1.75.95l-1,.09C201.05,143,200.64,143.05,200.23,143.05Z"/><path class="cls-1" d="M228.15,123.59l-11.1,25.18a4.72,4.72,0,0,1-1.58,2.15,4.15,4.15,0,0,1-2.2.54,3,3,0,0,1-2-.64,2.76,2.76,0,0,1-1-1.7,3.67,3.67,0,0,1,.38-2.24l2.52-5.54-7.72-17.71a4.36,4.36,0,0,1-.28-2.29,2.64,2.64,0,0,1,1-1.7,3.93,3.93,0,0,1,2.41-.64,3.49,3.49,0,0,1,2.1.57,4.61,4.61,0,0,1,1.35,2.31L217,134.14l5-12.35a5,5,0,0,1,1.49-2.2,3.83,3.83,0,0,1,2.25-.59,2.87,2.87,0,0,1,2,.64,2.74,2.74,0,0,1,.89,1.68A3.92,3.92,0,0,1,228.15,123.59Z"/></g></g></svg>