<svg xmlns="http://www.w3.org/2000/svg" viewBox="0 0 374.34 108.09"><defs><style>.cls-1{fill:#0f0140;}</style></defs><g id="Capa_2" data-name="Capa 2"><g id="Capa_1-2" data-name="Capa 1"><path class="cls-1" d="M132,74a30.1,30.1,0,0,1-4.71-.39,14.56,14.56,0,0,1-4.4-1.39,3.25,3.25,0,0,1-1.55-1.34,3,3,0,0,1-.39-1.67,2.7,2.7,0,0,1,.55-1.52,2.46,2.46,0,0,1,1.31-.89,2.66,2.66,0,0,1,1.81.18,20.74,20.74,0,0,0,4,1.26,17.77,17.77,0,0,0,3.48.37,5.72,5.72,0,0,0,3.25-.74A2.21,2.21,0,0,0,136.37,66a1.74,1.74,0,0,0-.68-1.49,5,5,0,0,0-2-.76l-5.56-1a9.18,9.18,0,0,1-4.94-2.41,6.23,6.23,0,0,1-1.76-4.61,7.16,7.16,0,0,1,1.47-4.55A9.25,9.25,0,0,1,127,48.22a16,16,0,0,1,5.89-1,20.69,20.69,0,0,1,4.32.42A15,15,0,0,1,141,49a2.56,2.56,0,0,1,1.57,2.83,3.53,3.53,0,0,1-.66,1.49,2.4,2.4,0,0,1-1.31.89,2.84,2.84,0,0,1-1.91-.23,20.19,20.19,0,0,0-3.09-1,11,11,0,0,0-2.62-.34,6.35,6.35,0,0,0-3.48.73,2.22,2.22,0,0,0-1.07,1.88,2,2,0,0,0,.63,1.5,3.49,3.49,0,0,0,1.88.81l5.55.94a10,10,0,0,1,5.14,2.33,6.07,6.07,0,0,1,1.78,4.58,7.28,7.28,0,0,1-3.12,6.31A14,14,0,0,1,132,74Z"/><path class="cls-1" d="M157.21,74c-3.11,0-5.43-.85-7-2.57s-2.3-4.27-2.3-7.69V40.08a3.94,3.94,0,0,1,1.05-3,4,4,0,0,1,2.88-1,4.1,4.1,0,0,1,3,1,4,4,0,0,1,1,3v23.3a4.65,4.65,0,0,0,.91,3.17,3.13,3.13,0,0,0,2.44,1,7,7,0,0,0,.81,0l.76-.11A1.16,1.16,0,0,1,162,68a5.87,5.87,0,0,1,.34,2.44,3.87,3.87,0,0,1-.63,2.36,2.87,2.87,0,0,1-1.94,1c-.31,0-.7.07-1.15.11S157.66,74,157.21,74Z"/><path class="cls-1" d="M188.63,61.78a1.78,1.78,0,0,0,.63-1.49,16.57,16.57,0,0,0-.84-5.42A11.17,11.17,0,0,0,186,50.74a11,11,0,0,0-3.85-2.62A13.38,13.38,0,0,0,177,47.2a13.25,13.25,0,0,0-6.75,1.73,12.5,12.5,0,0,0-4.69,4.69,13.69,13.69,0,0,0-1.7,6.93,14,14,0,0,0,1.75,7.15,11.66,11.66,0,0,0,5,4.64A17.47,17.47,0,0,0,178.47,74a22.82,22.82,0,0,0,4.3-.44,13.52,13.52,0,0,0,4.08-1.5,3.46,3.46,0,0,0,1.49-1.44,3.25,3.25,0,0,0,.39-1.75,2.55,2.55,0,0,0-.6-1.55,2.62,2.62,0,0,0-1.44-.86,3.35,3.35,0,0,0-2.15.37,13.51,13.51,0,0,1-3.06,1,15,15,0,0,1-2.85.32q-3.72,0-5.55-1.89a6.75,6.75,0,0,1-1.71-3.93H186.8A2.85,2.85,0,0,0,188.63,61.78ZM171.35,58.2a8.93,8.93,0,0,1,.63-2.33,5.63,5.63,0,0,1,2.09-2.6,5.94,5.94,0,0,1,3.3-.89,5.34,5.34,0,0,1,2.91.76,4.88,4.88,0,0,1,1.8,2.2,8.22,8.22,0,0,1,.61,2.86Z"/><path class="cls-1" d="M217.38,61.78a1.78,1.78,0,0,0,.63-1.49,16.57,16.57,0,0,0-.84-5.42,11.17,11.17,0,0,0-2.46-4.13,11,11,0,0,0-3.85-2.62,14.29,14.29,0,0,0-11.86.81,12.5,12.5,0,0,0-4.69,4.69,13.69,13.69,0,0,0-1.7,6.93,14,14,0,0,0,1.75,7.15,11.66,11.66,0,0,0,5,4.64A17.47,17.47,0,0,0,207.22,74a22.64,22.64,0,0,0,4.29-.44A13.49,13.49,0,0,0,215.6,72a3.46,3.46,0,0,0,1.49-1.44,3.25,3.25,0,0,0,.39-1.75,2.55,2.55,0,0,0-.6-1.55,2.62,2.62,0,0,0-1.44-.86,3.32,3.32,0,0,0-2.14.37,13.59,13.59,0,0,1-3.07,1,14.86,14.86,0,0,1-2.85.32q-3.72,0-5.55-1.89a6.75,6.75,0,0,1-1.71-3.93h15.43A2.85,2.85,0,0,0,217.38,61.78ZM200.1,58.2a8.93,8.93,0,0,1,.63-2.33,5.63,5.63,0,0,1,2.09-2.6,5.94,5.94,0,0,1,3.3-.89,5.34,5.34,0,0,1,2.91.76,4.82,4.82,0,0,1,1.8,2.2,8.22,8.22,0,0,1,.61,2.86Z"/><path class="cls-1" d="M247.05,71.19a2.72,2.72,0,0,1-1.1,1.93,3.85,3.85,0,0,1-2.39.74,5.39,5.39,0,0,1-2.85-.66,8.82,8.82,0,0,1-2.17-2l-7.91-8.85h-.11v7.53c0,2.66-1.32,4-4,4a3.6,3.6,0,0,1-3.92-4V40.08a3.94,3.94,0,0,1,1-3,4,4,0,0,1,2.88-1,4.09,4.09,0,0,1,3,1,4,4,0,0,1,1,3V58.41h.11L238.22,50a11.62,11.62,0,0,1,2.1-2,4.51,4.51,0,0,1,2.62-.66,3.46,3.46,0,0,1,2.51.84,2.85,2.85,0,0,1,.86,2,3.68,3.68,0,0,1-1,2.43L238.6,60l7.58,8.74A3.39,3.39,0,0,1,247.05,71.19Z"/><path class="cls-1" d="M269.51,52.91A3.66,3.66,0,0,1,267,54.06l-1.2.1a6.93,6.93,0,0,0-4.43,1.73,5.82,5.82,0,0,0-1.44,4.24v9.74a4.07,4.07,0,0,1-1,3,4,4,0,0,1-3,1,4.12,4.12,0,0,1-3-1,3.93,3.93,0,0,1-1-3V51.28a4,4,0,0,1,1-3,3.94,3.94,0,0,1,2.91-1,3.75,3.75,0,0,1,2.82,1,4,4,0,0,1,1,3v.89a7.21,7.21,0,0,1,2.22-3,9.79,9.79,0,0,1,5.63-1.94,2.27,2.27,0,0,1,2,.66,4,4,0,0,1,.81,2.53A3.71,3.71,0,0,1,269.51,52.91Z"/><path class="cls-1" d="M296.46,61.78a1.78,1.78,0,0,0,.62-1.49,16.57,16.57,0,0,0-.83-5.42,10.94,10.94,0,0,0-6.31-6.75,13.38,13.38,0,0,0-5.11-.92,13.25,13.25,0,0,0-6.75,1.73,12.5,12.5,0,0,0-4.69,4.69,13.59,13.59,0,0,0-1.7,6.93,14,14,0,0,0,1.75,7.15,11.66,11.66,0,0,0,5,4.64A17.47,17.47,0,0,0,286.3,74a22.64,22.64,0,0,0,4.29-.44,13.59,13.59,0,0,0,4.09-1.5,3.52,3.52,0,0,0,1.49-1.44,3.44,3.44,0,0,0,.39-1.75,2.56,2.56,0,0,0-2-2.41,3.35,3.35,0,0,0-2.15.37,13.68,13.68,0,0,1-3.06,1,15,15,0,0,1-2.86.32c-2.48,0-4.32-.63-5.55-1.89a6.8,6.8,0,0,1-1.7-3.93h15.42A2.88,2.88,0,0,0,296.46,61.78ZM279.18,58.2a8.93,8.93,0,0,1,.62-2.33,5.71,5.71,0,0,1,2.1-2.6,5.91,5.91,0,0,1,3.3-.89,5.28,5.28,0,0,1,2.9.76,4.84,4.84,0,0,1,1.81,2.2,8.22,8.22,0,0,1,.61,2.86Z"/><path class="cls-1" d="M327.43,53.43a10.58,10.58,0,0,0-3.95-4.61,10.86,10.86,0,0,0-5.92-1.62,10,10,0,0,0-5.47,1.52,7.36,7.36,0,0,0-2.59,2.71v-.15a4,4,0,0,0-1-3,3.86,3.86,0,0,0-2.85-1,3.94,3.94,0,0,0-2.91,1,4,4,0,0,0-1,3v28a3.94,3.94,0,0,0,1.05,3,4,4,0,0,0,2.88,1,4.09,4.09,0,0,0,3-1,4,4,0,0,0,1-3V69.94a7.38,7.38,0,0,0,2.57,2.55A10,10,0,0,0,317.56,74a10.28,10.28,0,0,0,9.85-6.23,16.94,16.94,0,0,0,1.41-7.18A16.72,16.72,0,0,0,327.43,53.43ZM320.15,64.8a5.21,5.21,0,0,1-2,2.48,5.41,5.41,0,0,1-3,.82,5.14,5.14,0,0,1-4.08-1.84q-1.58-1.83-1.57-5.71a10.8,10.8,0,0,1,.7-4.18,5.2,5.2,0,0,1,2-2.47,5.62,5.62,0,0,1,3-.78,5.18,5.18,0,0,1,4.09,1.8q1.57,1.81,1.57,5.63A11,11,0,0,1,320.15,64.8Z"/><path class="cls-1" d="M342.91,74c-3.11,0-5.43-.85-7-2.57s-2.3-4.27-2.3-7.69V40.08a4,4,0,0,1,1-3,4,4,0,0,1,2.88-1,4.07,4.07,0,0,1,3,1,4,4,0,0,1,1,3v23.3a4.65,4.65,0,0,0,.92,3.17,3.11,3.11,0,0,0,2.44,1,7.19,7.19,0,0,0,.81,0l.76-.11a1.16,1.16,0,0,1,1.18.55A5.87,5.87,0,0,1,348,70.4a3.87,3.87,0,0,1-.63,2.36,2.87,2.87,0,0,1-1.94,1c-.31,0-.7.07-1.15.11S343.36,74,342.91,74Z"/><path class="cls-1" d="M373.86,52.38,361.55,80.3a5.21,5.21,0,0,1-1.75,2.38,4.57,4.57,0,0,1-2.44.6,3.34,3.34,0,0,1-2.25-.71,3.08,3.08,0,0,1-1.05-1.88,4.06,4.06,0,0,1,.42-2.49l2.8-6.13-8.56-19.63a4.82,4.82,0,0,1-.32-2.54A2.91,2.91,0,0,1,349.56,48a4.39,4.39,0,0,1,2.67-.71,3.88,3.88,0,0,1,2.33.63,5.16,5.16,0,0,1,1.49,2.57l5.43,13.58L367,50.39A5.41,5.41,0,0,1,368.65,48a4.15,4.15,0,0,1,2.48-.66,3.21,3.21,0,0,1,2.18.71,3,3,0,0,1,1,1.86A4.41,4.41,0,0,1,373.86,52.38Z"/><path class="cls-1" d="M13.12,31.83a1.14,1.14,0,0,1,1.17-1.33A1.24,1.24,0,1,1,14.35,33,1.13,1.13,0,0,1,13.12,31.83Z"/><path class="cls-1" d="M27.72,30.5a1.17,1.17,0,0,0-1.24,1.28A1.15,1.15,0,0,0,27.82,33c.77-.05,1.1-.52,1.12-1.29A1.16,1.16,0,0,0,27.72,30.5Zm13.45,0a1.16,1.16,0,0,0-1.26,1.26A1.14,1.14,0,0,0,41.07,33a1.19,1.19,0,0,0,1.3-1.25A1.16,1.16,0,0,0,41.17,30.5Zm-13.45,0a1.17,1.17,0,0,0-1.24,1.28A1.15,1.15,0,0,0,27.82,33c.77-.05,1.1-.52,1.12-1.29A1.16,1.16,0,0,0,27.72,30.5Zm13.45,0a1.16,1.16,0,0,0-1.26,1.26A1.14,1.14,0,0,0,41.07,33a1.19,1.19,0,0,0,1.3-1.25A1.16,1.16,0,0,0,41.17,30.5Zm-13.45,0a1.17,1.17,0,0,0-1.24,1.28A1.15,1.15,0,0,0,27.82,33c.77-.05,1.1-.52,1.12-1.29A1.16,1.16,0,0,0,27.72,30.5Zm13.45,0a1.16,1.16,0,0,0-1.26,1.26A1.14,1.14,0,0,0,41.07,33a1.19,1.19,0,0,0,1.3-1.25A1.16,1.16,0,0,0,41.17,30.5Zm13.34,0A1.24,1.24,0,1,0,54.58,33a1.13,1.13,0,0,0,1.17-1.19A1.16,1.16,0,0,0,54.51,30.5ZM68,30.5a1.16,1.16,0,0,0-1.32,1.2,1.24,1.24,0,0,0,2.47.12A1.21,1.21,0,0,0,68,30.5Zm-40.3,0a1.17,1.17,0,0,0-1.24,1.28A1.15,1.15,0,0,0,27.82,33c.77-.05,1.1-.52,1.12-1.29A1.16,1.16,0,0,0,27.72,30.5Zm13.45,0a1.16,1.16,0,0,0-1.26,1.26A1.14,1.14,0,0,0,41.07,33a1.19,1.19,0,0,0,1.3-1.25A1.16,1.16,0,0,0,41.17,30.5Zm13.34,0A1.24,1.24,0,1,0,54.58,33a1.13,1.13,0,0,0,1.17-1.19A1.16,1.16,0,0,0,54.51,30.5ZM68,30.5a1.16,1.16,0,0,0-1.32,1.2,1.24,1.24,0,0,0,2.47.12A1.21,1.21,0,0,0,68,30.5Zm-40.3,0a1.17,1.17,0,0,0-1.24,1.28A1.15,1.15,0,0,0,27.82,33c.77-.05,1.1-.52,1.12-1.29A1.16,1.16,0,0,0,27.72,30.5Zm13.45,0a1.16,1.16,0,0,0-1.26,1.26A1.14,1.14,0,0,0,41.07,33a1.19,1.19,0,0,0,1.3-1.25A1.16,1.16,0,0,0,41.17,30.5Zm13.34,0A1.24,1.24,0,1,0,54.58,33a1.13,1.13,0,0,0,1.17-1.19A1.16,1.16,0,0,0,54.51,30.5ZM68,30.5a1.16,1.16,0,0,0-1.32,1.2,1.24,1.24,0,0,0,2.47.12A1.21,1.21,0,0,0,68,30.5Zm-40.3,0a1.17,1.17,0,0,0-1.24,1.28A1.15,1.15,0,0,0,27.82,33c.77-.05,1.1-.52,1.12-1.29A1.16,1.16,0,0,0,27.72,30.5Zm13.45,0a1.16,1.16,0,0,0-1.26,1.26A1.14,1.14,0,0,0,41.07,33a1.19,1.19,0,0,0,1.3-1.25A1.16,1.16,0,0,0,41.17,30.5Zm13.34,0A1.24,1.24,0,1,0,54.58,33a1.13,1.13,0,0,0,1.17-1.19A1.16,1.16,0,0,0,54.51,30.5ZM68,30.5a1.16,1.16,0,0,0-1.32,1.2,1.24,1.24,0,0,0,2.47.12A1.21,1.21,0,0,0,68,30.5Zm-40.3,0a1.17,1.17,0,0,0-1.24,1.28A1.15,1.15,0,0,0,27.82,33c.77-.05,1.1-.52,1.12-1.29A1.16,1.16,0,0,0,27.72,30.5Zm13.45,0a1.16,1.16,0,0,0-1.26,1.26A1.14,1.14,0,0,0,41.07,33a1.19,1.19,0,0,0,1.3-1.25A1.16,1.16,0,0,0,41.17,30.5Zm13.34,0A1.24,1.24,0,1,0,54.58,33a1.13,1.13,0,0,0,1.17-1.19A1.16,1.16,0,0,0,54.51,30.5ZM68,30.5a1.16,1.16,0,0,0-1.32,1.2,1.24,1.24,0,0,0,2.47.12A1.21,1.21,0,0,0,68,30.5Zm-40.3,0a1.17,1.17,0,0,0-1.24,1.28A1.15,1.15,0,0,0,27.82,33c.77-.05,1.1-.52,1.12-1.29A1.16,1.16,0,0,0,27.72,30.5Zm13.45,0a1.16,1.16,0,0,0-1.26,1.26A1.14,1.14,0,0,0,41.07,33a1.19,1.19,0,0,0,1.3-1.25A1.16,1.16,0,0,0,41.17,30.5Zm13.34,0A1.24,1.24,0,1,0,54.58,33a1.13,1.13,0,0,0,1.17-1.19A1.16,1.16,0,0,0,54.51,30.5ZM68,30.5a1.16,1.16,0,0,0-1.32,1.2,1.24,1.24,0,0,0,2.47.12A1.21,1.21,0,0,0,68,30.5Zm-40.3,0a1.17,1.17,0,0,0-1.24,1.28A1.15,1.15,0,0,0,27.82,33c.77-.05,1.1-.52,1.12-1.29A1.16,1.16,0,0,0,27.72,30.5Zm13.45,0a1.16,1.16,0,0,0-1.26,1.26A1.14,1.14,0,0,0,41.07,33a1.19,1.19,0,0,0,1.3-1.25A1.16,1.16,0,0,0,41.17,30.5Zm13.34,0A1.24,1.24,0,1,0,54.58,33a1.13,1.13,0,0,0,1.17-1.19A1.16,1.16,0,0,0,54.51,30.5ZM68,30.5a1.16,1.16,0,0,0-1.32,1.2,1.24,1.24,0,0,0,2.47.12A1.21,1.21,0,0,0,68,30.5Zm-40.3,0a1.17,1.17,0,0,0-1.24,1.28A1.15,1.15,0,0,0,27.82,33c.77-.05,1.1-.52,1.12-1.29A1.16,1.16,0,0,0,27.72,30.5Zm13.45,0a1.16,1.16,0,0,0-1.26,1.26A1.14,1.14,0,0,0,41.07,33a1.19,1.19,0,0,0,1.3-1.25A1.16,1.16,0,0,0,41.17,30.5Zm13.34,0A1.24,1.24,0,1,0,54.58,33a1.13,1.13,0,0,0,1.17-1.19A1.16,1.16,0,0,0,54.51,30.5ZM68,30.5a1.16,1.16,0,0,0-1.32,1.2,1.24,1.24,0,0,0,2.47.12A1.21,1.21,0,0,0,68,30.5Zm-40.3,0a1.17,1.17,0,0,0-1.24,1.28A1.15,1.15,0,0,0,27.82,33c.77-.05,1.1-.52,1.12-1.29A1.16,1.16,0,0,0,27.72,30.5Zm13.45,0a1.16,1.16,0,0,0-1.26,1.26A1.14,1.14,0,0,0,41.07,33a1.19,1.19,0,0,0,1.3-1.25A1.16,1.16,0,0,0,41.17,30.5Zm13.34,0A1.24,1.24,0,1,0,54.58,33a1.13,1.13,0,0,0,1.17-1.19A1.16,1.16,0,0,0,54.51,30.5ZM68,30.5a1.16,1.16,0,0,0-1.32,1.2,1.24,1.24,0,0,0,2.47.12A1.21,1.21,0,0,0,68,30.5Zm-40.3,0a1.17,1.17,0,0,0-1.24,1.28A1.15,1.15,0,0,0,27.82,33c.77-.05,1.1-.52,1.12-1.29A1.16,1.16,0,0,0,27.72,30.5Zm13.45,0a1.16,1.16,0,0,0-1.26,1.26A1.14,1.14,0,0,0,41.07,33a1.19,1.19,0,0,0,1.3-1.25A1.16,1.16,0,0,0,41.17,30.5Zm13.34,0A1.24,1.24,0,1,0,54.58,33a1.13,1.13,0,0,0,1.17-1.19A1.16,1.16,0,0,0,54.51,30.5ZM68,30.5a1.16,1.16,0,0,0-1.32,1.2,1.24,1.24,0,0,0,2.47.12A1.21,1.21,0,0,0,68,30.5Zm-40.3,0a1.17,1.17,0,0,0-1.24,1.28A1.15,1.15,0,0,0,27.82,33c.77-.05,1.1-.52,1.12-1.29A1.16,1.16,0,0,0,27.72,30.5Zm13.45,0a1.16,1.16,0,0,0-1.26,1.26A1.14,1.14,0,0,0,41.07,33a1.19,1.19,0,0,0,1.3-1.25A1.16,1.16,0,0,0,41.17,30.5Zm13.34,0A1.24,1.24,0,1,0,54.58,33a1.13,1.13,0,0,0,1.17-1.19A1.16,1.16,0,0,0,54.51,30.5ZM68,30.5a1.16,1.16,0,0,0-1.32,1.2,1.24,1.24,0,0,0,2.47.12A1.21,1.21,0,0,0,68,30.5Zm-40.3,0a1.17,1.17,0,0,0-1.24,1.28A1.15,1.15,0,0,0,27.82,33c.77-.05,1.1-.52,1.12-1.29A1.16,1.16,0,0,0,27.72,30.5Zm13.45,0a1.16,1.16,0,0,0-1.26,1.26A1.14,1.14,0,0,0,41.07,33a1.19,1.19,0,0,0,1.3-1.25A1.16,1.16,0,0,0,41.17,30.5Zm13.34,0A1.24,1.24,0,1,0,54.58,33a1.13,1.13,0,0,0,1.17-1.19A1.16,1.16,0,0,0,54.51,30.5ZM68,30.5a1.16,1.16,0,0,0-1.32,1.2,1.24,1.24,0,0,0,2.47.12A1.21,1.21,0,0,0,68,30.5Zm-40.3,0a1.17,1.17,0,0,0-1.24,1.28A1.15,1.15,0,0,0,27.82,33c.77-.05,1.1-.52,1.12-1.29A1.16,1.16,0,0,0,27.72,30.5Zm13.45,0a1.16,1.16,0,0,0-1.26,1.26A1.14,1.14,0,0,0,41.07,33a1.19,1.19,0,0,0,1.3-1.25A1.16,1.16,0,0,0,41.17,30.5Zm13.34,0A1.24,1.24,0,1,0,54.58,33a1.13,1.13,0,0,0,1.17-1.19A1.16,1.16,0,0,0,54.51,30.5ZM68,30.5a1.16,1.16,0,0,0-1.32,1.2,1.24,1.24,0,0,0,2.47.12A1.21,1.21,0,0,0,68,30.5Zm-40.3,0a1.17,1.17,0,0,0-1.24,1.28A1.15,1.15,0,0,0,27.82,33c.77-.05,1.1-.52,1.12-1.29A1.16,1.16,0,0,0,27.72,30.5Zm13.45,0a1.16,1.16,0,0,0-1.26,1.26A1.14,1.14,0,0,0,41.07,33a1.19,1.19,0,0,0,1.3-1.25A1.16,1.16,0,0,0,41.17,30.5Zm13.34,0A1.24,1.24,0,1,0,54.58,33a1.13,1.13,0,0,0,1.17-1.19A1.16,1.16,0,0,0,54.51,30.5ZM68,30.5a1.16,1.16,0,0,0-1.32,1.2,1.24,1.24,0,0,0,2.47.12A1.21,1.21,0,0,0,68,30.5Zm-40.3,0a1.17,1.17,0,0,0-1.24,1.28A1.15,1.15,0,0,0,27.82,33c.77-.05,1.1-.52,1.12-1.29A1.16,1.16,0,0,0,27.72,30.5Zm13.45,0a1.16,1.16,0,0,0-1.26,1.26A1.14,1.14,0,0,0,41.07,33a1.19,1.19,0,0,0,1.3-1.25A1.16,1.16,0,0,0,41.17,30.5Zm13.34,0A1.24,1.24,0,1,0,54.58,33a1.13,1.13,0,0,0,1.17-1.19A1.16,1.16,0,0,0,54.51,30.5ZM68,30.5a1.16,1.16,0,0,0-1.32,1.2,1.24,1.24,0,0,0,2.47.12A1.21,1.21,0,0,0,68,30.5Zm0,0a1.16,1.16,0,0,0-1.32,1.2,1.24,1.24,0,0,0,2.47.12A1.21,1.21,0,0,0,68,30.5Zm-13.51,0A1.24,1.24,0,1,0,54.58,33a1.13,1.13,0,0,0,1.17-1.19A1.16,1.16,0,0,0,54.51,30.5Zm-13.34,0a1.16,1.16,0,0,0-1.26,1.26A1.14,1.14,0,0,0,41.07,33a1.19,1.19,0,0,0,1.3-1.25A1.16,1.16,0,0,0,41.17,30.5Zm-13.45,0a1.17,1.17,0,0,0-1.24,1.28A1.15,1.15,0,0,0,27.82,33c.77-.05,1.1-.52,1.12-1.29A1.16,1.16,0,0,0,27.72,30.5Zm40.3,0a1.16,1.16,0,0,0-1.32,1.2,1.24,1.24,0,0,0,2.47.12A1.21,1.21,0,0,0,68,30.5Zm-13.51,0A1.24,1.24,0,1,0,54.58,33a1.13,1.13,0,0,0,1.17-1.19A1.16,1.16,0,0,0,54.51,30.5Zm-13.34,0a1.16,1.16,0,0,0-1.26,1.26A1.14,1.14,0,0,0,41.07,33a1.19,1.19,0,0,0,1.3-1.25A1.16,1.16,0,0,0,41.17,30.5Zm-13.45,0a1.17,1.17,0,0,0-1.24,1.28A1.15,1.15,0,0,0,27.82,33c.77-.05,1.1-.52,1.12-1.29A1.16,1.16,0,0,0,27.72,30.5Zm40.3,0a1.16,1.16,0,0,0-1.32,1.2,1.24,1.24,0,0,0,2.47.12A1.21,1.21,0,0,0,68,30.5Zm-13.51,0A1.24,1.24,0,1,0,54.58,33a1.13,1.13,0,0,0,1.17-1.19A1.16,1.16,0,0,0,54.51,30.5Zm-13.34,0a1.16,1.16,0,0,0-1.26,1.26A1.14,1.14,0,0,0,41.07,33a1.19,1.19,0,0,0,1.3-1.25A1.16,1.16,0,0,0,41.17,30.5Zm-13.45,0a1.17,1.17,0,0,0-1.24,1.28A1.15,1.15,0,0,0,27.82,33c.77-.05,1.1-.52,1.12-1.29A1.16,1.16,0,0,0,27.72,30.5Zm40.3,0a1.16,1.16,0,0,0-1.32,1.2,1.24,1.24,0,0,0,2.47.12A1.21,1.21,0,0,0,68,30.5Zm-13.51,0A1.24,1.24,0,1,0,54.58,33a1.13,1.13,0,0,0,1.17-1.19A1.16,1.16,0,0,0,54.51,30.5Zm-13.34,0a1.16,1.16,0,0,0-1.26,1.26A1.14,1.14,0,0,0,41.07,33a1.19,1.19,0,0,0,1.3-1.25A1.16,1.16,0,0,0,41.17,30.5Zm-13.45,0a1.17,1.17,0,0,0-1.24,1.28A1.15,1.15,0,0,0,27.82,33c.77-.05,1.1-.52,1.12-1.29A1.16,1.16,0,0,0,27.72,30.5Zm40.3,0a1.16,1.16,0,0,0-1.32,1.2,1.24,1.24,0,0,0,2.47.12A1.21,1.21,0,0,0,68,30.5Zm-13.51,0A1.24,1.24,0,1,0,54.58,33a1.13,1.13,0,0,0,1.17-1.19A1.16,1.16,0,0,0,54.51,30.5Zm-13.34,0a1.16,1.16,0,0,0-1.26,1.26A1.14,1.14,0,0,0,41.07,33a1.19,1.19,0,0,0,1.3-1.25A1.16,1.16,0,0,0,41.17,30.5Zm-13.45,0a1.17,1.17,0,0,0-1.24,1.28A1.15,1.15,0,0,0,27.82,33c.77-.05,1.1-.52,1.12-1.29A1.16,1.16,0,0,0,27.72,30.5Zm40.3,0a1.16,1.16,0,0,0-1.32,1.2,1.24,1.24,0,0,0,2.47.12A1.21,1.21,0,0,0,68,30.5Zm-13.51,0A1.24,1.24,0,1,0,54.58,33a1.13,1.13,0,0,0,1.17-1.19A1.16,1.16,0,0,0,54.51,30.5Zm-13.34,0a1.16,1.16,0,0,0-1.26,1.26A1.14,1.14,0,0,0,41.07,33a1.19,1.19,0,0,0,1.3-1.25A1.16,1.16,0,0,0,41.17,30.5Zm-13.45,0a1.17,1.17,0,0,0-1.24,1.28A1.15,1.15,0,0,0,27.82,33c.77-.05,1.1-.52,1.12-1.29A1.16,1.16,0,0,0,27.72,30.5Zm40.3,0a1.16,1.16,0,0,0-1.32,1.2,1.24,1.24,0,0,0,2.47.12A1.21,1.21,0,0,0,68,30.5Zm-13.51,0A1.24,1.24,0,1,0,54.58,33a1.13,1.13,0,0,0,1.17-1.19A1.16,1.16,0,0,0,54.51,30.5Zm-13.34,0a1.16,1.16,0,0,0-1.26,1.26A1.14,1.14,0,0,0,41.07,33a1.19,1.19,0,0,0,1.3-1.25A1.16,1.16,0,0,0,41.17,30.5Zm-13.45,0a1.17,1.17,0,0,0-1.24,1.28A1.15,1.15,0,0,0,27.82,33c.77-.05,1.1-.52,1.12-1.29A1.16,1.16,0,0,0,27.72,30.5Zm40.3,0a1.16,1.16,0,0,0-1.32,1.2,1.24,1.24,0,0,0,2.47.12A1.21,1.21,0,0,0,68,30.5Zm-13.51,0A1.24,1.24,0,1,0,54.58,33a1.13,1.13,0,0,0,1.17-1.19A1.16,1.16,0,0,0,54.51,30.5Zm-13.34,0a1.16,1.16,0,0,0-1.26,1.26A1.14,1.14,0,0,0,41.07,33a1.19,1.19,0,0,0,1.3-1.25A1.16,1.16,0,0,0,41.17,30.5Zm-13.45,0a1.17,1.17,0,0,0-1.24,1.28A1.15,1.15,0,0,0,27.82,33c.77-.05,1.1-.52,1.12-1.29A1.16,1.16,0,0,0,27.72,30.5Zm40.3,0a1.16,1.16,0,0,0-1.32,1.2,1.24,1.24,0,0,0,2.47.12A1.21,1.21,0,0,0,68,30.5Zm-13.51,0A1.24,1.24,0,1,0,54.58,33a1.13,1.13,0,0,0,1.17-1.19A1.16,1.16,0,0,0,54.51,30.5Zm-13.34,0a1.16,1.16,0,0,0-1.26,1.26A1.14,1.14,0,0,0,41.07,33a1.19,1.19,0,0,0,1.3-1.25A1.16,1.16,0,0,0,41.17,30.5Zm-13.45,0a1.17,1.17,0,0,0-1.24,1.28A1.15,1.15,0,0,0,27.82,33c.77-.05,1.1-.52,1.12-1.29A1.16,1.16,0,0,0,27.72,30.5Zm40.3,0a1.16,1.16,0,0,0-1.32,1.2,1.24,1.24,0,0,0,2.47.12A1.21,1.21,0,0,0,68,30.5Zm-13.51,0A1.24,1.24,0,1,0,54.58,33a1.13,1.13,0,0,0,1.17-1.19A1.16,1.16,0,0,0,54.51,30.5Zm-13.34,0a1.16,1.16,0,0,0-1.26,1.26A1.14,1.14,0,0,0,41.07,33a1.19,1.19,0,0,0,1.3-1.25A1.16,1.16,0,0,0,41.17,30.5Zm-13.45,0a1.17,1.17,0,0,0-1.24,1.28A1.15,1.15,0,0,0,27.82,33c.77-.05,1.1-.52,1.12-1.29A1.16,1.16,0,0,0,27.72,30.5Zm40.3,0a1.16,1.16,0,0,0-1.32,1.2,1.24,1.24,0,0,0,2.47.12A1.21,1.21,0,0,0,68,30.5Zm-13.51,0A1.24,1.24,0,1,0,54.58,33a1.13,1.13,0,0,0,1.17-1.19A1.16,1.16,0,0,0,54.51,30.5Zm-13.34,0a1.16,1.16,0,0,0-1.26,1.26A1.14,1.14,0,0,0,41.07,33a1.19,1.19,0,0,0,1.3-1.25A1.16,1.16,0,0,0,41.17,30.5Zm-13.45,0a1.17,1.17,0,0,0-1.24,1.28A1.15,1.15,0,0,0,27.82,33c.77-.05,1.1-.52,1.12-1.29A1.16,1.16,0,0,0,27.72,30.5Zm40.3,0a1.16,1.16,0,0,0-1.32,1.2,1.24,1.24,0,0,0,2.47.12A1.21,1.21,0,0,0,68,30.5Zm-13.51,0A1.24,1.24,0,1,0,54.58,33a1.13,1.13,0,0,0,1.17-1.19A1.16,1.16,0,0,0,54.51,30.5Zm-13.34,0a1.16,1.16,0,0,0-1.26,1.26A1.14,1.14,0,0,0,41.07,33a1.19,1.19,0,0,0,1.3-1.25A1.16,1.16,0,0,0,41.17,30.5Zm-13.45,0a1.17,1.17,0,0,0-1.24,1.28A1.15,1.15,0,0,0,27.82,33c.77-.05,1.1-.52,1.12-1.29A1.16,1.16,0,0,0,27.72,30.5Zm40.3,0a1.16,1.16,0,0,0-1.32,1.2,1.24,1.24,0,0,0,2.47.12A1.21,1.21,0,0,0,68,30.5Zm-13.51,0A1.24,1.24,0,1,0,54.58,33a1.13,1.13,0,0,0,1.17-1.19A1.16,1.16,0,0,0,54.51,30.5Zm-13.34,0a1.16,1.16,0,0,0-1.26,1.26A1.14,1.14,0,0,0,41.07,33a1.19,1.19,0,0,0,1.3-1.25A1.16,1.16,0,0,0,41.17,30.5Zm-13.45,0a1.17,1.17,0,0,0-1.24,1.28A1.15,1.15,0,0,0,27.82,33c.77-.05,1.1-.52,1.12-1.29A1.16,1.16,0,0,0,27.72,30.5Zm40.3,0a1.16,1.16,0,0,0-1.32,1.2,1.24,1.24,0,0,0,2.47.12A1.21,1.21,0,0,0,68,30.5Zm-13.51,0A1.24,1.24,0,1,0,54.58,33a1.13,1.13,0,0,0,1.17-1.19A1.16,1.16,0,0,0,54.51,30.5Zm-13.34,0a1.16,1.16,0,0,0-1.26,1.26A1.14,1.14,0,0,0,41.07,33a1.19,1.19,0,0,0,1.3-1.25A1.16,1.16,0,0,0,41.17,30.5Zm-13.45,0a1.17,1.17,0,0,0-1.24,1.28A1.15,1.15,0,0,0,27.82,33c.77-.05,1.1-.52,1.12-1.29A1.16,1.16,0,0,0,27.72,30.5Zm26.79,0A1.24,1.24,0,1,0,54.58,33a1.13,1.13,0,0,0,1.17-1.19A1.16,1.16,0,0,0,54.51,30.5Zm-13.34,0a1.16,1.16,0,0,0-1.26,1.26A1.14,1.14,0,0,0,41.07,33a1.19,1.19,0,0,0,1.3-1.25A1.16,1.16,0,0,0,41.17,30.5Zm-13.45,0a1.17,1.17,0,0,0-1.24,1.28A1.15,1.15,0,0,0,27.82,33c.77-.05,1.1-.52,1.12-1.29A1.16,1.16,0,0,0,27.72,30.5Zm26.79,0A1.24,1.24,0,1,0,54.58,33a1.13,1.13,0,0,0,1.17-1.19A1.16,1.16,0,0,0,54.51,30.5Zm-13.34,0a1.16,1.16,0,0,0-1.26,1.26A1.14,1.14,0,0,0,41.07,33a1.19,1.19,0,0,0,1.3-1.25A1.16,1.16,0,0,0,41.17,30.5Zm-13.45,0a1.17,1.17,0,0,0-1.24,1.28A1.15,1.15,0,0,0,27.82,33c.77-.05,1.1-.52,1.12-1.29A1.16,1.16,0,0,0,27.72,30.5Zm0,0a1.17,1.17,0,0,0-1.24,1.28A1.15,1.15,0,0,0,27.82,33c.77-.05,1.1-.52,1.12-1.29A1.16,1.16,0,0,0,27.72,30.5Zm0,0a1.17,1.17,0,0,0-1.24,1.28A1.15,1.15,0,0,0,27.82,33c.77-.05,1.1-.52,1.12-1.29A1.16,1.16,0,0,0,27.72,30.5Z"/><path class="cls-1" d="M93.39,60.21c-.12,4.23-1,8.24-3.83,11.55-3.34,3.89-7.85,3.83-11.15-.08a16.18,16.18,0,0,1-3.54-8.59,19.61,19.61,0,0,1,2.43-13,10.29,10.29,0,0,1,2.56-2.94,6.45,6.45,0,0,1,8.85.44c2.77,2.63,4,6,4.48,9.66A11.79,11.79,0,0,1,93.39,60.21Z"/><path class="cls-1" d="M59.14,84.92a1.27,1.27,0,0,1,1.29-1.32,1.22,1.22,0,0,1,1.33,1.33,1.2,1.2,0,0,1-1.26,1.29A1.26,1.26,0,0,1,59.14,84.92Z"/><path class="cls-1" d="M55.75,31.78A1.13,1.13,0,0,1,54.58,33a1.24,1.24,0,1,1-.07-2.47A1.16,1.16,0,0,1,55.75,31.78Z"/><path class="cls-1" d="M42.37,31.72A1.19,1.19,0,0,1,41.07,33a1.14,1.14,0,0,1-1.16-1.21,1.23,1.23,0,1,1,2.46,0Z"/><path class="cls-1" d="M28.94,31.65c0,.78-.35,1.25-1.12,1.3a1.15,1.15,0,0,1-1.34-1.17,1.23,1.23,0,0,1,2.46-.13Z"/><path class="cls-1" d="M15.57,31.76A1.17,1.17,0,0,1,14.35,33a1.24,1.24,0,0,1-.06-2.47A1.18,1.18,0,0,1,15.57,31.76Z"/><path class="cls-1" d="M69.17,31.82a1.24,1.24,0,0,1-2.47-.12A1.16,1.16,0,0,1,68,30.5,1.21,1.21,0,0,1,69.17,31.82Z"/><path class="cls-1" d="M55.75,31.78A1.13,1.13,0,0,1,54.58,33a1.24,1.24,0,1,1-.07-2.47A1.16,1.16,0,0,1,55.75,31.78Z"/><path class="cls-1" d="M42.37,31.72A1.19,1.19,0,0,1,41.07,33a1.14,1.14,0,0,1-1.16-1.21,1.23,1.23,0,1,1,2.46,0Z"/><path class="cls-1" d="M28.94,31.65c0,.78-.35,1.25-1.12,1.3a1.15,1.15,0,0,1-1.34-1.17,1.23,1.23,0,0,1,2.46-.13Z"/><path class="cls-1" d="M15.57,31.76A1.17,1.17,0,0,1,14.35,33a1.24,1.24,0,0,1-.06-2.47A1.18,1.18,0,0,1,15.57,31.76Z"/><path class="cls-1" d="M69.17,31.82a1.24,1.24,0,0,1-2.47-.12A1.16,1.16,0,0,1,68,30.5,1.21,1.21,0,0,1,69.17,31.82Z"/><path class="cls-1" d="M19.1,54.37l-.52,0a7.15,7.15,0,0,0-5.14,2.33,10.79,10.79,0,0,0-2.86,6.6c0,.33,0,.66,0,1a10.5,10.5,0,0,0,1.79,6,7.07,7.07,0,0,0,5.2,3.2,7,7,0,0,0,5.66-2.31,10.74,10.74,0,0,0,2.86-6.6C26.48,59.29,23.36,54.72,19.1,54.37Zm-1,7.54a3.15,3.15,0,1,1,3.15-3.15A3.15,3.15,0,0,1,18.1,61.91Z"/><path class="cls-1" d="M62.84,63.07A11.51,11.51,0,0,0,62,59.44a10.06,10.06,0,0,0-2-3,7.15,7.15,0,0,0-5.13-2.33l-.52,0c-4.26.35-7.38,4.92-6.95,10.18a10.71,10.71,0,0,0,2.86,6.6,6.75,6.75,0,0,0,10.86-.89A10.64,10.64,0,0,0,62.84,63.07ZM55.33,61.7a3.15,3.15,0,1,1,3.15-3.14A3.15,3.15,0,0,1,55.33,61.7Z"/><path class="cls-1" d="M87.39,41.66c0-2.46,0-4.93,0-7.4a32.27,32.27,0,0,0-3.87-16.18C77.19,6.57,67.72,0,54.23,0c-6.9,0-13.79,0-20.68,0A30.31,30.31,0,0,0,14.84,6.2C4.81,13.71.66,24.27.22,36.3-.19,47.38.09,58.48.14,69.57.2,79.76,4.31,88.07,12,94.71c1.36,1.19,3.37,1.68,4.15,3.42a53.2,53.2,0,0,1,1.75,5.31,5.31,5.31,0,0,1,.21.64c.67,3.36,4.53,4.94,7.67,3.44s6.23-3.23,9.3-4.94a3.71,3.71,0,0,1,1.87-.54c5.62,0,11.24.1,16.86,0,11.47-.21,20.39-5,26.77-14.1l.43-.63c.3-.44.59-.89.87-1.34a27.32,27.32,0,0,0,3-6.62c7-.36,12.66-8.78,12.66-19.1C97.47,51.23,93.17,43.66,87.39,41.66ZM18.06,74.6c-.21,0-.41,0-.62,0a8.16,8.16,0,0,1-6-3.68,11.84,11.84,0,0,1-1.93-7.71,12.43,12.43,0,0,1,1-4,11,11,0,0,1,2.18-3.28,8.1,8.1,0,0,1,6.55-2.65c4.88.4,8.46,5.51,8,11.39A11.84,11.84,0,0,1,24,71.93,8.25,8.25,0,0,1,18.06,74.6ZM13.47,15.46c0-1.27.6-1.77,1.66-2.33v5.7c0,3.07,0,6.14,0,9.21a1.24,1.24,0,0,0,.71,1.33,2.63,2.63,0,0,1,1.24,3.07,2.7,2.7,0,0,1-2.68,2.11,2.72,2.72,0,0,1-2.79-2,2.69,2.69,0,0,1,1.2-3.21A1.26,1.26,0,0,0,13.51,28C13.5,23.85,13.57,19.65,13.47,15.46Zm9.66,27a4.07,4.07,0,0,1,.58.52c.23.24.5.5.35.87s-1,.4-1.36.42a16.31,16.31,0,0,0-3.2,0,5.84,5.84,0,0,0-3,2.19c-.49.59-1,1.24-1.85.68a1.64,1.64,0,0,1-.46-2.2C15.41,42.08,20.6,40.66,23.13,42.48ZM26.9,28q0-9.43,0-18.88c0-.47-.22-1.06.63-1.16.69-.07,1,0,1,.81-.05,3.25,0,6.51,0,9.77s0,6.22,0,9.32a1.44,1.44,0,0,0,.78,1.51A2.82,2.82,0,1,1,25,32.52a2.64,2.64,0,0,1,1.27-3.16C26.94,29,26.9,28.57,26.9,28ZM40.34,8.52c0-.6,0-1,.84-1s.76.44.76,1q0,4.95,0,9.89c0,3.22,0,6.45,0,9.67a1.18,1.18,0,0,0,.68,1.32,2.67,2.67,0,0,1,1.26,3.18,2.88,2.88,0,0,1-5.48.05,2.72,2.72,0,0,1,1.21-3.21A1.34,1.34,0,0,0,40.36,28C40.34,21.48,40.35,15,40.34,8.52Zm-.6,70.05c1.74,0,2.42,1.07,1.73,2.68-1.21,2.86-3.46,4.43-6.16,4.32-3-.13-5.15-3.06-5.64-5.19-.23-1,.61-1.78,1.77-1.81,1.43,0,2.84,0,4.27,0S38.4,78.55,39.74,78.57Zm44.74-1.74h-.32a1.13,1.13,0,0,0-.41,0,1,1,0,0,0-.57.32,3.07,3.07,0,0,0-.52,1.15A29.93,29.93,0,0,1,55,99.69c-5.91.18-11.83,0-17.75,0a6.09,6.09,0,0,0-3.63.92,86,86,0,0,1-8.77,4.73c-2.37,1.17-4.54-.22-4.65-2.89a5,5,0,0,0,4-.62c1.17-.67,2.37-1.28,3.56-1.91,1.86-1,3.62-2.37,5.61-2.86S37.58,97,39.72,97c4.68-.08,9.36.27,14-.2,11.32-1.12,21.75-10,24.77-20.91a1,1,0,0,0-.35-1.26A9.63,9.63,0,0,1,75.78,72c-.45-.8-.74-.62-1.27-.09q-5.49,5.55-11,11a1.52,1.52,0,0,0-.56,1.63,2.36,2.36,0,0,1-1.41,2.66,2.57,2.57,0,0,1-2.88-.58,2.49,2.49,0,0,1-.37-2.92A2.39,2.39,0,0,1,61,82.48a1.1,1.1,0,0,0,1.26-.35Q68.1,76.27,74,70.45a1,1,0,0,0,.27-1.33,22.73,22.73,0,0,1-1-15.27c1.16-4.19,3.23-7.81,7.42-9.75.47-.22.38-.57.38-.93,0-2,0-3.89,0-5.84A32.35,32.35,0,0,0,70.83,13C65.69,8.12,59.68,5.21,52.4,5.28c-6.6.06-13.19,0-19.78,0a32.83,32.83,0,0,0-18.95,6c-1.11.79-2.16,1.66-3.33,2.55.05-.17.05-.23.09-.26C16.34,6.49,23.76,2.37,33.14,2.27c7.49-.07,15,0,22.48,0a25.49,25.49,0,0,1,3,.18C72.85,4.29,83.34,16.75,84.9,29.91c.37,3.08.16,13.67.16,13.67a8.27,8.27,0,0,1,1.1.23h0a11.11,11.11,0,0,1,6.11,4.76,21.19,21.19,0,0,1,3.26,11.68,21.14,21.14,0,0,1-3.26,11.68,15.39,15.39,0,0,1-1.42,1.8,11.21,11.21,0,0,1-1.58,1.42,9.67,9.67,0,0,1-1.72,1,5.76,5.76,0,0,1-1.07.33c-.36.08-.72.16-1.08.22A6,6,0,0,1,84.48,76.83ZM53.7,18.31c0-3.26,0-6.51,0-9.77,0-.4-.3-1,.6-1,.75,0,1,.22,1,1,0,6.37,0,12.73,0,19.1a1.7,1.7,0,0,0,.88,1.8,2.63,2.63,0,0,1,1,3.16,2.86,2.86,0,0,1-5.41,0,2.61,2.61,0,0,1,1.07-3.14,1.49,1.49,0,0,0,.82-1.6C53.69,24.68,53.7,21.5,53.7,18.31ZM59.31,44.8a2.13,2.13,0,0,1,.21,1,1.33,1.33,0,0,1-.78,1.41,1.23,1.23,0,0,1-1.53-.6,6.08,6.08,0,0,0-2.56-2.15,4.63,4.63,0,0,0-1.6-.34c-.73,0-1.49.11-2.23.13-.47,0-1.17.08-1.33-.5-.2-.75.66-1.18,1.26-1.53C53.28,40.78,58,42.2,59.31,44.8ZM54.24,53a8.16,8.16,0,0,1,6.55,2.65,12.35,12.35,0,0,1,1.24,15,8.14,8.14,0,0,1-6,3.68c-.21,0-.41,0-.62,0a8.29,8.29,0,0,1-5.94-2.67,11.89,11.89,0,0,1-3.17-7.29C45.78,58.55,49.36,53.45,54.24,53ZM67.13,12.91a2.57,2.57,0,0,1,1.61,2.61c-.1,4.19,0,8.38,0,12.57a1.14,1.14,0,0,0,.66,1.22,2.75,2.75,0,0,1,1.33,3.26,2.89,2.89,0,0,1-5.51-.09,2.71,2.71,0,0,1,1.33-3.16,1.14,1.14,0,0,0,.64-1.23C67.12,23.08,67.13,18.07,67.13,12.91Z"/><path class="cls-1" d="M81,87.31l-.42.64h0Z"/></g></g></svg>