<svg xmlns="http://www.w3.org/2000/svg" viewBox="0 0 141.05 156.42"><defs><style>.cls-1{fill:#0f0140;}</style></defs><g id="Capa_2" data-name="Capa 2"><g id="numeración_Pag" data-name="numeración Pag"><path class="cls-1" d="M19,46.07a1.66,1.66,0,0,1,1.7-1.93,1.79,1.79,0,1,1,.09,3.57A1.63,1.63,0,0,1,19,46.07Z"/><path class="cls-1" d="M40.12,44.14A1.68,1.68,0,0,0,38.33,46a1.66,1.66,0,0,0,1.93,1.7c1.11-.08,1.6-.76,1.62-1.88A1.67,1.67,0,0,0,40.12,44.14Zm19.46,0a1.79,1.79,0,0,0-.15,3.58,1.75,1.75,0,0,0,1.89-1.82A1.68,1.68,0,0,0,59.58,44.14Zm-19.46,0A1.68,1.68,0,0,0,38.33,46a1.66,1.66,0,0,0,1.93,1.7c1.11-.08,1.6-.76,1.62-1.88A1.67,1.67,0,0,0,40.12,44.14Zm19.46,0a1.79,1.79,0,0,0-.15,3.58,1.75,1.75,0,0,0,1.89-1.82A1.68,1.68,0,0,0,59.58,44.14Zm-19.46,0A1.68,1.68,0,0,0,38.33,46a1.66,1.66,0,0,0,1.93,1.7c1.11-.08,1.6-.76,1.62-1.88A1.67,1.67,0,0,0,40.12,44.14Zm19.46,0a1.79,1.79,0,0,0-.15,3.58,1.75,1.75,0,0,0,1.89-1.82A1.68,1.68,0,0,0,59.58,44.14Zm19.3,0A1.79,1.79,0,1,0,79,47.71,1.63,1.63,0,0,0,80.68,46,1.67,1.67,0,0,0,78.88,44.14Zm19.56,0a1.69,1.69,0,0,0-1.92,1.74,1.66,1.66,0,0,0,1.81,1.81A1.68,1.68,0,0,0,100.1,46,1.75,1.75,0,0,0,98.44,44.14Zm-58.32,0A1.68,1.68,0,0,0,38.33,46a1.66,1.66,0,0,0,1.93,1.7c1.11-.08,1.6-.76,1.62-1.88A1.67,1.67,0,0,0,40.12,44.14Zm19.46,0a1.79,1.79,0,0,0-.15,3.58,1.75,1.75,0,0,0,1.89-1.82A1.68,1.68,0,0,0,59.58,44.14Zm19.3,0A1.79,1.79,0,1,0,79,47.71,1.63,1.63,0,0,0,80.68,46,1.67,1.67,0,0,0,78.88,44.14Zm19.56,0a1.69,1.69,0,0,0-1.92,1.74,1.66,1.66,0,0,0,1.81,1.81A1.68,1.68,0,0,0,100.1,46,1.75,1.75,0,0,0,98.44,44.14Zm-58.32,0A1.68,1.68,0,0,0,38.33,46a1.66,1.66,0,0,0,1.93,1.7c1.11-.08,1.6-.76,1.62-1.88A1.67,1.67,0,0,0,40.12,44.14Zm19.46,0a1.79,1.79,0,0,0-.15,3.58,1.75,1.75,0,0,0,1.89-1.82A1.68,1.68,0,0,0,59.58,44.14Zm19.3,0A1.79,1.79,0,1,0,79,47.71,1.63,1.63,0,0,0,80.68,46,1.67,1.67,0,0,0,78.88,44.14Zm19.56,0a1.69,1.69,0,0,0-1.92,1.74,1.66,1.66,0,0,0,1.81,1.81A1.68,1.68,0,0,0,100.1,46,1.75,1.75,0,0,0,98.44,44.14Zm-58.32,0A1.68,1.68,0,0,0,38.33,46a1.66,1.66,0,0,0,1.93,1.7c1.11-.08,1.6-.76,1.62-1.88A1.67,1.67,0,0,0,40.12,44.14Zm19.46,0a1.79,1.79,0,0,0-.15,3.58,1.75,1.75,0,0,0,1.89-1.82A1.68,1.68,0,0,0,59.58,44.14Zm19.3,0A1.79,1.79,0,1,0,79,47.71,1.63,1.63,0,0,0,80.68,46,1.67,1.67,0,0,0,78.88,44.14Zm19.56,0a1.69,1.69,0,0,0-1.92,1.74,1.66,1.66,0,0,0,1.81,1.81A1.68,1.68,0,0,0,100.1,46,1.75,1.75,0,0,0,98.44,44.14Zm-58.32,0A1.68,1.68,0,0,0,38.33,46a1.66,1.66,0,0,0,1.93,1.7c1.11-.08,1.6-.76,1.62-1.88A1.67,1.67,0,0,0,40.12,44.14Zm19.46,0a1.79,1.79,0,0,0-.15,3.58,1.75,1.75,0,0,0,1.89-1.82A1.68,1.68,0,0,0,59.58,44.14Zm19.3,0A1.79,1.79,0,1,0,79,47.71,1.63,1.63,0,0,0,80.68,46,1.67,1.67,0,0,0,78.88,44.14Zm19.56,0a1.69,1.69,0,0,0-1.92,1.74,1.66,1.66,0,0,0,1.81,1.81A1.68,1.68,0,0,0,100.1,46,1.75,1.75,0,0,0,98.44,44.14Zm-58.32,0A1.68,1.68,0,0,0,38.33,46a1.66,1.66,0,0,0,1.93,1.7c1.11-.08,1.6-.76,1.62-1.88A1.67,1.67,0,0,0,40.12,44.14Zm19.46,0a1.79,1.79,0,0,0-.15,3.58,1.75,1.75,0,0,0,1.89-1.82A1.68,1.68,0,0,0,59.58,44.14Zm19.3,0A1.79,1.79,0,1,0,79,47.71,1.63,1.63,0,0,0,80.68,46,1.67,1.67,0,0,0,78.88,44.14Zm19.56,0a1.69,1.69,0,0,0-1.92,1.74,1.66,1.66,0,0,0,1.81,1.81A1.68,1.68,0,0,0,100.1,46,1.75,1.75,0,0,0,98.44,44.14Zm-58.32,0A1.68,1.68,0,0,0,38.33,46a1.66,1.66,0,0,0,1.93,1.7c1.11-.08,1.6-.76,1.62-1.88A1.67,1.67,0,0,0,40.12,44.14Zm19.46,0a1.79,1.79,0,0,0-.15,3.58,1.75,1.75,0,0,0,1.89-1.82A1.68,1.68,0,0,0,59.58,44.14Zm19.3,0A1.79,1.79,0,1,0,79,47.71,1.63,1.63,0,0,0,80.68,46,1.67,1.67,0,0,0,78.88,44.14Zm19.56,0a1.69,1.69,0,0,0-1.92,1.74,1.66,1.66,0,0,0,1.81,1.81A1.68,1.68,0,0,0,100.1,46,1.75,1.75,0,0,0,98.44,44.14Zm-58.32,0A1.68,1.68,0,0,0,38.33,46a1.66,1.66,0,0,0,1.93,1.7c1.11-.08,1.6-.76,1.62-1.88A1.67,1.67,0,0,0,40.12,44.14Zm19.46,0a1.79,1.79,0,0,0-.15,3.58,1.75,1.75,0,0,0,1.89-1.82A1.68,1.68,0,0,0,59.58,44.14Zm19.3,0A1.79,1.79,0,1,0,79,47.71,1.63,1.63,0,0,0,80.68,46,1.67,1.67,0,0,0,78.88,44.14Zm19.56,0a1.69,1.69,0,0,0-1.92,1.74,1.66,1.66,0,0,0,1.81,1.81A1.68,1.68,0,0,0,100.1,46,1.75,1.75,0,0,0,98.44,44.14Zm-58.32,0A1.68,1.68,0,0,0,38.33,46a1.66,1.66,0,0,0,1.93,1.7c1.11-.08,1.6-.76,1.62-1.88A1.67,1.67,0,0,0,40.12,44.14Zm19.46,0a1.79,1.79,0,0,0-.15,3.58,1.75,1.75,0,0,0,1.89-1.82A1.68,1.68,0,0,0,59.58,44.14Zm19.3,0A1.79,1.79,0,1,0,79,47.71,1.63,1.63,0,0,0,80.68,46,1.67,1.67,0,0,0,78.88,44.14Zm19.56,0a1.69,1.69,0,0,0-1.92,1.74,1.66,1.66,0,0,0,1.81,1.81A1.68,1.68,0,0,0,100.1,46,1.75,1.75,0,0,0,98.44,44.14Zm-58.32,0A1.68,1.68,0,0,0,38.33,46a1.66,1.66,0,0,0,1.93,1.7c1.11-.08,1.6-.76,1.62-1.88A1.67,1.67,0,0,0,40.12,44.14Zm19.46,0a1.79,1.79,0,0,0-.15,3.58,1.75,1.75,0,0,0,1.89-1.82A1.68,1.68,0,0,0,59.58,44.14Zm19.3,0A1.79,1.79,0,1,0,79,47.71,1.63,1.63,0,0,0,80.68,46,1.67,1.67,0,0,0,78.88,44.14Zm19.56,0a1.69,1.69,0,0,0-1.92,1.74,1.66,1.66,0,0,0,1.81,1.81A1.68,1.68,0,0,0,100.1,46,1.75,1.75,0,0,0,98.44,44.14Zm-58.32,0A1.68,1.68,0,0,0,38.33,46a1.66,1.66,0,0,0,1.93,1.7c1.11-.08,1.6-.76,1.62-1.88A1.67,1.67,0,0,0,40.12,44.14Zm19.46,0a1.79,1.79,0,0,0-.15,3.58,1.75,1.75,0,0,0,1.89-1.82A1.68,1.68,0,0,0,59.58,44.14Zm19.3,0A1.79,1.79,0,1,0,79,47.71,1.63,1.63,0,0,0,80.68,46,1.67,1.67,0,0,0,78.88,44.14Zm19.56,0a1.69,1.69,0,0,0-1.92,1.74,1.66,1.66,0,0,0,1.81,1.81A1.68,1.68,0,0,0,100.1,46,1.75,1.75,0,0,0,98.44,44.14Zm-58.32,0A1.68,1.68,0,0,0,38.33,46a1.66,1.66,0,0,0,1.93,1.7c1.11-.08,1.6-.76,1.62-1.88A1.67,1.67,0,0,0,40.12,44.14Zm19.46,0a1.79,1.79,0,0,0-.15,3.58,1.75,1.75,0,0,0,1.89-1.82A1.68,1.68,0,0,0,59.58,44.14Zm19.3,0A1.79,1.79,0,1,0,79,47.71,1.63,1.63,0,0,0,80.68,46,1.67,1.67,0,0,0,78.88,44.14Zm19.56,0a1.69,1.69,0,0,0-1.92,1.74,1.66,1.66,0,0,0,1.81,1.81A1.68,1.68,0,0,0,100.1,46,1.75,1.75,0,0,0,98.44,44.14Zm-58.32,0A1.68,1.68,0,0,0,38.33,46a1.66,1.66,0,0,0,1.93,1.7c1.11-.08,1.6-.76,1.62-1.88A1.67,1.67,0,0,0,40.12,44.14Zm19.46,0a1.79,1.79,0,0,0-.15,3.58,1.75,1.75,0,0,0,1.89-1.82A1.68,1.68,0,0,0,59.58,44.14Zm19.3,0A1.79,1.79,0,1,0,79,47.71,1.63,1.63,0,0,0,80.68,46,1.67,1.67,0,0,0,78.88,44.14Zm19.56,0a1.69,1.69,0,0,0-1.92,1.74,1.66,1.66,0,0,0,1.81,1.81A1.68,1.68,0,0,0,100.1,46,1.75,1.75,0,0,0,98.44,44.14Zm-58.32,0A1.68,1.68,0,0,0,38.33,46a1.66,1.66,0,0,0,1.93,1.7c1.11-.08,1.6-.76,1.62-1.88A1.67,1.67,0,0,0,40.12,44.14Zm19.46,0a1.79,1.79,0,0,0-.15,3.58,1.75,1.75,0,0,0,1.89-1.82A1.68,1.68,0,0,0,59.58,44.14Zm19.3,0A1.79,1.79,0,1,0,79,47.71,1.63,1.63,0,0,0,80.68,46,1.67,1.67,0,0,0,78.88,44.14Zm19.56,0a1.69,1.69,0,0,0-1.92,1.74,1.66,1.66,0,0,0,1.81,1.81A1.68,1.68,0,0,0,100.1,46,1.75,1.75,0,0,0,98.44,44.14Zm-58.32,0A1.68,1.68,0,0,0,38.33,46a1.66,1.66,0,0,0,1.93,1.7c1.11-.08,1.6-.76,1.62-1.88A1.67,1.67,0,0,0,40.12,44.14Zm19.46,0a1.79,1.79,0,0,0-.15,3.58,1.75,1.75,0,0,0,1.89-1.82A1.68,1.68,0,0,0,59.58,44.14Zm19.3,0A1.79,1.79,0,1,0,79,47.71,1.63,1.63,0,0,0,80.68,46,1.67,1.67,0,0,0,78.88,44.14Zm19.56,0a1.69,1.69,0,0,0-1.92,1.74,1.66,1.66,0,0,0,1.81,1.81A1.68,1.68,0,0,0,100.1,46,1.75,1.75,0,0,0,98.44,44.14Zm0,0a1.69,1.69,0,0,0-1.92,1.74,1.66,1.66,0,0,0,1.81,1.81A1.68,1.68,0,0,0,100.1,46,1.75,1.75,0,0,0,98.44,44.14Zm-19.56,0A1.79,1.79,0,1,0,79,47.71,1.63,1.63,0,0,0,80.68,46,1.67,1.67,0,0,0,78.88,44.14Zm-19.3,0a1.79,1.79,0,0,0-.15,3.58,1.75,1.75,0,0,0,1.89-1.82A1.68,1.68,0,0,0,59.58,44.14Zm-19.46,0A1.68,1.68,0,0,0,38.33,46a1.66,1.66,0,0,0,1.93,1.7c1.11-.08,1.6-.76,1.62-1.88A1.67,1.67,0,0,0,40.12,44.14Zm58.32,0a1.69,1.69,0,0,0-1.92,1.74,1.66,1.66,0,0,0,1.81,1.81A1.68,1.68,0,0,0,100.1,46,1.75,1.75,0,0,0,98.44,44.14Zm-19.56,0A1.79,1.79,0,1,0,79,47.71,1.63,1.63,0,0,0,80.68,46,1.67,1.67,0,0,0,78.88,44.14Zm-19.3,0a1.79,1.79,0,0,0-.15,3.58,1.75,1.75,0,0,0,1.89-1.82A1.68,1.68,0,0,0,59.58,44.14Zm-19.46,0A1.68,1.68,0,0,0,38.33,46a1.66,1.66,0,0,0,1.93,1.7c1.11-.08,1.6-.76,1.62-1.88A1.67,1.67,0,0,0,40.12,44.14Zm58.32,0a1.69,1.69,0,0,0-1.92,1.74,1.66,1.66,0,0,0,1.81,1.81A1.68,1.68,0,0,0,100.1,46,1.75,1.75,0,0,0,98.44,44.14Zm-19.56,0A1.79,1.79,0,1,0,79,47.71,1.63,1.63,0,0,0,80.68,46,1.67,1.67,0,0,0,78.88,44.14Zm-19.3,0a1.79,1.79,0,0,0-.15,3.58,1.75,1.75,0,0,0,1.89-1.82A1.68,1.68,0,0,0,59.58,44.14Zm-19.46,0A1.68,1.68,0,0,0,38.33,46a1.66,1.66,0,0,0,1.93,1.7c1.11-.08,1.6-.76,1.62-1.88A1.67,1.67,0,0,0,40.12,44.14Zm58.32,0a1.69,1.69,0,0,0-1.92,1.74,1.66,1.66,0,0,0,1.81,1.81A1.68,1.68,0,0,0,100.1,46,1.75,1.75,0,0,0,98.44,44.14Zm-19.56,0A1.79,1.79,0,1,0,79,47.71,1.63,1.63,0,0,0,80.68,46,1.67,1.67,0,0,0,78.88,44.14Zm-19.3,0a1.79,1.79,0,0,0-.15,3.58,1.75,1.75,0,0,0,1.89-1.82A1.68,1.68,0,0,0,59.58,44.14Zm-19.46,0A1.68,1.68,0,0,0,38.33,46a1.66,1.66,0,0,0,1.93,1.7c1.11-.08,1.6-.76,1.62-1.88A1.67,1.67,0,0,0,40.12,44.14Zm58.32,0a1.69,1.69,0,0,0-1.92,1.74,1.66,1.66,0,0,0,1.81,1.81A1.68,1.68,0,0,0,100.1,46,1.75,1.75,0,0,0,98.44,44.14Zm-19.56,0A1.79,1.79,0,1,0,79,47.71,1.63,1.63,0,0,0,80.68,46,1.67,1.67,0,0,0,78.88,44.14Zm-19.3,0a1.79,1.79,0,0,0-.15,3.58,1.75,1.75,0,0,0,1.89-1.82A1.68,1.68,0,0,0,59.58,44.14Zm-19.46,0A1.68,1.68,0,0,0,38.33,46a1.66,1.66,0,0,0,1.93,1.7c1.11-.08,1.6-.76,1.62-1.88A1.67,1.67,0,0,0,40.12,44.14Zm58.32,0a1.69,1.69,0,0,0-1.92,1.74,1.66,1.66,0,0,0,1.81,1.81A1.68,1.68,0,0,0,100.1,46,1.75,1.75,0,0,0,98.44,44.14Zm-19.56,0A1.79,1.79,0,1,0,79,47.71,1.63,1.63,0,0,0,80.68,46,1.67,1.67,0,0,0,78.88,44.14Zm-19.3,0a1.79,1.79,0,0,0-.15,3.58,1.75,1.75,0,0,0,1.89-1.82A1.68,1.68,0,0,0,59.58,44.14Zm-19.46,0A1.68,1.68,0,0,0,38.33,46a1.66,1.66,0,0,0,1.93,1.7c1.11-.08,1.6-.76,1.62-1.88A1.67,1.67,0,0,0,40.12,44.14Zm58.32,0a1.69,1.69,0,0,0-1.92,1.74,1.66,1.66,0,0,0,1.81,1.81A1.68,1.68,0,0,0,100.1,46,1.75,1.75,0,0,0,98.44,44.14Zm-19.56,0A1.79,1.79,0,1,0,79,47.71,1.63,1.63,0,0,0,80.68,46,1.67,1.67,0,0,0,78.88,44.14Zm-19.3,0a1.79,1.79,0,0,0-.15,3.58,1.75,1.75,0,0,0,1.89-1.82A1.68,1.68,0,0,0,59.58,44.14Zm-19.46,0A1.68,1.68,0,0,0,38.33,46a1.66,1.66,0,0,0,1.93,1.7c1.11-.08,1.6-.76,1.62-1.88A1.67,1.67,0,0,0,40.12,44.14Zm58.32,0a1.69,1.69,0,0,0-1.92,1.74,1.66,1.66,0,0,0,1.81,1.81A1.68,1.68,0,0,0,100.1,46,1.75,1.75,0,0,0,98.44,44.14Zm-19.56,0A1.79,1.79,0,1,0,79,47.71,1.63,1.63,0,0,0,80.68,46,1.67,1.67,0,0,0,78.88,44.14Zm-19.3,0a1.79,1.79,0,0,0-.15,3.58,1.75,1.75,0,0,0,1.89-1.82A1.68,1.68,0,0,0,59.58,44.14Zm-19.46,0A1.68,1.68,0,0,0,38.33,46a1.66,1.66,0,0,0,1.93,1.7c1.11-.08,1.6-.76,1.62-1.88A1.67,1.67,0,0,0,40.12,44.14Zm58.32,0a1.69,1.69,0,0,0-1.92,1.74,1.66,1.66,0,0,0,1.81,1.81A1.68,1.68,0,0,0,100.1,46,1.75,1.75,0,0,0,98.44,44.14Zm-19.56,0A1.79,1.79,0,1,0,79,47.71,1.63,1.63,0,0,0,80.68,46,1.67,1.67,0,0,0,78.88,44.14Zm-19.3,0a1.79,1.79,0,0,0-.15,3.58,1.75,1.75,0,0,0,1.89-1.82A1.68,1.68,0,0,0,59.58,44.14Zm-19.46,0A1.68,1.68,0,0,0,38.33,46a1.66,1.66,0,0,0,1.93,1.7c1.11-.08,1.6-.76,1.62-1.88A1.67,1.67,0,0,0,40.12,44.14Zm58.32,0a1.69,1.69,0,0,0-1.92,1.74,1.66,1.66,0,0,0,1.81,1.81A1.68,1.68,0,0,0,100.1,46,1.75,1.75,0,0,0,98.44,44.14Zm-19.56,0A1.79,1.79,0,1,0,79,47.71,1.63,1.63,0,0,0,80.68,46,1.67,1.67,0,0,0,78.88,44.14Zm-19.3,0a1.79,1.79,0,0,0-.15,3.58,1.75,1.75,0,0,0,1.89-1.82A1.68,1.68,0,0,0,59.58,44.14Zm-19.46,0A1.68,1.68,0,0,0,38.33,46a1.66,1.66,0,0,0,1.93,1.7c1.11-.08,1.6-.76,1.62-1.88A1.67,1.67,0,0,0,40.12,44.14Zm58.32,0a1.69,1.69,0,0,0-1.92,1.74,1.66,1.66,0,0,0,1.81,1.81A1.68,1.68,0,0,0,100.1,46,1.75,1.75,0,0,0,98.44,44.14Zm-19.56,0A1.79,1.79,0,1,0,79,47.71,1.63,1.63,0,0,0,80.68,46,1.67,1.67,0,0,0,78.88,44.14Zm-19.3,0a1.79,1.79,0,0,0-.15,3.58,1.75,1.75,0,0,0,1.89-1.82A1.68,1.68,0,0,0,59.58,44.14Zm-19.46,0A1.68,1.68,0,0,0,38.33,46a1.66,1.66,0,0,0,1.93,1.7c1.11-.08,1.6-.76,1.62-1.88A1.67,1.67,0,0,0,40.12,44.14Zm58.32,0a1.69,1.69,0,0,0-1.92,1.74,1.66,1.66,0,0,0,1.81,1.81A1.68,1.68,0,0,0,100.1,46,1.75,1.75,0,0,0,98.44,44.14Zm-19.56,0A1.79,1.79,0,1,0,79,47.71,1.63,1.63,0,0,0,80.68,46,1.67,1.67,0,0,0,78.88,44.14Zm-19.3,0a1.79,1.79,0,0,0-.15,3.58,1.75,1.75,0,0,0,1.89-1.82A1.68,1.68,0,0,0,59.58,44.14Zm-19.46,0A1.68,1.68,0,0,0,38.33,46a1.66,1.66,0,0,0,1.93,1.7c1.11-.08,1.6-.76,1.62-1.88A1.67,1.67,0,0,0,40.12,44.14Zm58.32,0a1.69,1.69,0,0,0-1.92,1.74,1.66,1.66,0,0,0,1.81,1.81A1.68,1.68,0,0,0,100.1,46,1.75,1.75,0,0,0,98.44,44.14Zm-19.56,0A1.79,1.79,0,1,0,79,47.71,1.63,1.63,0,0,0,80.68,46,1.67,1.67,0,0,0,78.88,44.14Zm-19.3,0a1.79,1.79,0,0,0-.15,3.58,1.75,1.75,0,0,0,1.89-1.82A1.68,1.68,0,0,0,59.58,44.14Zm-19.46,0A1.68,1.68,0,0,0,38.33,46a1.66,1.66,0,0,0,1.93,1.7c1.11-.08,1.6-.76,1.62-1.88A1.67,1.67,0,0,0,40.12,44.14Zm58.32,0a1.69,1.69,0,0,0-1.92,1.74,1.66,1.66,0,0,0,1.81,1.81A1.68,1.68,0,0,0,100.1,46,1.75,1.75,0,0,0,98.44,44.14Zm-19.56,0A1.79,1.79,0,1,0,79,47.71,1.63,1.63,0,0,0,80.68,46,1.67,1.67,0,0,0,78.88,44.14Zm-19.3,0a1.79,1.79,0,0,0-.15,3.58,1.75,1.75,0,0,0,1.89-1.82A1.68,1.68,0,0,0,59.58,44.14Zm-19.46,0A1.68,1.68,0,0,0,38.33,46a1.66,1.66,0,0,0,1.93,1.7c1.11-.08,1.6-.76,1.62-1.88A1.67,1.67,0,0,0,40.12,44.14Zm38.76,0A1.79,1.79,0,1,0,79,47.71,1.63,1.63,0,0,0,80.68,46,1.67,1.67,0,0,0,78.88,44.14Zm-19.3,0a1.79,1.79,0,0,0-.15,3.58,1.75,1.75,0,0,0,1.89-1.82A1.68,1.68,0,0,0,59.58,44.14Zm-19.46,0A1.68,1.68,0,0,0,38.33,46a1.66,1.66,0,0,0,1.93,1.7c1.11-.08,1.6-.76,1.62-1.88A1.67,1.67,0,0,0,40.12,44.14Zm38.76,0A1.79,1.79,0,1,0,79,47.71,1.63,1.63,0,0,0,80.68,46,1.67,1.67,0,0,0,78.88,44.14Zm-19.3,0a1.79,1.79,0,0,0-.15,3.58,1.75,1.75,0,0,0,1.89-1.82A1.68,1.68,0,0,0,59.58,44.14Zm-19.46,0A1.68,1.68,0,0,0,38.33,46a1.66,1.66,0,0,0,1.93,1.7c1.11-.08,1.6-.76,1.62-1.88A1.67,1.67,0,0,0,40.12,44.14Zm0,0A1.68,1.68,0,0,0,38.33,46a1.66,1.66,0,0,0,1.93,1.7c1.11-.08,1.6-.76,1.62-1.88A1.67,1.67,0,0,0,40.12,44.14Zm0,0A1.68,1.68,0,0,0,38.33,46a1.66,1.66,0,0,0,1.93,1.7c1.11-.08,1.6-.76,1.62-1.88A1.67,1.67,0,0,0,40.12,44.14Z"/><path class="cls-1" d="M135.15,87.13c-.18,6.12-1.43,11.93-5.55,16.72-4.82,5.62-11.35,5.54-16.13-.13a23.31,23.31,0,0,1-5.12-12.42c-.84-6.6,0-12.93,3.51-18.74a15,15,0,0,1,3.71-4.26,9.35,9.35,0,0,1,12.81.64c4,3.8,5.74,8.67,6.48,14A17.46,17.46,0,0,1,135.15,87.13Z"/><path class="cls-1" d="M85.59,122.89A1.85,1.85,0,0,1,87.45,121a1.77,1.77,0,0,1,1.92,1.94,1.73,1.73,0,0,1-1.83,1.86A1.82,1.82,0,0,1,85.59,122.89Z"/><path class="cls-1" d="M80.68,46A1.63,1.63,0,0,1,79,47.71a1.79,1.79,0,1,1-.11-3.57A1.67,1.67,0,0,1,80.68,46Z"/><path class="cls-1" d="M61.32,45.9a1.75,1.75,0,0,1-1.89,1.82,1.79,1.79,0,1,1,1.89-1.82Z"/><path class="cls-1" d="M41.88,45.81c0,1.12-.51,1.8-1.62,1.88a1.78,1.78,0,1,1,1.62-1.88Z"/><path class="cls-1" d="M22.53,46a1.69,1.69,0,0,1-1.76,1.75A1.63,1.63,0,0,1,19,46.07a1.66,1.66,0,0,1,1.7-1.93A1.7,1.7,0,0,1,22.53,46Z"/><path class="cls-1" d="M100.1,46a1.68,1.68,0,0,1-1.77,1.65,1.66,1.66,0,0,1-1.81-1.81,1.69,1.69,0,0,1,1.92-1.74A1.75,1.75,0,0,1,100.1,46Z"/><path class="cls-1" d="M80.68,46A1.63,1.63,0,0,1,79,47.71a1.79,1.79,0,1,1-.11-3.57A1.67,1.67,0,0,1,80.68,46Z"/><path class="cls-1" d="M61.32,45.9a1.75,1.75,0,0,1-1.89,1.82,1.79,1.79,0,1,1,1.89-1.82Z"/><path class="cls-1" d="M41.88,45.81c0,1.12-.51,1.8-1.62,1.88a1.78,1.78,0,1,1,1.62-1.88Z"/><path class="cls-1" d="M22.53,46a1.69,1.69,0,0,1-1.76,1.75A1.63,1.63,0,0,1,19,46.07a1.66,1.66,0,0,1,1.7-1.93A1.7,1.7,0,0,1,22.53,46Z"/><path class="cls-1" d="M100.1,46a1.68,1.68,0,0,1-1.77,1.65,1.66,1.66,0,0,1-1.81-1.81,1.69,1.69,0,0,1,1.92-1.74A1.75,1.75,0,0,1,100.1,46Z"/><path class="cls-1" d="M27.64,78.68c-.25,0-.5,0-.76,0A10.34,10.34,0,0,0,19.46,82a15.44,15.44,0,0,0-4.14,9.55c0,.48-.06,1-.06,1.43a15.19,15.19,0,0,0,2.58,8.67,10.16,10.16,0,0,0,7.53,4.63A10.17,10.17,0,0,0,33.56,103a15.48,15.48,0,0,0,4.13-9.55C38.32,85.8,33.81,79.19,27.64,78.68ZM26.19,89.59A4.56,4.56,0,1,1,30.75,85,4.55,4.55,0,0,1,26.19,89.59Z"/><path class="cls-1" d="M90.94,91.27A16.58,16.58,0,0,0,89.65,86a14.56,14.56,0,0,0-2.84-4.3,10.37,10.37,0,0,0-7.43-3.37c-.25,0-.51,0-.76,0-6.17.51-10.68,7.12-10.05,14.73a15.44,15.44,0,0,0,4.14,9.55,9.75,9.75,0,0,0,15.71-1.29A15.44,15.44,0,0,0,90.94,91.27Zm-10.87-2a4.56,4.56,0,1,1,4.56-4.55A4.56,4.56,0,0,1,80.07,89.29Z"/><path class="cls-1" d="M126.47,60.29c0-3.56,0-7.14,0-10.71a46.57,46.57,0,0,0-5.61-23.41C111.7,9.51,98,0,78.48,0c-10,0-20,0-29.93,0A43.71,43.71,0,0,0,21.48,9C7,19.85,1,35.12.32,52.54c-.6,16-.19,32.08-.11,48.13.07,14.75,6,26.77,17.13,36.39,2,1.71,4.87,2.42,6,4.95a76.89,76.89,0,0,1,2.54,7.69c.1.31.24.6.31.92,1,4.86,6.54,7.15,11.08,5s9-4.68,13.46-7.15a5.32,5.32,0,0,1,2.72-.78c8.13,0,16.26.14,24.39,0,16.6-.3,29.51-7.2,38.74-20.39l.63-.92c.42-.63.84-1.28,1.25-1.95a39.6,39.6,0,0,0,4.28-9.57c10.17-.52,18.31-12.7,18.31-27.64C141.05,74.13,134.83,63.19,126.47,60.29ZM26.13,108l-.89,0a11.83,11.83,0,0,1-8.74-5.33,17.1,17.1,0,0,1-2.8-11.16,18.17,18.17,0,0,1,1.43-5.79,15.82,15.82,0,0,1,3.16-4.76,11.79,11.79,0,0,1,9.48-3.83c7.07.58,12.24,8,11.55,16.49a17.15,17.15,0,0,1-4.6,10.55A11.93,11.93,0,0,1,26.13,108ZM19.49,22.37c0-1.83.87-2.56,2.4-3.37v8.25c0,4.44,0,8.89,0,13.33a1.79,1.79,0,0,0,1,1.92,3.82,3.82,0,0,1,1.8,4.44A3.93,3.93,0,0,1,20.82,50a4.05,4.05,0,0,1-2.3-7.49,1.86,1.86,0,0,0,1-1.93C19.53,34.51,19.63,28.44,19.49,22.37Zm14,39.11a5.44,5.44,0,0,1,.85.74c.33.35.71.73.49,1.26s-1.38.59-2,.61c-1.51,0-3.15-.39-4.62,0a8.43,8.43,0,0,0-4.37,3.18c-.71.85-1.48,1.79-2.69,1s-1.16-2-.65-3.19C22.31,60.9,29.81,58.85,33.47,61.48Zm5.46-20.93q0-13.66,0-27.32c0-.69-.32-1.54.92-1.68,1-.11,1.42,0,1.4,1.16-.07,4.72,0,9.43,0,14.15,0,4.5,0,9,0,13.49a2.09,2.09,0,0,0,1.13,2.18,4.08,4.08,0,1,1-6.19,4.53A3.82,3.82,0,0,1,38,42.49C39,42,38.93,41.35,38.93,40.55ZM58.37,12.33c0-.87-.06-1.49,1.22-1.47s1.1.64,1.1,1.42q0,7.16,0,14.31c0,4.66,0,9.32,0,14,0,.84,0,1.43,1,1.91a3.9,3.9,0,0,1,1.82,4.61,4.17,4.17,0,0,1-7.93.08,3.94,3.94,0,0,1,1.75-4.66,1.93,1.93,0,0,0,1.09-2C58.37,31.09,58.39,21.71,58.37,12.33ZM57.51,113.7c2.52,0,3.5,1.55,2.51,3.87-1.76,4.14-5,6.42-8.92,6.26-4.37-.18-7.46-4.43-8.17-7.5-.32-1.41.89-2.59,2.57-2.63,2.06,0,4.11,0,6.17,0S55.57,113.68,57.51,113.7Zm64.75-2.52a3.7,3.7,0,0,1-.47,0,2.32,2.32,0,0,0-.59,0,1.48,1.48,0,0,0-.83.47,4.39,4.39,0,0,0-.75,1.66,43.31,43.31,0,0,1-40,31c-8.56.25-17.13,0-25.7,0a8.75,8.75,0,0,0-5.24,1.34A124.76,124.76,0,0,1,36,152.49c-3.43,1.71-6.56-.3-6.73-4.18a7.32,7.32,0,0,0,5.75-.89c1.69-1,3.43-1.85,5.15-2.76,2.69-1.43,5.24-3.43,8.11-4.14s6.15-.11,9.24-.16c6.77-.12,13.55.39,20.31-.29,16.38-1.63,31.46-14.41,35.84-30.27a1.47,1.47,0,0,0-.51-1.82,13.63,13.63,0,0,1-3.45-3.85c-.66-1.15-1.08-.89-1.84-.12q-8,8-16,16a2.24,2.24,0,0,0-.81,2.37,3.43,3.43,0,0,1-2,3.85,3.75,3.75,0,0,1-4.18-.85,3.63,3.63,0,0,1-.52-4.22,3.45,3.45,0,0,1,4-1.79,1.6,1.6,0,0,0,1.83-.5Q98.53,110.36,107,102a1.46,1.46,0,0,0,.39-1.92A32.83,32.83,0,0,1,106,77.93c1.68-6.06,4.67-11.31,10.73-14.11.68-.31.56-.83.56-1.34,0-2.82,0-5.64,0-8.46,0-13.78-4.8-25.62-14.81-35.17C95.06,11.75,86.36,7.53,75.82,7.64c-9.54.09-19.08,0-28.62,0a47.31,47.31,0,0,0-27.41,8.68C18.17,17.49,16.65,18.75,15,20c.07-.24.07-.32.12-.38C23.64,9.39,34.38,3.42,48,3.29c10.85-.11,21.69,0,32.53,0a35.62,35.62,0,0,1,4.38.25c20.56,2.68,35.74,20.71,38,39.75.53,4.46.22,19.79.22,19.79a11.08,11.08,0,0,1,1.6.33h0a16,16,0,0,1,8.83,6.9,30.52,30.52,0,0,1,4.73,16.9,30.55,30.55,0,0,1-4.73,16.9,21.3,21.3,0,0,1-2.05,2.6,16.59,16.59,0,0,1-2.29,2.06,13.83,13.83,0,0,1-2.48,1.49,7.78,7.78,0,0,1-1.56.47c-.51.12-1,.24-1.55.32A9.06,9.06,0,0,1,122.26,111.18ZM77.71,26.5c0-4.71,0-9.43,0-14.14,0-.58-.45-1.48.87-1.43,1.08,0,1.5.31,1.49,1.49,0,9.21,0,18.42,0,27.64a2.45,2.45,0,0,0,1.28,2.6,3.82,3.82,0,0,1,1.5,4.58,3.94,3.94,0,0,1-4,2.76A3.89,3.89,0,0,1,75,47.18a3.77,3.77,0,0,1,1.55-4.54,2.19,2.19,0,0,0,1.19-2.32C77.7,35.71,77.71,31.11,77.71,26.5Zm8.12,38.33a3.25,3.25,0,0,1,.31,1.5,1.92,1.92,0,0,1-1.13,2,1.77,1.77,0,0,1-2.22-.86,8.74,8.74,0,0,0-3.7-3.11,6.88,6.88,0,0,0-2.32-.49c-1.06,0-2.16.15-3.22.18-.69,0-1.69.12-1.93-.73-.29-1.07,1-1.7,1.82-2.2C77.1,59,83.9,61.06,85.83,64.83ZM78.49,76.76A11.79,11.79,0,0,1,88,80.59a17.81,17.81,0,0,1,1.79,21.71A11.81,11.81,0,0,1,81,107.63l-.9,0a11.93,11.93,0,0,1-8.59-3.86A17.08,17.08,0,0,1,67,93.25C66.25,84.74,71.42,77.34,78.49,76.76ZM97.14,18.68a3.72,3.72,0,0,1,2.33,3.79c-.14,6.05,0,12.12-.06,18.18a1.62,1.62,0,0,0,1,1.76,4,4,0,0,1,1.92,4.72,4.17,4.17,0,0,1-8-.13,3.93,3.93,0,0,1,1.92-4.57,1.65,1.65,0,0,0,.92-1.78C97.13,33.4,97.14,26.15,97.14,18.68Z"/><path class="cls-1" d="M117.21,126.35c-.2.31-.41.62-.62.93h0Z"/></g></g></svg>